<?xml version="1.0" encoding="utf-8" ?>
<svg baseProfile="full" height="300mm" version="1.1" viewBox="0,0,200,300" width="200mm" xmlns="http://www.w3.org/2000/svg" xmlns:ev="http://www.w3.org/2001/xml-events" xmlns:xlink="http://www.w3.org/1999/xlink"><defs /><rect fill="#222222" height="300" width="200" x="0" y="0" /><text fill="#FFFFFF" style="font-size:12px; font-family:Arial; font-weight:bold;" x="10" y="20">Over 10km Runs</text><text fill="#FFFFFF" style="font-size:4px; font-family:Arial" x="10" y="280">ATHLETE</text><text fill="#FFFFFF" style="font-size:9px; font-family:Arial" x="10" y="290">Evan</text><text fill="#FFFFFF" style="font-size:4px; font-family:Arial" x="65" y="280">SPECIAL TRACKS</text><rect fill="yellow" height="2.6" width="2.6" x="65" y="283" /><text fill="#FFFFFF" style="font-size:3px; font-family:Arial" x="70" y="285.5">Over 20.0 km</text><rect fill="red" height="2.6" width="2.6" x="65" y="287" /><text fill="#FFFFFF" style="font-size:3px; font-family:Arial" x="70" y="289.5">Over 40.0 km</text><text fill="#FFFFFF" style="font-size:4px; font-family:Arial" x="120" y="280">STATISTICS</text><text fill="#FFFFFF" style="font-size:3px; font-family:Arial" x="120" y="285">Number: 2</text><text fill="#FFFFFF" style="font-size:3px; font-family:Arial" x="120" y="290">Weekly: 1.0</text><text fill="#FFFFFF" style="font-size:3px; font-family:Arial" x="141" y="285">Total: 20.3 km</text><text fill="#FFFFFF" style="font-size:3px; font-family:Arial" x="141" y="290">Avg: 10.2 km</text><text fill="#FFFFFF" style="font-size:3px; font-family:Arial" x="167" y="285">Min: 10.1 km</text><text fill="#FFFFFF" style="font-size:3px; font-family:Arial" x="167" y="290">Max: 10.2 km</text><polyline fill="none" points="132.89909330219962,40.931476865604054 96.06727113190573,53.11244840591098 88.17022521211766,55.21639144371147 88.01228429365437,55.770058561261976 88.54928341624327,54.55198974610539 88.07546066096984,55.327124937291956 85.39046504825819,55.40094724690425 76.38783269945998,57.09885606836178 73.98713073995896,56.76665716464049 46.0,58.501470183808124 53.45481134834699,100.61418575138669 64.88973384024575,138.36737820974668 65.55308569758199,138.99471847168752 66.91137759585399,139.06852313439595 93.35068733547814,130.3225622655882 98.02573851996567,128.07145681005204 100.64755776536185,128.03455332134035 107.97601637907792,125.37749190875911 110.94530564500019,124.93464637905709 125.00204738241155,118.80855907080695 131.66715413867496,116.59428426582599 131.91985960816965,115.67166562954662 136.6264989762567,114.08475588622969 139.50102369126398,112.5347440748883 150.84118163213134,108.36444012291031 152.2626498977188,107.51561110833427 154.0,105.00601763365557 148.8195378765231,90.31715373665793 147.49283416208345,84.00591983846971 144.8078385492554,78.65419957169797 142.91254752862733,71.78911442225217 141.39631471189205,68.68870923612849 133.5308569757035,45.619355512521 133.1517987715779,43.07240561625804" stroke="#4DD2FF" stroke-linecap="round" stroke-linejoin="round" stroke-width="0.5"><title>2025-04-08 10.1km</title><desc>1744090016000</desc></polyline><polyline fill="none" points="133.68720930232666,161.06594030206907 126.05813953478355,162.7535550284665 96.76627906982321,172.9157574895071 88.16395348845981,175.19028920307755 78.40000000002328,176.95120676295483 53.91162790695671,178.49200231270515 47.09883720939979,178.49200231270515 46.0,179.2257120796421 47.067441860446706,192.79906353764818 50.74069767445326,211.03054247860564 64.68023255816661,257.3202660223469 65.1825581395533,258.5672890653077 66.28139534872025,258.93405969793093 108.09999999997672,245.14321787058725 110.32906976738013,244.81311123416526 125.93255813966971,238.13755426526768 131.1127906977199,236.56034352682764 131.58372093038633,235.60667775082402 132.99651162791997,234.98312563766376 154.0,226.58340294039226 151.33139534888323,217.52321265466162 148.5058139534667,210.7004034689453 146.68488372093998,203.36390017406666 144.5186046512099,199.4021240453003 137.79999999993015,179.73930799527443 132.2116279071197,161.6529376578692 131.8034883721266,161.21268973394763 130.79883720935322,161.39612643662258" stroke="#4DD2FF" stroke-linecap="round" stroke-linejoin="round" stroke-width="0.5"><title>2025-03-31 10.2km</title><desc>1743401139000</desc></polyline></svg>