<?xml version="1.0" encoding="utf-8" ?>
<svg baseProfile="full" height="300mm" version="1.1" viewBox="0,0,200,300" width="200mm" xmlns="http://www.w3.org/2000/svg" xmlns:ev="http://www.w3.org/2001/xml-events" xmlns:xlink="http://www.w3.org/1999/xlink"><defs /><rect fill="#222222" height="300" width="200" x="0" y="0" /><text fill="#FFFFFF" style="font-size:12px; font-family:Arial; font-weight:bold;" x="10" y="20">Over 10km Runs</text><text fill="#FFFFFF" style="font-size:4px; font-family:Arial" x="10" y="280">ATHLETE</text><text fill="#FFFFFF" style="font-size:9px; font-family:Arial" x="10" y="290">Evan</text><text fill="#FFFFFF" style="font-size:4px; font-family:Arial" x="65" y="280">SPECIAL TRACKS</text><rect fill="yellow" height="2.6" width="2.6" x="65" y="283" /><text fill="#FFFFFF" style="font-size:3px; font-family:Arial" x="70" y="285.5">Over 20.0 km</text><rect fill="red" height="2.6" width="2.6" x="65" y="287" /><text fill="#FFFFFF" style="font-size:3px; font-family:Arial" x="70" y="289.5">Over 40.0 km</text><text fill="#FFFFFF" style="font-size:4px; font-family:Arial" x="120" y="280">STATISTICS</text><text fill="#FFFFFF" style="font-size:3px; font-family:Arial" x="120" y="285">Number: 1</text><text fill="#FFFFFF" style="font-size:3px; font-family:Arial" x="120" y="290">Weekly: 1.0</text><text fill="#FFFFFF" style="font-size:3px; font-family:Arial" x="141" y="285">Total: 10.2 km</text><text fill="#FFFFFF" style="font-size:3px; font-family:Arial" x="141" y="290">Avg: 10.2 km</text><text fill="#FFFFFF" style="font-size:3px; font-family:Arial" x="167" y="285">Min: 10.2 km</text><text fill="#FFFFFF" style="font-size:3px; font-family:Arial" x="167" y="290">Max: 10.2 km</text><polyline fill="none" points="150.5308139536064,76.59891045308905 139.08720930223353,79.13033254269976 95.14941860479303,94.37363623426063 82.24593023280613,97.78543380461633 67.60000000009313,100.42681014444679 30.867441860493273,102.73800346907228 20.648255814099684,102.73800346907228 19.0,103.83856811944861 20.601162790786475,124.19859530642862 26.111046511679888,151.54581371787935 47.02034883736633,220.98039903352037 47.773837209446356,222.850933597947 49.42209302331321,223.40108954691095 112.1500000001397,202.71482680586632 115.49360465118662,202.2196668512188 138.89883720944636,192.20633139787242 146.66918604657985,189.84051529021235 147.3755813955795,188.41001662623603 149.4947674421128,187.4746884565102 181.0,174.87510441057384 176.99709302349947,161.28481898200698 172.7587209304329,151.0506052034325 170.02732558152638,140.04585026105633 166.77790697687306,134.10318606795045 156.70000000018626,104.6089619928971 148.31744186067954,77.47940648678923 147.7052325583063,76.81903460092144 146.19825581414625,77.09418965491932" stroke="#4DD2FF" stroke-linecap="round" stroke-linejoin="round" stroke-width="0.5"><title>2025-03-31 10.2km</title><desc>1743401139000</desc></polyline></svg>