<?xml version="1.0" encoding="utf-8" ?>
<svg baseProfile="full" height="300mm" version="1.1" viewBox="0,0,200,300" width="200mm" xmlns="http://www.w3.org/2000/svg" xmlns:ev="http://www.w3.org/2001/xml-events" xmlns:xlink="http://www.w3.org/1999/xlink"><defs /><rect fill="#222222" height="300" width="200" x="0" y="0" /><text fill="#FFFFFF" style="font-size:12px; font-family:Arial; font-weight:bold;" x="10" y="20">Over 10km Runs</text><text fill="#FFFFFF" style="font-size:4px; font-family:Arial" x="10" y="280">ATHLETE</text><text fill="#FFFFFF" style="font-size:9px; font-family:Arial" x="10" y="290">Evan</text><text fill="#FFFFFF" style="font-size:4px; font-family:Arial" x="65" y="280">SPECIAL TRACKS</text><rect fill="yellow" height="2.6" width="2.6" x="65" y="283" /><text fill="#FFFFFF" style="font-size:3px; font-family:Arial" x="70" y="285.5">Over 20.0 km</text><rect fill="red" height="2.6" width="2.6" x="65" y="287" /><text fill="#FFFFFF" style="font-size:3px; font-family:Arial" x="70" y="289.5">Over 40.0 km</text><text fill="#FFFFFF" style="font-size:4px; font-family:Arial" x="120" y="280">STATISTICS</text><text fill="#FFFFFF" style="font-size:3px; font-family:Arial" x="120" y="285">Number: 4</text><text fill="#FFFFFF" style="font-size:3px; font-family:Arial" x="120" y="290">Weekly: 1.3</text><text fill="#FFFFFF" style="font-size:3px; font-family:Arial" x="141" y="285">Total: 40.8 km</text><text fill="#FFFFFF" style="font-size:3px; font-family:Arial" x="141" y="290">Avg: 10.2 km</text><text fill="#FFFFFF" style="font-size:3px; font-family:Arial" x="167" y="285">Min: 10.1 km</text><text fill="#FFFFFF" style="font-size:3px; font-family:Arial" x="167" y="290">Max: 10.3 km</text><polyline fill="none" points="79.67431997670792,38.19860764918849 52.05045334901661,47.33433630439686 46.12766890914645,48.91229358277633 46.00921322032809,49.32754392095376 46.41196256224066,48.41399230956449 46.05659549578559,48.99534370296169 44.04284878622275,49.05071043517091 37.29087452462409,50.32414205127861 35.490348055027425,50.07499287347309 14.5,51.37610263784882 20.091108511202037,82.96063931353274 28.667300380184315,111.27553365728818 29.1648142732447,111.74603885374381 30.183533196919598,111.80139235078241 50.013015501666814,105.24192169916932 53.519303890061565,103.55359260752448 55.48566832405049,103.52591499098344 60.98201228433754,101.5331189315475 63.20897923375014,101.20098478428554 73.75153553683776,96.60641930310521 78.75036560394801,94.94571319935494 78.93989470612723,94.25374922214542 82.46987423230894,93.06356691467226 84.62576776847709,91.90105805615894 93.1308862240985,88.77333009216818 94.1969874232309,88.13670833123615 95.5,86.25451322522713 91.61465340747964,75.2378653024789 90.6196256215917,70.50443987885956 88.60587891191244,66.49064967874438 87.18441064644139,61.34183581668185 86.04723603394814,59.01653192707454 80.14814273186494,41.71451663438347 79.86384907865431,39.80430421218625" stroke="#4DD2FF" stroke-linecap="round" stroke-linejoin="round" stroke-width="0.5"><title>2025-04-08 10.1km</title><desc>1744090016000</desc></polyline><polyline fill="none" points="170.2654069768032,38.299455226544524 164.54360465111677,39.56516627134988 142.5747093023965,47.186818117130315 136.12296511640307,48.892716902308166 128.80000000004657,50.213405072223395 110.43372093024664,51.36900173453614 105.32412790704984,51.36900173453614 104.5,51.919284059724305 105.30058139539324,62.09929765321431 108.05552325583994,75.77290685893968 118.51017441868316,110.49019951676019 118.88691860472318,111.4254667989735 119.7110465116566,111.70054477345548 151.07500000006985,101.35741340293316 152.7468023255933,101.1098334256094 164.44941860472318,96.10316569893621 168.33459302328993,94.92025764510618 168.68779069778975,94.20500831311801 169.7473837210564,93.7373442282551 185.5,87.43755220528692 183.49854651174974,80.64240949100349 181.37936046521645,75.52530260171625 180.0136627907632,70.02292513052817 178.38895348843653,67.05159303397522 173.35000000009313,52.30448099644855 169.15872093033977,38.739703243394615 168.85261627915315,38.40951730046072 168.09912790707313,38.54709482745966" stroke="#4DD2FF" stroke-linecap="round" stroke-linejoin="round" stroke-width="0.5"><title>2025-03-31 10.2km</title><desc>1743401139000</desc></polyline><polyline fill="none" points="93.6341966536711,219.63394083381718 95.42573917028494,218.3967760326268 95.25865230348427,218.67893773823016 95.28650011465652,218.40762842026743 95.5,219.0479172600535 95.2400870960555,218.68979009601026 93.97765299107414,219.1347357783161 93.4763923905557,218.35336647063377 92.55741462297738,218.3750712539404 92.1768278707168,217.951827152021 91.64771945908433,218.14717080048285 90.04182901675813,218.3425140772597 89.25280770112295,218.77660891717824 87.83256933302619,218.85257532544347 87.25704790279269,219.12388346755324 86.8393307357328,219.08047421302035 86.06887462752638,219.22155422323704 85.70685308275279,219.46030456808512 84.55581022234401,219.57967953232583 83.98957139579579,219.90524691111204 82.86637634655926,220.06803021339147 82.36511574604083,220.36103950705728 81.38115975243272,220.41530039557983 79.36683474673191,220.8276822113985 78.9584001833573,221.06642882135202 75.82088012836175,221.56562448461773 74.85548934218241,221.85862950441515 73.87153334863251,221.86948152614787 72.92470776988193,222.34696934602107 71.5415998166427,222.62912019583746 70.98464359383797,222.91127027029142 69.48086179234087,223.24767896115372 68.16273206513142,223.3453457939977 67.19734127889387,223.59493838916387 66.73321109329117,224.01815922918468 64.08766903507058,224.49563705708715 63.14084345632,224.9622609709695 59.17717167088995,226.19934666591143 58.5738024294842,226.55744763820258 57.71052028419217,226.81788392456656 57.58056383224903,227.01321070591803 56.05821682326496,227.43641745753848 55.83543433417799,227.65344588438893 54.702956681197975,227.80536551029945 52.67934907175368,228.83624274907197 50.34941553976387,229.60668108628306 49.45828558335779,229.60668108628306 47.84311253728811,229.98647250587965 47.648177859256975,230.14923982715118 42.74696309881983,231.07158310834348 41.48452899378026,231.48392213116313 38.82970433187438,232.04817284798628 38.42126976849977,232.01562000625563 38.25418290164089,231.82030273933924 35.87783635110827,225.9931667517303 35.66433646570658,226.05827624304948 35.40442356176209,225.53739915663027 35.070249828044325,225.66761867592868 34.94957597984467,225.58080568141304 34.819619527843315,225.36377287399955 34.91244556492893,225.2009979673967 34.74535869812826,225.50484425100876 34.94029337610118,225.15759128205536 34.87531515012961,225.26610796099703 35.033119413245004,225.24440463439532 34.958858583529945,225.14673960786604 35.033119413245004,225.53739915663027 34.828902131528594,225.32036625745968 35.10738024296006,225.25525629828917 34.921728168672416,225.32036625745968 35.15379326150287,225.50484425100876 35.08881503547309,225.71102514566155 35.36729314690456,225.40717947218945 34.68966307584196,224.1049735448687 34.327641531068366,223.77941948262742 32.563946825568564,223.953048444273 30.614600045839325,224.53904402225453 16.430781572300475,227.45812032087997 15.845977538381703,227.8813252389591 15.79028191609541,228.49985236653447 14.583543433400337,228.54325763908855 14.5,228.69517594860372 14.954847581975628,228.66262204408122 14.81560852623079,229.05326821755443 15.697455879009794,228.79283760036196 16.050194820098113,228.97730935575237 15.966651386639569,228.8253914636225 15.864542745810468,228.93390426666883 15.855260142066982,228.7277298428453 15.948086179210804,228.81454017702345 15.818129727209453,228.97730935575237 15.883107953239232,228.81454017702345" stroke="#4DD2FF" stroke-linecap="round" stroke-linejoin="round" stroke-width="0.5"><title>2019-04-04 10.3km</title><desc>1554367773000</desc></polyline><polyline fill="none" points="104.76931896357564,226.5962907117355 104.5,225.84720855622436 104.81575326767052,226.2054659206915 105.91160284343641,225.81463964295108 106.03233203396667,225.67350756617088 105.9487502866541,225.23925380620494 106.12520064204,225.15240283397725 111.5673010777682,224.1210419257186 112.50527401978616,223.79534685620456 113.67541848204564,223.79534685620456 114.72483375371667,223.3719417221946 119.86975464347051,222.34056293935282 120.99346480169334,221.9822920968727 121.84785599639872,221.96057867231139 122.00573263014667,222.17771271130914 121.65283191931667,225.41295553046075 121.34636551252333,226.5637220359422 120.99346480169334,230.14621448438265 120.80772758548846,230.74328441536636 121.01203852333128,232.07853734220407 120.69628525571898,233.76114843588584 121.25349690445,234.21707702027925 124.69892226561205,232.01340345565404 127.7914469158859,230.3199079130427 131.90552625549026,229.35373449025064 132.12841091497103,229.16918347718456 135.41595964232692,228.71323249438137 139.53003898193128,227.7796122639993 139.79007108462974,227.60591454092355 141.05308415502077,227.46478492476308 145.4271955973818,225.93405894110765 150.44210043567,223.76277729248977 157.66727814724436,221.64573350057617 163.03508369647898,220.2560605237377 166.99128640221898,219.45264725793095 168.3936023847782,218.9749390939469 171.88546204997692,218.36694367218297 172.51696858520154,218.0955159826699 174.14216922724154,217.87837331467017 177.59688144922256,217.03151252335374 178.58128869527718,216.9663690963862 180.74512726441026,216.29321793152485 182.55606512271333,216.0434994420866 183.39188259572256,215.78292297972075 183.6983490025159,215.9674980421987 184.0883971566218,216.5320785272197 185.5,216.10864345439768" stroke="#4DD2FF" stroke-linecap="round" stroke-linejoin="round" stroke-width="0.5"><title>2019-04-04 10.2km</title><desc>1554314679000</desc></polyline></svg>