<?xml version="1.0" encoding="utf-8" ?>
<svg baseProfile="full" height="200mm" version="1.1" viewBox="0,0,200,200" width="200mm" xmlns="http://www.w3.org/2000/svg" xmlns:ev="http://www.w3.org/2001/xml-events" xmlns:xlink="http://www.w3.org/1999/xlink"><defs /><rect fill="#1a1a1a" height="200" width="200" x="0" y="0" /><text alignment-baseline="middle" fill="#e1ed5e" style="dominant-baseline: central; font-size:9.0px; font-family:Arial;" text-anchor="middle" x="100.0" y="100.0">2025</text><line stroke="#e1ed5e" stroke-width="0.3" x1="100.0" x2="100.0" y1="15.0" y2="10.0" /><path d="M 100.0 14.0 a86.0,86.0 0 0,1 42.46469731375804,11.215312516191453" fill="none" id="id121" stroke="none" /><text fill="#e1ed5e" style="font-size:6.75px; font-family:Arial;" text-anchor="middle"><textPath startOffset="22.20632615414155" xlink:href="#id121">January</textPath></text><line stroke="#e1ed5e" stroke-width="0.3" x1="143.23703022742887" x2="145.7803849466894" y1="26.81831364943548" y2="22.513508569990506" /><path d="M 143.74570117128098 25.957352633546492 a86.0,86.0 0 0,1 28.547481713284135,27.462654790039103" fill="none" id="id122" stroke="none" /><text fill="#e1ed5e" style="font-size:6.75px; font-family:Arial;" text-anchor="middle"><textPath startOffset="19.985693538727396" xlink:href="#id122">February</textPath></text><line stroke="#e1ed5e" stroke-width="0.3" x1="172.23445277983987" x2="176.4835382374775" y1="55.19839476539836" y2="52.563006222186495" /><path d="M 173.08426987136738 54.67131705675599 a86.0,86.0 0 0,1 12.851231095245387,41.99856678651699" fill="none" id="id123" stroke="none" /><text fill="#e1ed5e" style="font-size:6.75px; font-family:Arial;" text-anchor="middle"><textPath startOffset="22.20632615414155" xlink:href="#id123">March</textPath></text><path d="M 120.96714384426684 98.82574320788733 l 18.83317567360442 -1.054744728993123 a39.86268783594173,39.86268783594173 0 0,0 0.0324717502374978,0.6854273256053812 l -18.848541032075413 0.7304062967647421" fill="red" stroke="none" /><path d="M 120.98425023603335 99.18683210126433 l 62.95275070810006 -2.4395036962070047 a84.0,84.0 0 0,0 0.04355322217741975,1.4453194103000038 l -62.98541562473312 1.355514138482002" fill="red" stroke="none" /><line stroke="#e1ed5e" stroke-width="0.3" x1="184.98032266829074" x2="189.97916517819016" y1="98.17113171792111" y2="98.06355123074" /><path d="M 185.9800911702706 98.14961562048488 a86.0,86.0 0 0,1 -9.607161424134198,41.387399972396054" fill="none" id="id124" stroke="none" /><text fill="#e1ed5e" style="font-size:6.75px; font-family:Arial;" text-anchor="middle"><textPath startOffset="21.466115282336823" xlink:href="#id124">April</textPath></text><path d="M 120.99513854157772 99.54816195383933 l 14.774175136088887 -0.3179561979982187 a35.77759612033272,35.77759612033272 0 0,0 0.007951132687563834,0.6158239891074732 l -14.777459275894167 0.06359595083028287" fill="red" stroke="none" /><path d="M 120.9904718944345 100.63252640178507 l 17.283313370911706 0.5208149713072993 a38.29115870355348,38.29115870355348 0 0,0 -0.025523550119325528,0.6586494172343421 l -17.271787687941178 -0.8182416355556476" fill="red" stroke="none" /><path d="M 120.95626037817324 101.35467743843564 l 16.488841751164795 1.065889691345098 a37.5232570375538,37.5232570375538 0 0,0 -0.04721398005022768,0.6441972461035601 l -16.46805121245023 -1.3495600739454283" fill="red" stroke="none" /><path d="M 120.89721153311464 102.0752229133903 l 46.50517367092604 4.618252623809124 a67.7339216785871,67.7339216785871 0 0,0 -0.12520356904146474,1.1592295516405555 l -46.41878780038353 -5.418078497334471" fill="red" stroke="none" /><path d="M 120.8583938346157 102.4346265915055 l 15.537954794726957 1.813616054083377 a36.64344087452014,36.64344087452014 0 0,0 -0.07851902549313151,0.625873888738569 l -15.504434259986978 -2.080807697109341" fill="red" stroke="none" /><path d="M 120.81339534386255 102.79330883721812 l 15.211967686891319 2.0415565586130984 a36.34835216200885,36.34835216200885 0 0,0 -0.08856180630247396,0.6194010670107403 l -15.174571829572244 -2.303103097604248" fill="red" stroke="none" /><path d="M 120.64145759157962 103.86396538481128 l 16.365363784037832 3.0635045461693653 a37.64963038293335,37.64963038293335 0 0,0 -0.12472796710391171,0.635985217110059 l -16.310205883958258 -3.3447534903473692" fill="red" stroke="none" /><path d="M 120.5718875245553 104.21870165774334 l 24.215190493770994 4.965838169040384 a45.7191221399692,45.7191221399692 0 0,0 -0.16473244406644602,0.7695751364239704 l -24.126124010980107 -5.381927124880524" fill="red" stroke="none" /><path d="M 120.49622156327973 104.57218783832717 l 22.464905136781404 5.011351274597049 a44.01707202061098,44.01707202061098 0 0,0 -0.17133002649327805,0.7380852700096505 l -22.375314544357572 -5.397305201955265" fill="red" stroke="none" /><path d="M 120.41448212921028 104.9243191809786 l 16.449354003955033 3.9678630554375185 a37.92114607153243,37.92114607153243 0 0,0 -0.1585260749545166,0.6332328678776776 l -16.378616614705457 -4.250423762712592" fill="red" stroke="none" /><path d="M 120.23288151984713 105.62410040840565 l 19.891910774797537 5.529321337782095 a41.64610153827978,41.64610153827978 0 0,0 -0.197932741833784,0.6890298406596399 l -19.793785396077652 -5.870908653946317" fill="red" stroke="none" /><path d="M 120.13307415673323 105.97154293290107 l 16.371551899006427 4.855861766666141 a38.07650740282775,38.07650740282775 0 0,0 -0.19178452760434392,0.6267629327894989 l -16.285540598895953 -5.136951672007697" fill="red" stroke="none" /><path d="M 120.02730092923936 106.31721596034902 l 16.364553429074295 5.161874706501389 a38.159357779900915,38.159357779900915 0 0,0 -0.2029855219170664,0.6247251990890863 l -16.27327565614098 -5.442798805568271" fill="red" stroke="none" /><path d="M 119.79798401119884 107.00284435728193 l 19.41286139734208 6.866620703308726 a41.59149502866468,41.59149502866468 0 0,0 -0.24454955164580047,0.6728953362760653 l -19.29178758469105 -7.199763836590922" fill="red" stroke="none" /><path d="M 119.67450827220406 107.3425965602758 l 44.64859313079654 16.663013977660835 a68.65661447668238,68.65661447668238 0 0,0 -0.422747285503728,1.1036597632547798 l -44.3551515656993 -17.42909730774876" fill="red" stroke="none" /><path d="M 119.41010516605496 108.01547362559984 l 18.994496510804904 7.843846517646101 a41.550348558877744,41.550348558877744 0 0,0 -0.27868218217311863,0.6587223572714578 l -18.85666334743948 -8.169643400583723" fill="red" stroke="none" /><path d="M 119.26925614724726 108.34839909993367 l 21.913855845490588 9.494171078456743 a44.88213479745784,44.88213479745784 0 0,0 -0.31323223766001007,0.706256005027589 l -21.747182523099305 -9.86997541997702" fill="red" stroke="none" /><path d="M 119.12269723197855 108.67885076344098 l 14.513610904555795 6.587013408790804 a36.9384330201068,36.9384330201068 0 0,0 -0.26776033903914204,0.5767319492122875 l -14.398075948676823 -6.835865425281922" fill="red" stroke="none" /><path d="M 118.97047184881838 109.00673069616215 l 18.474299992167975 8.77116005103119 a41.450745923839136,41.450745923839136 0 0,0 -0.31156501214137683,0.6419162075195156 l -18.320581723411884 -9.08786521451598" fill="red" stroke="none" /><path d="M 118.81262510543309 109.33194174019688 l 20.546983728107744 10.192264716533325 a43.936015355222764,43.936015355222764 0 0,0 -0.3419086701734006,0.6746182431360634 l -20.368496388148074 -10.544437171372083" fill="red" stroke="none" /><line stroke="#e1ed5e" stroke-width="0.3" x1="174.80103733775053" x2="179.2010983576182" y1="140.37084112569926" y2="142.7455964860345" /><path d="M 175.68104954172406 140.8457921977663 a86.0,86.0 0 0,1 -30.038265399797805,32.042727171017184" fill="none" id="id125" stroke="none" /><text fill="#e1ed5e" style="font-size:6.75px; font-family:Arial;" text-anchor="middle"><textPath startOffset="22.206326154141568" xlink:href="#id125">May</textPath></text><path d="M 118.48025628344425 109.97397251340804 l 15.241766366081752 8.226128277629808 a38.319948856686665,38.319948856686665 0 0,0 -0.3182810985341814,0.577772644834063 l -15.097908858096062 -8.487271440861676" fill="red" stroke="none" /><path d="M 117.55443506779139 111.5257021239791 l 15.220726154551238 9.993460632059358 a39.20823330464437,39.20823330464437 0 0,0 -0.3752730065031171,0.5609822270120047 l -15.0464500426374 -10.25397977327717" fill="red" stroke="none" /><path d="M 117.35343817320211 111.8261652097733 l 16.871810697141534 11.4979417162725 a41.417165814847536,41.417165814847536 0 0,0 -0.4065569994756217,0.5856756801984784 l -16.671392790503777 -11.786658658657997" fill="red" stroke="none" /><path d="M 116.93607887273984 112.41649034213515 l 16.610810009230608 12.178023236926963 a41.59668077923938,41.59668077923938 0 0,0 -0.42832445530434926,0.5738106036622895 l -16.39872428723117 -12.462146720098568" fill="red" stroke="none" /><path d="M 116.71984013943494 112.70617746262583 l 11.87739194140368 9.026177794887543 a35.917919590701715,35.917919590701715 0 0,0 -0.37832375967489545,0.48903445793582534 l -11.720261364510716 -9.229290246936621" fill="red" stroke="none" /><path d="M 116.27256486870786 113.27417163493432 l 17.446847551810613 14.232080238108011 a43.515430206861794,43.515430206861794 0 0,0 -0.4784708048151296,0.5763489073280952 l -17.199280747101938 -14.530290402549877" fill="red" stroke="none" /><path d="M 116.0416608686014 113.55231037782055 l 17.036166881231775 14.39248860289175 a43.30189925072632,43.30189925072632 0 0,0 -0.48592461467834,0.5652401064011598 l -16.785899756982655 -14.683605808454438" fill="red" stroke="none" /><path d="M 115.80600337817218 113.82643327865902 l 13.040126809839396 11.40695968283078 a38.325231208339446,38.325231208339446 0 0,0 -0.43862524552884324,0.4928001131859578 l -12.841842714662214 -11.629733965757605" fill="red" stroke="none" /><path d="M 115.32070863581623 114.36230785411682 l 12.526068342053499 11.742488810844382 a38.169403937894884,38.169403937894884 0 0,0 -0.45347696287022515,0.47546878259242525 l -12.322084827804309 -11.956364710019313" fill="red" stroke="none" /><path d="M 115.07121518719521 114.62390073753431 l 12.507038406776552 12.13582885715987 a38.42711541704071,38.42711541704071 0 0,0 -0.4647107720109738,0.47074955856837514 l -12.296287009710042 -12.349318909708911" fill="red" stroke="none" /><path d="M 114.81725581225074 114.88116024355365 l 15.095247501350478 15.160350865912285 a42.39398830289937,42.39398830289937 0 0,0 -0.5215470903349559,0.5104435990042758 l -14.832050458639728 -15.417944567839134" fill="red" stroke="none" /><path d="M 114.29624159901734 115.38237550388516 l 14.450158597924064 15.547986098614968 a42.22609137895819,42.22609137895819 0 0,0 -0.5366744196808244,0.49023935795075885 l -14.180384628776377 -15.794418223152311" fill="red" stroke="none" /><path d="M 114.0293411484842 115.62618273729858 l 11.434309634611445 12.735780670968785 a38.11559365371795,38.11559365371795 0 0,0 -0.491977292064066,0.4341127590276355 l -11.213389989640792 -12.93071657176871" fill="red" stroke="none" /><path d="M 113.20401910651253 116.32954008644616 l 16.785981284270754 20.759387884908328 a47.69684163027467,47.69684163027467 0 0,0 -0.6428682687855414,0.5107334329389157 l -16.42615552276786 -21.04525523185237" fill="red" stroke="none" /><path d="M 112.92097659922987 116.55440617244103 l 10.187833214286588 13.052692089577642 a37.557920050158586,37.557920050158586 0 0,0 -0.5130613466632714,0.3933935625632307 l -9.961643139129823 -13.226124993968243" fill="red" stroke="none" /><path d="M 112.63410532772338 116.77436683061366 l 36.68919947740091 48.71243944792899 a81.98359710004539,81.98359710004539 0 0,0 -1.1345554998296283,0.8393170353827086 l -35.84525900715272 -49.336766432051476" fill="red" stroke="none" /><path d="M 112.34349029814194 116.9893568818739 l 5.363133541457168 7.381720043534182 a30.124307764680957,30.124307764680957 0 0,0 -0.42213145441025046,0.3011795844364527 l -5.235274759198034 -7.472943889814854" fill="red" stroke="none" /><path d="M 111.1453310114006 117.79835938074945 l 11.342122775320572 18.112622863263923 a42.37079446434495,42.37079446434495 0 0,0 -0.6214802862100588,0.3817639515380179 l -11.028663289178205 -18.30517528163032" fill="red" stroke="none" /><line stroke="#e1ed5e" stroke-width="0.3" x1="143.8653032363475" x2="146.44561519142675" y1="172.8068346515853" y2="177.08958963109032" /><path d="M 144.38136562736335 173.6633856474863 a86.0,86.0 0 0,1 -40.68145358897372,12.25698825130547" fill="none" id="id126" stroke="none" /><text fill="#e1ed5e" style="font-size:6.75px; font-family:Arial;" text-anchor="middle"><textPath startOffset="21.466115282336833" xlink:href="#id126">June</textPath></text><path d="M 110.5260780823613 118.17145234162733 l 15.380987228114828 26.55261287214095 a51.685762471368,51.685762471368 0 0,0 -0.773689674547264,0.4393211892680947 l -14.921648786646363 -26.813437227203675" fill="red" stroke="none" /><path d="M 109.89434966115114 118.52300852407294 l 15.399747811502579 28.82955118324056 a53.68478627871025,53.68478627871025 0 0,0 -0.8188440686186501,0.4283805157405796 l -14.901212840357433 -29.090361117925855" fill="red" stroke="none" /><path d="M 108.2653958097858 119.30500536409082 l 9.080215042209007 21.208131362493788 a44.07022195605303,44.07022195605303 0 0,0 -0.6999369908869196,0.29257371895730316 l -8.713806591824625 -21.361290124471065" fill="red" stroke="none" /><path d="M 107.2578585660854 119.70592522655815 l 9.975597786307073 27.084901459193443 a49.863548608034904,49.863548608034904 0 0,0 -0.8079804870906044,0.2897130561018958 l -9.507897738586735 -27.2526020563353" fill="red" stroke="none" /><path d="M 106.2309692047433 120.05430185196036 l 6.063363602680573 19.51486517278581 a41.435125174324725,41.435125174324725 0 0,0 -0.682939702858798,0.2057641302315482 l -5.726548925381529 -19.616344672123084" fill="red" stroke="none" /><path d="M 105.88484417918355 120.15858648285463 l 6.3685134276952065 21.815399828857654 a43.72596825157636,43.72596825157636 0 0,0 -0.724328642817665,0.2047025095835276 l -5.992053616772936 -21.9217911317797" fill="red" stroke="none" /><path d="M 105.53697534728816 120.25689768951611 l 5.080222588229157 18.585878165437155 a40.267680937944434,40.267680937944434 0 0,0 -0.6701875873156602,0.17700263305025918 l -4.759544558101999 -18.670572147790995" fill="red" stroke="none" /><path d="M 105.18746579009965 120.34920634021253 l 7.097877929266573 27.843303147356504 a49.73376761328667,49.73376761328667 0 0,0 -0.8313750360947026,0.204331756617944 l -6.617549608428659 -27.961356162288478" fill="red" stroke="none" /><path d="M 103.06178313531738 120.77559828337769 l 4.500188587282657 30.535836849572974 a51.86566100741806,51.86566100741806 0 0,0 -0.8843623955215457,0.12256456969078579 l -3.9738976005742805 -30.608775984756363" fill="red" stroke="none" /><path d="M 102.70371172650421 120.8252237178851 l 4.236712094378261 32.633093361537945 a53.906967525335766,53.906967525335766 0 0,0 -0.9212253500620382,0.11154756056348303 l -3.6743593212648418 -32.701186450826775" fill="red" stroke="none" /><path d="M 101.62511606390274 120.93702456842531 l 3.6953956076151666 47.609269482502995 a68.75247102877894,68.75247102877894 0 0,0 -1.180700063878353,0.08142798919437502 l -2.875332782957883 -47.665825816213655" fill="red" stroke="none" /><line stroke="#e1ed5e" stroke-width="0.3" x1="102.19456741930631" x2="102.32365962044197" y1="184.97166512339345" y2="189.96999836594603" /><path d="M 102.22038585953345 185.97133177190398 a86.0,86.0 0 0,1 -42.740103519485714,-10.115201625700543" fill="none" id="id127" stroke="none" /><text fill="#e1ed5e" style="font-size:6.75px; font-family:Arial;" text-anchor="middle"><textPath startOffset="22.20632615414155" xlink:href="#id127">July</textPath></text><path d="M 100.54218724476979 120.99299961872073 l 0.9784864395916916 37.88610973685553 a58.89874333939747,58.89874333939747 0 0,0 -1.013732383691618,0.01745232231706402 l -0.32619436600740553 -37.89733953645175" fill="red" stroke="none" /><path d="M 100.18074693466247 120.99922214144158 l 0.3227203835870389 37.49373142715256 a58.49512027954344,58.49512027954344 0 0,0 -1.0069346364989629,0.0 l 0.3227203835870131 -37.49373142715256" fill="red" stroke="none" /><path d="M 99.09653310690486 120.98055641714683 l -1.219332205287856 28.31566748023831 a49.341908825593904,49.341908825593904 0 0,0 -0.8482389434901512,-0.043844264447971334 l 1.7065592171914958 -28.290483409028138" fill="red" stroke="none" /><path d="M 98.73552117531835 120.96189622390904 l -2.2418307669394704 37.163946893284496 a58.23150217053385,58.23150217053385 0 0,0 -1.0000213418322415,-0.06896732668022432 l 2.881214869550642 -37.11985122208799" fill="red" stroke="none" /><path d="M 98.37488393609728 120.93702456842531 l -1.4516173267584094 18.701770482352476 a39.75802260468666,39.75802260468666 0 0,0 -0.681860845544673,-0.058833822874401906 l 1.773322490044624 -18.674012407199413" fill="red" stroke="none" /><path d="M 98.01472825383883 120.90594882070398 l -1.9402761276190006 20.432121446583743 a41.52404098269528,41.52404098269528 0 0,0 -0.7109853140281271,-0.07369653484256794 l 2.291694038252721 -20.395695543285413" fill="red" stroke="none" /><path d="M 97.65516085044442 120.86867818915974 l -2.772928500900591 24.678602170989496 a45.83389896059566,45.83389896059566 0 0,0 -0.7832633062662482,-0.09484227837087995 l 3.1973192302182287 -24.62721436389327" fill="red" stroke="none" /><path d="M 96.93821686468263 120.77559828337769 l -3.8140325861370727 25.879954701978793 a47.15948967286231,47.15948967286231 0 0,0 -0.8020799238890914,-0.12526838850471167 l 4.258948373634682 -25.810468006126975" fill="red" stroke="none" /><path d="M 96.58105272829116 120.7198165907248 l -4.237484706585723 25.680391930283747 a47.02765464523322,47.02765464523322 0 0,0 -0.797568931959859,-0.13866758211695465 l 4.678902610017632 -25.603645769645787" fill="red" stroke="none" /><path d="M 96.22490169976321 120.6578951692458 l -5.054682119701124 27.659966718243403 a49.11802927279149,49.11802927279149 0 0,0 -0.8304043381074511,-0.15914896777727083 l 5.5300540723802705 -27.568860552117666" fill="red" stroke="none" /><path d="M 95.86986931433489 120.58985236759428 l -5.54670672454898 27.651878663595994 a49.202701096072204,49.202701096072204 0 0,0 -0.8289683699299055,-0.17371838182730528 l 6.0218665559082725 -27.55230430104215" fill="red" stroke="none" /><path d="M 95.16358092515715 120.4354850818985 l -6.433259472243041 27.182668817275022 a48.93356961555148,48.93356961555148 0 0,0 -0.8179985180632754,-0.20104413393488565 l 6.900211275049527 -27.067903425026106" fill="red" stroke="none" /><path d="M 94.81253420990036 120.34920634021253 l -6.4502289951114475 25.302728938213086 a47.111942589743535,47.111942589743535 0 0,0 -0.7840987710872287,-0.20708761200696912 l 6.884818209010166 -25.187949976902534" fill="red" stroke="none" /><path d="M 94.46302465271185 120.25689768951611 l -11.502212440973656 42.080581184815806 a64.62426164291108,64.62426164291108 0 0,0 -1.0705126861819658,-0.3025375781772237 l 12.224856295260235 -41.87635481330006" fill="red" stroke="none" /><line stroke="#e1ed5e" stroke-width="0.3" x1="58.666819895761336" x2="56.23545636021788" y1="174.27360380694188" y2="178.64263932499728" /><path d="M 58.180547188652646 175.14741091055294 a86.0,86.0 0 0,1 -31.652253787137756,-30.449443065178592" fill="none" id="id128" stroke="none" /><text fill="#e1ed5e" style="font-size:6.75px; font-family:Arial;" text-anchor="middle"><textPath startOffset="22.20632615414155" xlink:href="#id128">August</textPath></text><line stroke="#e1ed5e" stroke-width="0.3" x1="26.63291911575756" x2="22.317208475507996" y1="142.92168965132927" y2="145.44649492493687" /><path d="M 25.769776987707644 143.4266507060508 a86.0,86.0 0 0,1 -11.730757126820373,-40.83630448921669" fill="none" id="id129" stroke="none" /><text fill="#e1ed5e" style="font-size:6.75px; font-family:Arial;" text-anchor="middle"><textPath startOffset="21.46611528233685" xlink:href="#id129">September</textPath></text><line stroke="#e1ed5e" stroke-width="0.3" x1="15.007084014347285" x2="10.007500721073583" y1="101.09737516637583" y2="101.16192664675087" /><path d="M 14.007167355692545 101.11028546245083 a86.0,86.0 0 0,1 10.666146001902534,-42.60595125391555" fill="none" id="id130" stroke="none" /><text fill="#e1ed5e" style="font-size:6.75px; font-family:Arial;" text-anchor="middle"><textPath startOffset="22.20632615414155" xlink:href="#id130">October</textPath></text><line stroke="#e1ed5e" stroke-width="0.3" x1="26.266209847984243" x2="21.928928074336255" y1="57.711370442889674" y2="55.22380399835377" /><path d="M 25.398753493254645 57.213857153982495 a86.0,86.0 0 0,1 29.58750427330803,-30.492523968695096" fill="none" id="id131" stroke="none" /><text fill="#e1ed5e" style="font-size:6.75px; font-family:Arial;" text-anchor="middle"><textPath startOffset="21.46611528233685" xlink:href="#id131">November</textPath></text><line stroke="#e1ed5e" stroke-width="0.3" x1="56.762969772571076" x2="54.21961505331055" y1="26.818313649435495" y2="22.513508569990535" /><path d="M 56.25429882871897 25.957352633546506 a86.0,86.0 0 0,1 42.265352541879196,-11.944610805530505" fill="none" id="id132" stroke="none" /><text fill="#e1ed5e" style="font-size:6.75px; font-family:Arial;" text-anchor="middle"><textPath startOffset="22.20632615414155" xlink:href="#id132">December</textPath></text></svg>