<?xml version="1.0" encoding="utf-8" ?>
<svg baseProfile="full" height="200mm" version="1.1" viewBox="0,0,200,200" width="200mm" xmlns="http://www.w3.org/2000/svg" xmlns:ev="http://www.w3.org/2001/xml-events" xmlns:xlink="http://www.w3.org/1999/xlink"><defs /><rect fill="#1a1a1a" height="200" width="200" x="0" y="0" /><rect fill="#1a1a1a" height="200" width="180" x="10" y="0" /><text alignment-baseline="middle" fill="#e1ed5e" style="dominant-baseline: central; font-size:9.0px; font-family:Arial;" text-anchor="middle" x="100.0" y="100.0">2015</text><line stroke="#e1ed5e" stroke-width="0.3" x1="100.0" x2="100.0" y1="15.0" y2="10.0" /><path d="M 100.0 14.0 a86.0,86.0 0 0,1 42.46469731375804,11.215312516191453" fill="none" id="id1" stroke="none" /><text fill="#e1ed5e" style="font-size:6.75px; font-family:Arial;" text-anchor="middle"><textPath startOffset="22.20632615414155" xlink:href="#id1">January</textPath></text><line stroke="#e1ed5e" stroke-width="0.3" x1="143.23703022742887" x2="145.7803849466894" y1="26.81831364943548" y2="22.513508569990506" /><path d="M 143.74570117128098 25.957352633546492 a86.0,86.0 0 0,1 28.547481713284135,27.462654790039103" fill="none" id="id2" stroke="none" /><text fill="#e1ed5e" style="font-size:6.75px; font-family:Arial;" text-anchor="middle"><textPath startOffset="19.985693538727396" xlink:href="#id2">February</textPath></text><line stroke="#e1ed5e" stroke-width="0.3" x1="172.23445277983987" x2="176.4835382374775" y1="55.19839476539836" y2="52.563006222186495" /><path d="M 173.08426987136738 54.67131705675599 a86.0,86.0 0 0,1 12.851231095245387,41.99856678651699" fill="none" id="id3" stroke="none" /><text fill="#e1ed5e" style="font-size:6.75px; font-family:Arial;" text-anchor="middle"><textPath startOffset="22.20632615414155" xlink:href="#id3">March</textPath></text><line stroke="#e1ed5e" stroke-width="0.3" x1="184.98032266829074" x2="189.97916517819016" y1="98.17113171792111" y2="98.06355123074" /><path d="M 185.9800911702706 98.14961562048488 a86.0,86.0 0 0,1 -9.607161424134198,41.387399972396054" fill="none" id="id4" stroke="none" /><text fill="#e1ed5e" style="font-size:6.75px; font-family:Arial;" text-anchor="middle"><textPath startOffset="21.466115282336823" xlink:href="#id4">April</textPath></text><path d="M 120.32669344350535 105.2749913415812 l 18.702927116344465 4.853606853231896 a40.32244762459023,40.32244762459023 0 0,0 -0.18012982753670215,0.6703300982046918 l -18.616609212465985 -5.174827884612136" fill="#ff6909" stroke="none" /><path d="M 119.9155931802556 106.66101706037122 l 14.159968189606882 4.735976921781786 a35.9309804277659,35.9309804277659 0 0,0 -0.20122917864307552,0.5848661864273558 l -14.076348180020576 -4.979015811298442" fill="#ff1d02" stroke="none" /><path d="M 119.79798401119884 107.00284435728193 l 33.89638319711526 11.989659940623966 a56.95437023975641,56.95437023975641 0 0,0 -0.33488014068265926,0.921446321861223 l -33.68497879542738 -12.57135405949132" fill="#95ff23" stroke="none" /><path d="M 119.54520255179757 107.68017299344265 l 18.655674317518468 7.330638077971192 a41.04426199368586,41.04426199368586 0 0,0 -0.26404630928960116,0.6553412853765739 l -18.526725393971475 -7.650678731190578" fill="#ff760a" stroke="none" /><path d="M 119.41010516605496 108.01547362559984 l 12.339437970777094 5.095615853872849 a34.35016967550959,34.35016967550959 0 0,0 -0.23038989022253475,0.5445736444127046 l -12.24989709936225 -5.307264023951717" fill="#ff0000" stroke="none" /><path d="M 119.12269723197855 108.67885076344098 l 32.448430789214015 14.726745129682445 a56.633940040318834,56.633940040318834 0 0,0 -0.41052967726226436,0.8842444023883086 l -32.19012649511192 -15.283109599349585" fill="#9aff23" stroke="none" /><line stroke="#e1ed5e" stroke-width="0.3" x1="174.80103733775053" x2="179.2010983576182" y1="140.37084112569926" y2="142.7455964860345" /><path d="M 175.68104954172406 140.8457921977663 a86.0,86.0 0 0,1 -30.038265399797805,32.042727171017184" fill="none" id="id5" stroke="none" /><text fill="#e1ed5e" style="font-size:6.75px; font-family:Arial;" text-anchor="middle"><textPath startOffset="22.206326154141568" xlink:href="#id5">May</textPath></text><path d="M 114.55890576462653 115.13401014063108 l 10.0434266531602 10.440161044583148 a35.48680025313527,35.48680025313527 0 0,0 -0.443862418029993,0.41969962074261274 l -9.862228400739399 -10.611495302071681" fill="#ff1502" stroke="none" /><path d="M 114.29624159901734 115.38237550388516 l 13.251675089207847 14.258449737704991 a40.465617935030764,40.465617935030764 0 0,0 -0.5142996027600696,0.4698004931954381 l -13.004275936980914 -14.484442997487012" fill="#ff6c09" stroke="none" /><path d="M 114.0293411484842 115.62618273729858 l 11.262329147121543 12.544225094956774 a37.858162445861254,37.858162445861254 0 0,0 -0.4886544969454921,0.43118077867025795 l -11.044732297269462 -12.73622901539932" fill="#ff3f05" stroke="none" /><path d="M 112.92097659922987 116.55440617244103 l 22.088331364699314 28.299657249166085 a56.89937301537505,56.89937301537505 0 0,0 -0.7772759754687444,0.5959820732415141 l -21.597926660737077 -28.675678664234972" fill="#96ff23" stroke="none" /><path d="M 112.63410532772338 116.77436683061366 l 23.841074459260103 31.653917570091 a60.62786051386196,60.62786051386196 0 0,0 -0.8390174988902454,0.6206850876034913 l -23.29267198995129 -32.05961260643426" fill="#64ff29" stroke="none" /><line stroke="#e1ed5e" stroke-width="0.3" x1="143.8653032363475" x2="146.44561519142675" y1="172.8068346515853" y2="177.08958963109032" /><path d="M 144.38136562736335 173.6633856474863 a86.0,86.0 0 0,1 -40.68145358897372,12.25698825130547" fill="none" id="id6" stroke="none" /><text fill="#e1ed5e" style="font-size:6.75px; font-family:Arial;" text-anchor="middle"><textPath startOffset="21.466115282336833" xlink:href="#id6">June</textPath></text><path d="M 110.8373102113329 117.98757091392108 l 17.004318221552417 28.223458947700927 a53.95012098843309,53.95012098843309 0 0,0 -0.7995719530241142,0.4724012034418108 l -16.51597839749992 -28.511978723436485" fill="#bfff1e" stroke="none" /><path d="M 109.57404056367764 118.69057910512821 l 16.370883473982925 31.95947317709908 a56.90840781037838,56.90840781037838 0 0,0 -0.8757014097104593,0.4390948660918831 l -15.818328156589704 -32.23653588410027" fill="#96ff23" stroke="none" /><path d="M 107.59598834532513 119.57807347666477 l 13.723218243232308 35.37053545739855 a58.93944513951769,58.93944513951769 0 0,0 -0.9490086463589053,0.3588338666110269 l -13.112339376113127 -35.60151757411621" fill="#7bff26" stroke="none" /><path d="M 107.2578585660854 119.70592522655815 l 7.279547124685379 19.76481217098554 a42.0627540102156,42.0627540102156 0 0,0 -0.6815777340818833,0.24438952606750872 l -6.938249829973762 -19.887189238093008" fill="#ff870c" stroke="none" /><path d="M 104.83641907484287 120.43548508189849 l 4.829570694083367 20.406548387067012 a41.97026395071975,41.97026395071975 0 0,0 -0.7044605889186593,0.16033293651111893 l -4.477589955771846 -20.486658057155815" fill="#ff850c" stroke="none" /><line stroke="#e1ed5e" stroke-width="0.3" x1="102.19456741930631" x2="102.32365962044197" y1="184.97166512339345" y2="189.96999836594603" /><path d="M 102.22038585953345 185.97133177190398 a86.0,86.0 0 0,1 -42.740103519485714,-10.115201625700543" fill="none" id="id7" stroke="none" /><text fill="#e1ed5e" style="font-size:6.75px; font-family:Arial;" text-anchor="middle"><textPath startOffset="22.20632615414155" xlink:href="#id7">July</textPath></text><line stroke="#e1ed5e" stroke-width="0.3" x1="58.666819895761336" x2="56.23545636021788" y1="174.27360380694188" y2="178.64263932499728" /><path d="M 58.180547188652646 175.14741091055294 a86.0,86.0 0 0,1 -31.652253787137756,-30.449443065178592" fill="none" id="id8" stroke="none" /><text fill="#e1ed5e" style="font-size:6.75px; font-family:Arial;" text-anchor="middle"><textPath startOffset="22.20632615414155" xlink:href="#id8">August</textPath></text><line stroke="#e1ed5e" stroke-width="0.3" x1="26.63291911575756" x2="22.317208475507996" y1="142.92168965132927" y2="145.44649492493687" /><path d="M 25.769776987707644 143.4266507060508 a86.0,86.0 0 0,1 -11.730757126820373,-40.83630448921669" fill="none" id="id9" stroke="none" /><text fill="#e1ed5e" style="font-size:6.75px; font-family:Arial;" text-anchor="middle"><textPath startOffset="21.46611528233685" xlink:href="#id9">September</textPath></text><path d="M 80.87730276802145 108.67885076344099 l -37.450561500000056 16.99696597831561 a62.12713713757991,62.12713713757991 0 0,0 -0.43358503941117754,-0.9776198007647474 l 37.73758762414251 -16.349797841058166" fill="#51ff2b" stroke="none" /><path d="M 80.73074385275274 108.34839909993369 l -39.64369784899685 17.17561949000758 a64.20445213178945,64.20445213178945 0 0,0 -0.4306254326594316,-1.0178713181104955 l 39.93347426284859 -16.490673646230928" fill="#38ff2e" stroke="none" /><path d="M 80.45479744820244 107.68017299344265 l -41.30427927732521 16.230274891172776 a65.37865826793674,65.37865826793674 0 0,0 -0.4025635479307306,-1.0509663934916171 l 41.57753710484945 -15.516884930848" fill="#30ff37" stroke="none" /><path d="M 80.32549172779594 107.34259656027581 l -40.10820673784321 14.968525604687308 a63.810337612587816,63.810337612587816 0 0,0 -0.3751918377247812,-1.0323667989361969 l 40.35992283657322 -14.275911008744993" fill="#3cff2e" stroke="none" /><path d="M 79.97269907076064 106.31721596034903 l -40.87134177760688 12.892056373978123 a63.856407878539976,63.856407878539976 0 0,0 -0.3216332551180066,-1.0511160873012466 l 41.08720180523102 -12.186613314124829" fill="#3cff2e" stroke="none" /><path d="M 79.67330655649465 105.27499134158121 l -41.51788455527034 10.774328946245552 a63.89313350860089,63.89313350860089 0 0,0 -0.2670997245852585,-1.066930627387237 l 41.69719559415066 -10.058070479460923" fill="#3bff2e" stroke="none" /><path d="M 79.18660465613746 102.79330883721812 l -40.60816444160319 5.4499106332204255 a61.97224115454725,61.97224115454725 0 0,0 -0.13279320574023773,-1.0584925061502517 l 40.695959156590284 -4.750100372782764" fill="#53ff2b" stroke="none" /><path d="M 79.1416061653843 102.43462659150553 l -42.26140126062874 4.932821391676817 a63.5483109346782,63.5483109346782 0 0,0 -0.11746662733236886,-1.0875950803777554 l 42.340050189462154 -4.204629989414279" fill="#40ff2d" stroke="none" /><line stroke="#e1ed5e" stroke-width="0.3" x1="15.007084014347285" x2="10.007500721073583" y1="101.09737516637583" y2="101.16192664675087" /><path d="M 14.007167355692545 101.11028546245083 a86.0,86.0 0 0,1 10.666146001902534,-42.60595125391555" fill="none" id="id10" stroke="none" /><text fill="#e1ed5e" style="font-size:6.75px; font-family:Arial;" text-anchor="middle"><textPath startOffset="22.20632615414155" xlink:href="#id10">October</textPath></text><path d="M 79.21141760316559 97.0276538004421 l -42.70526649706308 -6.105988092433947 a64.13957437400285,64.13957437400285 0 0,0 0.1656759003381529,-1.091597181526764 l 42.59383470328562 6.840184386352802" fill="#38ff2e" stroke="none" /><path d="M 79.32604984820605 96.31383870115002 l -41.90942703186157 -7.472442704347932 a63.57038259293299,63.57038259293299 0 0,0 0.20134942756867008,-1.075616693302893 l 41.77459188038304 8.192737475113397" fill="#3fff2d" stroke="none" /><path d="M 79.3925641242962 95.95851677861259 l -41.63942779440542 -8.166229403516933 a63.432643680501066,63.432643680501066 0 0,0 0.21935824981196464,-1.0696687295799112 l 41.492690248678464 8.881773789260247" fill="#41ff2d" stroke="none" /><path d="M 79.54389044137918 95.25157060432595 l -40.38893293182068 -9.375389579517641 a62.46280059449479,62.46280059449479 0 0,0 0.2521331759172589,-1.0452547905152227 l 40.22156695564261 10.06922960169226" fill="#4dff2c" stroke="none" /><path d="M 79.62865764111835 94.90015583598534 l -37.32087068327086 -9.343057575537857 a59.472589117672364,59.472589117672364 0 0,0 0.25715853547879486,-0.990936738768443 l 37.15451581592176 9.984090739855164" fill="#73ff27" stroke="none" /><path d="M 79.91906864156998 93.8553929516997 l -42.94843872371593 -13.14188443677202 a65.91411265241976,65.91411265241976 0 0,0 0.34132372824930957,-1.0820894936701086 l 42.71585951169842 13.879224096868544" fill="#31ff3f" stroke="none" /><path d="M 80.02781315780177 93.51064311812611 l -39.0059947515548 -12.673815965937514 a62.01333000009598,62.01333000009598 0 0,0 0.33860077333500666,-1.0123732143517608 l 38.78205668444802 13.343362283211597" fill="#53ff2b" stroke="none" /><path d="M 80.2630227832202 92.82701384747504 l -39.440645108521245 -14.33386673667306 a62.964559120775036,62.964559120775036 0 0,0 0.3789729218992361,-1.0154590172073645 l 39.188067598120384 15.010648890909767" fill="#47ff2c" stroke="none" /><path d="M 80.38941819471856 92.48833698450439 l -39.18379343806744 -15.009011711028478 a62.95998213463546,62.95998213463546 0 0,0 0.39636741607296677,-1.0087118400449075 l 38.91963247211278 15.681272555969148" fill="#47ff2c" stroke="none" /><path d="M 80.803312248108 91.48605970444005 l -38.31860909390541 -16.994720873253605 a62.91821012938568,62.91821012938568 0 0,0 0.4476111816258666,-0.9862519056020782 l 38.02039559531619 17.651794787697753" fill="#47ff2c" stroke="none" /><path d="M 80.95270993114464 91.15688171328213 l -38.37428104305925 -17.816093796272053 a63.30837557422005,63.30837557422005 0 0,0 0.4674021378081818,-0.9844681046304398 l 38.061920711409314 18.474004316543024" fill="#43ff2d" stroke="none" /><line stroke="#e1ed5e" stroke-width="0.3" x1="26.266209847984243" x2="21.928928074336255" y1="57.711370442889674" y2="55.22380399835377" /><path d="M 25.398753493254645 57.213857153982495 a86.0,86.0 0 0,1 29.58750427330803,-30.492523968695096" fill="none" id="id11" stroke="none" /><text fill="#e1ed5e" style="font-size:6.75px; font-family:Arial;" text-anchor="middle"><textPath startOffset="21.46611528233685" xlink:href="#id11">November</textPath></text><path d="M 81.96595687620814 89.24020034530311 l -36.322662410548205 -21.671489181873103 a63.29644486184027,63.29644486184027 0 0,0 0.566304857818445,-0.9308562864170362 l 35.944241754443546 22.293513241497212" fill="#43ff2d" stroke="none" /><path d="M 82.15384107792192 88.93136811851018 l -38.6195046895597 -23.952777890225704 a66.44449043751519,66.44449043751519 0 0,0 0.6112019968584265,-0.9667747785530038 l 38.20147509645531 24.614000316492923" fill="#32ff47" stroke="none" /><path d="M 83.39014120810768 87.1503855733568 l -49.82957637567698 -38.54884327992962 a84.0,84.0 0 0,0 0.8945836776241158,-1.1360304241878092 l 49.15863861745889 39.40086609807048" fill="#4dd2ff" stroke="none" /><path d="M 83.6137871275137 86.86637796730984 l -16.352398386329398 -13.106519572599455 a41.95666453165104,41.95666453165104 0 0,0 0.45653148156796197,-0.5596536155123122 l 16.124368412685044 13.38605735771985" fill="#ff850c" stroke="none" /><path d="M 84.07557802195018 86.31012108654704 l -15.992674869767468 -13.748554438655423 a42.0900070801971,42.0900070801971 0 0,0 0.47703638795967057,-0.5453350555156958 l 15.753646618229954 14.021805050374063" fill="#ff870c" stroke="none" /><path d="M 86.10567301691215 84.25364557470407 l -14.254892075796084 -16.15498060417343 a42.54496104461119,42.54496104461119 0 0,0 0.5532996522673697,-0.4798160061409488 l 13.97469862488194 16.39796160373406" fill="#ff8f0d" stroke="none" /><path d="M 87.51073957382395 83.11751280151077 l -25.49478262403818 -34.462836596512126 a63.86806558879062,63.86806558879062 0 0,0 0.8894530912793182,-0.6462254974802608 l 24.897784216405082 34.896581328809056" fill="#3cff2e" stroke="none" /><path d="M 89.00827224532344 82.1063720568725 l -22.21615205865165 -36.16606671288106 a63.44457319580084,63.44457319580084 0 0,0 0.9354688835262329,-0.5636095352917835 l 21.59032110890777 36.54312285763146" fill="#41ff2d" stroke="none" /><line stroke="#e1ed5e" stroke-width="0.3" x1="56.762969772571076" x2="54.21961505331055" y1="26.818313649435495" y2="22.513508569990535" /><path d="M 56.25429882871897 25.957352633546506 a86.0,86.0 0 0,1 42.265352541879196,-11.944610805530505" fill="none" id="id12" stroke="none" /><text fill="#e1ed5e" style="font-size:6.75px; font-family:Arial;" text-anchor="middle"><textPath startOffset="22.20632615414155" xlink:href="#id12">December</textPath></text><path d="M 89.3179101791058 81.91981866633112 l -21.80838668135337 -36.912214033473745 a63.87326993006723,63.87326993006723 0 0,0 0.9514175020118877,-0.5511224269157854 l 21.169772446876163 37.282140617779575" fill="#3cff2e" stroke="none" /><path d="M 91.56875222667455 80.76684994638697 l -16.954193234433678 -38.67547856290794 a63.228394597716694,63.228394597716694 0 0,0 1.0005629758887993,-0.42838884902468344 l 16.285946500754573 38.96158693989541" fill="#43ff2d" stroke="none" /><path d="M 92.57280143429618 80.3572730644239 l -14.907338727109535 -39.42546861543389 a63.14968948250203,63.14968948250203 0 0,0 1.02007099021137,-0.37570075442805984 l 14.226485411125594 39.67623263766827" fill="#44ff2d" stroke="none" /><path d="M 93.59665428221793 80.00007090966166 l -12.834887695989957 -40.08792514347751 a63.092470638793955,63.092470638793955 0 0,0 1.0371639874443117,-0.322251899554537 l 12.142938335834916 40.30291717791457" fill="#45ff2d" stroke="none" /></svg>