<?xml version="1.0" encoding="utf-8" ?>
<svg baseProfile="full" height="200mm" version="1.1" viewBox="0,0,200,200" width="200mm" xmlns="http://www.w3.org/2000/svg" xmlns:ev="http://www.w3.org/2001/xml-events" xmlns:xlink="http://www.w3.org/1999/xlink"><defs /><rect fill="#1a1a1a" height="200" width="200" x="0" y="0" /><text alignment-baseline="middle" fill="#e1ed5e" style="dominant-baseline: central; font-size:9.0px; font-family:Arial;" text-anchor="middle" x="100.0" y="100.0">2025</text><line stroke="#e1ed5e" stroke-width="0.3" x1="100.0" x2="100.0" y1="15.0" y2="10.0" /><path d="M 100.0 14.0 a86.0,86.0 0 0,1 42.46469731375804,11.215312516191453" fill="none" id="id121" stroke="none" /><text fill="#e1ed5e" style="font-size:6.75px; font-family:Arial;" text-anchor="middle"><textPath startOffset="22.20632615414155" xlink:href="#id121">January</textPath></text><line stroke="#e1ed5e" stroke-width="0.3" x1="143.23703022742887" x2="145.7803849466894" y1="26.81831364943548" y2="22.513508569990506" /><path d="M 143.74570117128098 25.957352633546492 a86.0,86.0 0 0,1 28.547481713284135,27.462654790039103" fill="none" id="id122" stroke="none" /><text fill="#e1ed5e" style="font-size:6.75px; font-family:Arial;" text-anchor="middle"><textPath startOffset="19.985693538727396" xlink:href="#id122">February</textPath></text><line stroke="#e1ed5e" stroke-width="0.3" x1="172.23445277983987" x2="176.4835382374775" y1="55.19839476539836" y2="52.563006222186495" /><path d="M 173.08426987136738 54.67131705675599 a86.0,86.0 0 0,1 12.851231095245387,41.99856678651699" fill="none" id="id123" stroke="none" /><text fill="#e1ed5e" style="font-size:6.75px; font-family:Arial;" text-anchor="middle"><textPath startOffset="22.20632615414155" xlink:href="#id123">March</textPath></text><path d="M 120.96714384426684 98.82574320788733 l 18.65312568054645 -1.0446610986790226 a39.68235569903739,39.68235569903739 0 0,0 0.0323248534669275,0.6823265669503766 l -18.668344142246873 0.7234234251056462" fill="red" stroke="none" /><path d="M 120.98425023603335 99.18683210126433 l 62.35090625422715 -2.4161814147617915 a83.39770383076979,83.39770383076979 0 0,0 0.043240937190811506,1.4349561919174112 l -62.38325888587361 1.3425550754193813" fill="red" stroke="none" /><line stroke="#e1ed5e" stroke-width="0.3" x1="184.98032266829074" x2="189.97916517819016" y1="98.17113171792111" y2="98.06355123074" /><path d="M 185.9800911702706 98.14961562048488 a86.0,86.0 0 0,1 -9.607161424134198,41.387399972396054" fill="none" id="id124" stroke="none" /><text fill="#e1ed5e" style="font-size:6.75px; font-family:Arial;" text-anchor="middle"><textPath startOffset="21.466115282336823" xlink:href="#id124">April</textPath></text><path d="M 120.99513854157772 99.54816195383933 l 14.632930229930109 -0.31491645514048316 a35.63631850868656,35.63631850868656 0 0,0 0.007919735468136272,0.6133922398618588 l -14.636182972515961 0.0629879572181617" fill="red" stroke="none" /><path d="M 120.9904718944345 100.63252640178507 l 17.11808045924653 0.5158358465121223 a38.12585078849471,38.12585078849471 0 0,0 -0.02541336163200947,0.6558059419882515 l -17.10666496476332 -0.81041903551438" fill="red" stroke="none" /><path d="M 120.95626037817324 101.35467743843564 l 16.33120419208908 1.055699512330508 a37.365290459507364,37.365290459507364 0 0,0 -0.047015217164132185,0.6414852844406355 l -16.310612416260607 -1.3366579332679136" fill="red" stroke="none" /><path d="M 120.89721153311464 102.0752229133903 l 46.060572274872314 4.574100943430431 a67.28713339287093,67.28713339287093 0 0,0 -0.12437769794776035,1.151583011010785 l -45.975012275423495 -5.366280276326007" fill="red" stroke="none" /><path d="M 120.8583938346157 102.4346265915055 l 15.389407959004153 1.7962774191337123 a36.49388556480104,36.49388556480104 0 0,0 -0.07819856057782297,0.623319468055317 l -15.356207889179482 -2.0609146414764243" fill="red" stroke="none" /><path d="M 120.81339534386255 102.79330883721812 l 15.066537371585465 2.022038753938185 a36.20161797611719,36.20161797611719 0 0,0 -0.08820429230869048,0.6169006149709022 l -15.029499028260174 -2.2810848408894966" fill="red" stroke="none" /><path d="M 120.64145759157962 103.86396538481128 l 16.208906706019015 3.0342166564459165 a37.490455643270806,37.490455643270806 0 0,0 -0.12420064342263054,0.6332964050199246 l -16.15427612962072 -3.3127767885337858" fill="red" stroke="none" /><path d="M 120.5718875245553 104.21870165774334 l 23.983687057714196 4.918363481639904 a45.48280098803845,45.48280098803845 0 0,0 -0.16388094563165614,0.7655972192150574 l -23.895472073358096 -5.330474520271131" fill="red" stroke="none" /><path d="M 120.49622156327973 104.57218783832717 l 22.250134877955944 4.963441470226306 a43.797022904660025,43.797022904660025 0 0,0 -0.17047351743588218,0.7343954514073138 l -22.161400794589508 -5.3457055789821855" fill="red" stroke="none" /><path d="M 120.41448212921028 104.9243191809786 l 16.292093957877345 3.929929266257832 a37.75937557220117,37.75937557220117 0 0,0 -0.157849807358225,0.6305315149956654 l -16.22203283622406 -4.209788620650893" fill="red" stroke="none" /><path d="M 120.23288151984713 105.62410040840565 l 19.701739002443087 5.476459606667981 a41.44871950866003,41.44871950866003 0 0,0 -0.196994638028907,0.6857641782472058 l -19.604551727528083 -5.814781260419769" fill="red" stroke="none" /><path d="M 120.13307415673323 105.97154293290107 l 16.215035661020305 4.80943848189829 a37.91325160929513,37.91325160929513 0 0,0 -0.190962237500105,0.6240756411514591 l -16.129846651014066 -5.0878410956018065" fill="red" stroke="none" /><path d="M 120.02730092923936 106.31721596034902 l 16.208104098256914 5.112525859489132 a37.99530991549956,37.99530991549956 0 0,0 -0.2021128829809775,0.6220394926015873 l -16.11769896425969 -5.390764252068514" fill="red" stroke="none" /><path d="M 119.79798401119884 107.00284435728193 l 19.227269459986264 6.800974047036348 a41.39463505129186,41.39463505129186 0 0,0 -0.24339205492272412,0.6697104024192205 l -19.10735314405831 -7.1309322464616995" fill="red" stroke="none" /><path d="M 119.67450827220406 107.3425965602758 l 44.2217411212061 16.503711287397746 a68.20100501100322,68.20100501100322 0 0,0 -0.41994190882831556,1.0963358100004452 l -43.93110493278428 -17.262470664231333" fill="red" stroke="none" /><path d="M 119.41010516605496 108.01547362559984 l 18.8129042491396 7.768857331779309 a41.35388195231651,41.35388195231651 0 0,0 -0.2773644617558507,0.6556076554533551 l -18.67638880619144 -8.091539512898827" fill="red" stroke="none" /><path d="M 119.26925614724726 108.34839909993367 l 21.704353759319126 9.40340436622546 a44.65381545933802,44.65381545933802 0 0,0 -0.31163879792049987,0.7026632190707994 l -21.53927387666735 -9.775615921788948" fill="red" stroke="none" /><path d="M 119.12269723197855 108.67885076344098 l 14.374857059325443 6.5240398700164715 a36.786057509764845,36.786057509764845 0 0,0 -0.26665579520837873,0.5743528600656554 l -14.260426647277232 -6.770512797360958" fill="red" stroke="none" /><path d="M 118.97047184881838 109.00673069616215 l 18.29768094273158 8.68730550978609 a41.25523154403233,41.25523154403233 0 0,0 -0.31009542603959117,0.6388884248728122 l -18.145432260077275 -9.000982890624178" fill="red" stroke="none" /><path d="M 118.81262510543309 109.33194174019688 l 20.35054929019227 10.094824049953193 a43.71674116179648,43.71674116179648 0 0,0 -0.3402022853938165,0.6712513840811779 l -20.173768335012184 -10.443629645737065" fill="red" stroke="none" /><line stroke="#e1ed5e" stroke-width="0.3" x1="174.80103733775053" x2="179.2010983576182" y1="140.37084112569926" y2="142.7455964860345" /><path d="M 175.68104954172406 140.8457921977663 a86.0,86.0 0 0,1 -30.038265399797805,32.042727171017184" fill="none" id="id125" stroke="none" /><text fill="#e1ed5e" style="font-size:6.75px; font-family:Arial;" text-anchor="middle"><textPath startOffset="22.206326154141568" xlink:href="#id125">May</textPath></text><path d="M 118.48025628344425 109.97397251340804 l 15.096051167754876 8.147484380023254 a38.154365700374825,38.154365700374825 0 0,0 -0.31690578383616885,0.5752760491700118 l -14.953568974467197 -8.40613094759107" fill="red" stroke="none" /><path d="M 117.55443506779139 111.5257021239791 l 15.075212106046653 9.897920583550745 a39.03415792102789,39.03415792102789 0 0,0 -0.37360688214448146,0.558491597158566 l -14.90260211849145 -10.155949094915117" fill="red" stroke="none" /><path d="M 117.35343817320211 111.8261652097733 l 16.710511856651596 11.388018442467047 a41.22197246950117,41.22197246950117 0 0,0 -0.4046409528500175,0.5829154721287855 l -16.512009996639442 -11.673975176782852" fill="red" stroke="none" /><path d="M 116.93607887273984 112.41649034213515 l 16.452006402304093 12.061598209238111 a41.399771224760116,41.399771224760116 0 0,0 -0.42629686136929074,0.5710943102416133 l -16.24194827423971 -12.343005398989039" fill="red" stroke="none" /><path d="M 116.71984013943494 112.70617746262583 l 11.763841026058389 8.93988521855974 a35.77530045066419,35.77530045066419 0 0,0 -0.37682155103153725,0.48709265076452196 l -11.608212657808783 -9.141055863437515" fill="red" stroke="none" /><path d="M 116.27256486870786 113.27417163493432 l 17.280051211404277 14.096017898305004 a43.300176915398886,43.300176915398886 0 0,0 -0.47610400262299307,0.5734979416190658 l -17.03485120888774 -14.39137709703784" fill="red" stroke="none" /><path d="M 116.0416608686014 113.55231037782055 l 16.873296753439188 14.254892717951885 a43.08868737000773,43.08868737000773 0 0,0 -0.4835319967383478,0.5624569511994548 l -16.625422247130064 -14.543226768312866" fill="red" stroke="none" /><path d="M 115.80600337817218 113.82643327865902 l 12.915459850730784 11.29790622061598 a38.15959755139007,38.15959755139007 0 0,0 -0.4367295986884544,0.4906703338651668 l -12.719071402393991 -11.518550724222013" fill="red" stroke="none" /><path d="M 115.32070863581623 114.36230785411682 l 12.406315913832309 11.630227604050724 a38.00526002964472,38.00526002964472 0 0,0 -0.4515268281207266,0.473424074104112 l -12.204282534332618 -11.842058794737342" fill="red" stroke="none" /><path d="M 115.07121518719521 114.62390073753431 l 12.387467909620725 12.019807218570962 a38.26050772090711,38.26050772090711 0 0,0 -0.46269593456473446,0.46870853887283465 l -12.178731350000454 -12.23125625142446" fill="red" stroke="none" /><path d="M 114.81725581225074 114.88116024355365 l 14.950933060975151 15.01541402066268 a42.1894562838614,42.1894562838614 0 0,0 -0.5190308590559495,0.5079809371012858 l -14.690252249543407 -15.270545060686539" fill="red" stroke="none" /><path d="M 114.29624159901734 115.38237550388516 l 14.312011373030433 15.399343361052422 a42.02316449760458,42.02316449760458 0 0,0 -0.5340953112970833,0.487883403592281 l -14.044816512266486 -15.643419531231286" fill="red" stroke="none" /><path d="M 114.0293411484842 115.62618273729858 l 11.324994699838133 12.614023339059566 a37.951964185595166,37.951964185595166 0 0,0 -0.489865243558137,0.4322491217848222 l -11.106187103373406 -12.807095602616677" fill="red" stroke="none" /><path d="M 113.20401910651253 116.32954008644616 l 16.625502994996367 20.560922808739367 a47.44161297242609,47.44161297242609 0 0,0 -0.6394282421546915,0.5080004677330046 l -16.26911726012432 -20.844057190477496" fill="red" stroke="none" /><path d="M 112.92097659922987 116.55440617244103 l 10.090434914005295 12.927905003169792 a37.399622084815235,37.399622084815235 0 0,0 -0.5108989114920838,0.3917354994849302 l -9.866407274019718 -13.099679844482093" fill="red" stroke="none" /><path d="M 112.63410532772338 116.77436683061366 l 36.33844131395072 48.246736024542535 a81.4005782600575,81.4005782600575 0 0,0 -1.12648721233298,0.8333483091782002 l -35.502569131199174 -48.865094282460504" fill="red" stroke="none" /><path d="M 112.34349029814194 116.9893568818739 l 5.31186060832876 7.3111489053667125 a30.037077040656435,30.037077040656435 0 0,0 -0.42090909163632795,0.3003074610530036 l -5.185224188843548 -7.4015006282639355" fill="red" stroke="none" /><path d="M 111.1453310114006 117.79835938074945 l 11.233689170582247 17.939461540005894 a42.16648418435635,42.16648418435635 0 0,0 -0.6184835330717664,0.3799231009990005 l -10.92322643757817 -18.130173107833272" fill="red" stroke="none" /><line stroke="#e1ed5e" stroke-width="0.3" x1="143.8653032363475" x2="146.44561519142675" y1="172.8068346515853" y2="177.08958963109032" /><path d="M 144.38136562736335 173.6633856474863 a86.0,86.0 0 0,1 -40.68145358897372,12.25698825130547" fill="none" id="id126" stroke="none" /><text fill="#e1ed5e" style="font-size:6.75px; font-family:Arial;" text-anchor="middle"><textPath startOffset="21.466115282336833" xlink:href="#id126">June</textPath></text><path d="M 110.5260780823613 118.17145234162733 l 15.233941042615264 26.298763078237084 a51.392398706504295,51.392398706504295 0 0,0 -0.7692982811555713,0.4368276414919642 l -14.778993994538492 -26.557093885523678" fill="red" stroke="none" /><path d="M 109.89434966115114 118.52300852407294 l 15.25252227001084 28.553933274696234 a53.37231133319,53.37231133319 0 0,0 -0.8140779463432847,0.4258871058269584 l -14.75875342114106 -28.81224979946791" fill="red" stroke="none" /><path d="M 108.2653958097858 119.30500536409082 l 8.993405855927909 21.0053761835071 a43.849664713078084,43.849664713078084 0 0,0 -0.6964340320608864,0.2911094818839229 l -8.630500364369562 -21.157070708411" fill="red" stroke="none" /><path d="M 107.2578585660854 119.70592522655815 l 9.880228511188434 26.82596284978312 a49.587605675383955,49.587605675383955 0 0,0 -0.8035091545971004,0.28810979535211545 l -9.4169997959616 -26.992060186175195" fill="red" stroke="none" /><path d="M 106.2309692047433 120.05430185196036 l 6.005396290449708 19.328298053157027 a41.23976013289241,41.23976013289241 0 0,0 -0.679719668098834,0.20479396017271895 l -5.671801647910628 -19.428807382435473" fill="red" stroke="none" /><path d="M 105.88484417918355 120.15858648285463 l 6.307628804819142 21.606839007474374 a43.508702162370454,43.508702162370454 0 0,0 -0.720729590405163,0.20368538142179168 l -5.934768046309373 -21.712213182234684" fill="red" stroke="none" /><path d="M 105.53697534728816 120.25689768951611 l 5.031654356423964 18.40819240002728 a40.083476963041676,40.083476963041676 0 0,0 -0.6671218230442019,0.17619293684186918 l -4.714042090568264 -18.492076686172734" fill="red" stroke="none" /><path d="M 105.18746579009965 120.34920634021253 l 7.030020394560843 27.577114023160178 a49.45906542025439,49.45906542025439 0 0,0 -0.8267829740690922,0.20320313949636296 l -6.5542841357485395 -27.69403842097057" fill="red" stroke="none" /><path d="M 103.06178313531738 120.77559828337769 l 4.457165629394816 30.243906412132702 a51.570577366377954,51.570577366377954 0 0,0 -0.8793309186136908,0.12186725283827911 l -3.935906119594295 -30.316148230463583" fill="red" stroke="none" /><path d="M 102.70371172650421 120.8252237178851 l 4.1962080393850005 32.32111261357308 a53.59236847007397,53.59236847007397 0 0,0 -0.9158491132207334,0.11089657315348754 l -3.6392315031128866 -32.38855471545192" fill="red" stroke="none" /><path d="M 101.62511606390274 120.93702456842531 l 3.6600666771666455 47.15411264711948 a68.29594514985972,68.29594514985972 0 0,0 -1.1728600528018578,0.08088729612866649 l -2.8478438635858576 -47.210128287764434" fill="red" stroke="none" /><line stroke="#e1ed5e" stroke-width="0.3" x1="102.19456741930631" x2="102.32365962044197" y1="184.97166512339345" y2="189.96999836594603" /><path d="M 102.22038585953345 185.97133177190398 a86.0,86.0 0 0,1 -42.740103519485714,-10.115201625700543" fill="none" id="id127" stroke="none" /><text fill="#e1ed5e" style="font-size:6.75px; font-family:Arial;" text-anchor="middle"><textPath startOffset="22.20632615414155" xlink:href="#id127">July</textPath></text><path d="M 100.54218724476979 120.99299961872073 l 0.9691318580962979 37.5239088041326 a58.536421626191775,58.536421626191775 0 0,0 -1.0074963040544902,0.017344962550746103 l -0.32307586414913975 -37.535031243962514" fill="red" stroke="none" /><path d="M 100.18074693466247 120.99922214144158 l 0.3196350938923249 37.13528173177603 a58.13665730638161,58.13665730638161 0 0,0 -1.000764057109535,0.0 l 0.3196350938922993 -37.13528173177603" fill="red" stroke="none" /><path d="M 99.09653310690486 120.98055641714683 l -1.2076750764582698 28.044962431785226 a49.07095290314426,49.07095290314426 0 0,0 -0.8435809282073725,-0.04360349826359818 l 1.6902440730791313 -28.020019126759426" fill="red" stroke="none" /><path d="M 98.73552117531835 120.96189622390904 l -2.220398289431691 36.80865002269242 a57.875559454152906,57.875559454152906 0 0,0 -0.9939086657105046,-0.06854576074623554 l 2.8536697159211255 -36.7649759174299" fill="red" stroke="none" /><path d="M 98.37488393609728 120.93702456842531 l -1.437739492550555 18.522976756648607 a39.578691094255916,39.578691094255916 0 0,0 -0.6787852616165956,-0.05856844855170514 l 1.7563690719086924 -18.49548405581824" fill="red" stroke="none" /><path d="M 98.01472825383883 120.90594882070398 l -1.9217265898584643 20.23678512155955 a41.327825883314304,41.327825883314304 0 0,0 -0.7076256686094988,-0.07334829385816581 l 2.2697848550735564 -20.20070745924562" fill="red" stroke="none" /><path d="M 97.65516085044442 120.86867818915974 l -2.7464185927475477 24.44266840036182 a45.59648051280174,45.59648051280174 0 0,0 -0.7792060219722032,-0.09435099774613076 l 3.1667520377711407 -24.39177187389034" fill="red" stroke="none" /><path d="M 96.93821686468263 120.77559828337769 l -3.777569455725174 25.632535692822387 a46.90939823764036,46.90939823764036 0 0,0 -0.7978264147709985,-0.12460407785829872 l 4.218231734104689 -25.563713307616982" fill="red" stroke="none" /><path d="M 96.58105272829116 120.7198165907248 l -4.196973265221465 25.43488079244342 a46.778823586711454,46.778823586711454 0 0,0 -0.7933488635111816,-0.13793386912401226 l 4.634171100204696 -25.3588683447984" fill="red" stroke="none" /><path d="M 96.22490169976321 120.6578951692458 l -5.006358061330132 27.395530337363503 a48.849213696326316,48.849213696326316 0 0,0 -0.8258596602335123,-0.15827796944630598 l 5.4771853361353395 -27.30529516956873" fill="red" stroke="none" /><path d="M 95.86986931433489 120.58985236759428 l -5.493678784675338 27.387519606594356 a48.933076035245065,48.933076035245065 0 0,0 -0.8244257199902264,-0.17276642536508743 l 5.964295966094951 -27.288897200502728" fill="red" stroke="none" /><path d="M 95.16358092515715 120.4354850818985 l -6.371755860563738 26.92279552682901 a48.66651752075191,48.66651752075191 0 0,0 -0.8135343389831882,-0.1999469473299376 l 6.834243484290136 -26.80912732118504" fill="red" stroke="none" /><path d="M 94.81253420990036 120.34920634021253 l -6.38856315043822 25.060828355505837 a46.86230571683937,46.86230571683937 0 0,0 -0.7799439866631022,-0.2059902956783093 l 6.818997579912811 -24.947146710523946" fill="red" stroke="none" /><path d="M 94.46302465271185 120.25689768951611 l -11.392248337943961 41.678280028520625 a64.20720250524406,64.20720250524406 0 0,0 -1.0636040254652266,-0.3005851216499265 l 12.107983531513803 -41.47600611353218" fill="red" stroke="none" /><path d="M 94.11515582081647 120.15858648285463 l -7.176724361214746 24.583933625788713 a46.61005984128187,46.61005984128187 0 0,0 -0.7682337216145408,-0.2314625184051487 l 7.598833057269533 -24.456755738277838" fill="red" stroke="none" /><path d="M 93.42475214034765 119.94407469862007 l -9.198607120157064 27.901261130157717 a50.37847418781742,50.37847418781742 0 0,0 -0.821241739187172,-0.27860978651443435 l 9.67751859228146 -27.73878835674516" fill="red" stroke="none" /><path d="M 93.08242187328487 119.8279376855182 l -8.543965170264345 24.48967050028602 a46.93729558075147,46.93729558075147 0 0,0 -0.7605639791938333,-0.2727111833686576 l 8.964248710087904 -24.338971775877404" fill="red" stroke="none" /><path d="M 92.7421414339146 119.70592522655815 l -8.22020563082279 22.318808782642808 a44.7844698509171,44.7844698509171 0 0,0 -0.7210934716218268,-0.27265584945173704 l 8.603169323204899 -22.174004683084437" fill="red" stroke="none" /><path d="M 91.7346041902142 119.30500536409082 l -13.933827035584134 32.54443124741737 a56.40185787604164,56.40185787604164 0 0,0 -0.8892137644595102,-0.38980518275533915 l 14.491961474701387 -32.29976151136758" fill="red" stroke="none" /><path d="M 91.40352486487194 119.15986991738527 l -11.29592428675775 25.17641667414508 a48.594380986757685,48.594380986757685 0 0,0 -0.7602290180962432,-0.34898385532928955 l 11.727621300621411 -24.97824574848172" fill="red" stroke="none" /><line stroke="#e1ed5e" stroke-width="0.3" x1="58.666819895761336" x2="56.23545636021788" y1="174.27360380694188" y2="178.64263932499728" /><path d="M 58.180547188652646 175.14741091055294 a86.0,86.0 0 0,1 -31.652253787137756,-30.449443065178592" fill="none" id="id128" stroke="none" /><text fill="#e1ed5e" style="font-size:6.75px; font-family:Arial;" text-anchor="middle"><textPath startOffset="22.20632615414155" xlink:href="#id128">August</textPath></text><path d="M 87.65650970185807 116.9893568818739 l -13.992110126596286 19.258487407488758 a44.80479957947979,44.80479957947979 0 0,0 -0.6200451502467056,-0.45869457896651616 l 14.321540247261554 -19.014782879782473" fill="red" stroke="none" /><path d="M 87.36589467227662 116.77436683061367 l -16.80493274766326 22.311995915890634 a48.93261402740899,48.93261402740899 0 0,0 -0.6684457716276315,-0.5125357136941098 l 17.186507247784377 -22.01942086036916" fill="red" stroke="none" /><path d="M 87.07902340077011 116.55440617244103 l -18.261614511077948 23.396852525756128 a50.67994731570785,50.67994731570785 0 0,0 -0.6830752074852451,-0.5426762567290195 l 18.66164721128055 -23.079042355021976" fill="red" stroke="none" /><path d="M 86.79598089348748 116.32954008644616 l -17.535008335166857 21.685716993854243 a48.88811285927949,48.88811285927949 0 0,0 -0.6498158408620681,-0.5347541977922633 l 17.905694304573615 -21.3806676772048" fill="red" stroke="none" /><path d="M 86.24171649860922 115.8653595955263 l -14.440430474355766 16.651977128301752 a43.04119721263315,43.04119721263315 0 0,0 -0.555554554501899,-0.4902123011274722 l 14.724927381764253 -16.40094168540199" fill="red" stroke="none" /><path d="M 85.97065885151581 115.62618273729859 l -22.495288429199853 25.05573740081836 a54.67236223094039,54.67236223094039 0 0,0 -0.6948608624356815,-0.6347389228429595 l 22.92324884110239 -24.664805711388823" fill="red" stroke="none" /><path d="M 85.70375840098266 115.38237550388516 l -19.76020905946717 21.26145908228707 a50.02611762502205,50.02611762502205 0 0,0 -0.6257175449830126,-0.5916549941013999 l 20.123262438841 -20.91816945143974" fill="red" stroke="none" /><path d="M 85.44109423537348 115.13401014063109 l -25.1948327238161 26.19007637649328 a57.34143223082472,57.34143223082472 0 0,0 -0.7054362736987493,-0.6904178684684037 l 25.64191894989064 -25.752508405102308" fill="red" stroke="none" /><path d="M 84.9287848128048 114.62390073753433 l -20.73806580609749 20.122558935691526 a49.896102704316526,49.896102704316526 0 0,0 -0.5927976541166502,-0.6215459703675178 l 21.081370011593098 -19.762605848741508" fill="red" stroke="none" /><path d="M 84.67929136418377 114.36230785411682 l -21.472256441709852 20.12904002478277 a50.431888301939736,50.431888301939736 0 0,0 -0.5882605805294435,-0.6384406772890214 l 21.815563430235027 -19.756448092692406" fill="red" stroke="none" /><path d="M 84.43433777217949 114.09645910891817 l -21.803917478916574 19.745901372987053 a50.41617647586334,50.41617647586334 0 0,0 -0.5770038976448276,-0.648269995780291 l 22.140580226209742 -19.3676572074659" fill="red" stroke="none" /><path d="M 83.95833913139862 113.55231037782056 l -23.832498440798894 20.134163076643517 a52.198918326242605,52.198918326242605 0 0,0 -0.5739494782266671,-0.6913591201563131 l 24.175543918919097 -19.720942699373442" fill="red" stroke="none" /><path d="M 83.72743513129214 113.27417163493432 l -24.22049658984445 19.75761236233846 a52.25693045260677,52.25693045260677 0 0,0 -0.5625883783966313,-0.7019155039674766 l 24.557002880295943 -19.337769024792724" fill="red" stroke="none" /><path d="M 83.50135304334701 112.99209946851258 l -24.493324863713937 19.2876248446327 a52.17587905780236,52.17587905780236 0 0,0 -0.5495689882495445,-0.7103919999576754 l 24.82170066918155 -18.86315485056177" fill="red" stroke="none" /><path d="M 83.28015986056508 112.70617746262583 l -38.288153678044 29.096933421156454 a69.08964801897312,69.08964801897312 0 0,0 -0.7114218081954845,-0.9530657709681793 l 38.78333675293457 -28.433554770678967" fill="red" stroke="none" /><path d="M 82.85270091963577 112.12312394758628 l -23.51621986552227 16.625944813366004 a49.79990690437516,49.79990690437516 0 0,0 -0.4888432206037182,-0.7042151189298822 l 23.798923993288124 -16.21868843224911" fill="red" stroke="none" /><path d="M 82.6465618267979 111.8261652097733 l -23.897990407708303 16.28620103534134 a49.919790623212876,49.919790623212876 0 0,0 -0.47779632827677754,-0.7142406825166604 l 24.17478984139581 -15.872423438618856" fill="red" stroke="none" /><path d="M 82.44556493220864 111.52570212397912 l -24.042560300873674 15.785605589444943 a49.761607215986075,49.761607215986075 0 0,0 -0.4639562230205611,-0.7200703612443411 l 24.310721387271283 -15.369413628279153" fill="red" stroke="none" /><path d="M 82.24976979558568 111.22182372390057 l -26.977323834462418 17.055258953071558 a52.9164198998851,52.9164198998851 0 0,0 -0.48011662538601696,-0.7741008725838496 l 27.26690509951639 -16.588361749122445" fill="red" stroke="none" /><path d="M 82.05923443525364 110.91462005526583 l -24.480753403979804 14.893351184307315 a49.655177485501234,49.655177485501234 0 0,0 -0.4379565948054005,-0.73404044411012 l 24.733490874483437 -14.469748646311084" fill="red" stroke="none" /><line stroke="#e1ed5e" stroke-width="0.3" x1="26.63291911575756" x2="22.317208475507996" y1="142.92168965132927" y2="145.44649492493687" /><path d="M 25.769776987707644 143.4266507060508 a86.0,86.0 0 0,1 -11.730757126820373,-40.83630448921669" fill="none" id="id129" stroke="none" /><text fill="#e1ed5e" style="font-size:6.75px; font-family:Arial;" text-anchor="middle"><textPath startOffset="21.46611528233685" xlink:href="#id129">September</textPath></text><path d="M 81.69416730710424 110.29060199501025 l -26.68957478941595 15.003512606150256 a51.61762226174229,51.61762226174229 0 0,0 -0.42873004811754384,-0.7782695703939274 l 26.943881246985008 -14.541872517358506" fill="red" stroke="none" /><path d="M 81.51974371655577 109.97397251340807 l -25.15827305516099 13.578162558372494 a49.58855018323994,49.58855018323994 0 0,0 -0.3989457702010835,-0.7546550505815053 l 25.38827133358696 -13.143092492704863" fill="red" stroke="none" /><path d="M 81.35079622478065 109.6543875284942 l -31.49566475854014 16.30479009782323 a56.46580153776905,56.46580153776905 0 0,0 -0.4394150666136612,-0.8670076137469374 l 31.77165849494007 -15.760228272373608" fill="red" stroke="none" /><path d="M 81.18737489456691 109.33194174019688 l -25.765168315192145 12.780728276688029 a49.76092685559202,49.76092685559202 0 0,0 -0.37402858342801776,-0.7706096654686753 l 25.981350155234882 -12.335329655254068" fill="red" stroke="none" /><path d="M 80.87730276802145 108.67885076344099 l -26.1221329155622 11.855550001482579 a49.686580379960795,49.686580379960795 0 0,0 -0.34676244399519646,-0.7818577685974964 l 26.322336444288677 -11.404143896392386" fill="red" stroke="none" /><path d="M 80.73074385275274 108.34839909993369 l -26.40154533578645 11.438461123452614 a49.772903728861365,49.772903728861365 0 0,0 -0.33383165016285277,-0.7890794087097039 l 26.594527967141612 -10.982307189076751" fill="red" stroke="none" /><path d="M 80.45479744820244 107.68017299344265 l -26.830702044279523 10.542967395169333 a49.827777120071346,49.827777120071346 0 0,0 -0.3068103150840424,-0.8009849177536225 l 27.008206638957073 -10.079558910582552" fill="red" stroke="none" /><path d="M 80.32549172779594 107.34259656027581 l -27.074085370098086 10.104145087679274 a49.8980941686512,49.8980941686512 0 0,0 -0.29339066913833856,-0.8072851151902602 l 27.244000300241648 -9.636612175482897" fill="red" stroke="none" /><path d="M 80.20201598880116 107.00284435728193 l -26.604185031315428 9.410299903325875 a49.21943311710926,49.21943311710926 0 0,0 -0.27565031573088394,-0.8011688465666 l 26.76222617798954 -8.950958353669977" fill="red" stroke="none" /><path d="M 79.97269907076064 106.31721596034903 l -26.456452852246823 8.345164772973874 a48.741407185131095,48.741407185131095 0 0,0 -0.24550171193162873,-0.8023137992265541 l 26.596181336684584 -7.888524001195273" fill="red" stroke="none" /><path d="M 79.86692584326677 105.97154293290107 l -27.68926995885659 8.21273805742686 a49.88156396828858,49.88156396828858 0 0,0 -0.23707368417485744,-0.8252845957581508 l 27.826536279917548 -7.734895986164112" fill="red" stroke="none" /><path d="M 79.76711848015287 105.62410040840567 l -27.108070346502796 7.535185206185502 a49.13585779752345,49.13585779752345 0 0,0 -0.21950139717060355,-0.816846355395849 l 27.233759820015173 -7.067447917614114" fill="red" stroke="none" /><path d="M 79.58551787078972 104.9243191809786 l -27.142009056920482 6.547112729254368 a48.920482458860164,48.920482458860164 0 0,0 -0.1904158357424492,-0.8203064367330454 l 27.250685458593487 -6.078937635172749" fill="red" stroke="none" /><path d="M 79.50377843672027 104.57218783832718 l -27.297478092658185 6.089375886522315 a48.96842521320271,48.96842521320271 0 0,0 -0.17644014123368168,-0.8242695998962024 l 27.398252272616308 -5.6185924672099485" fill="red" stroke="none" /><path d="M 79.4281124754447 104.21870165774334 l -27.188248165846424 5.575526673062206 a48.75405080361567,48.75405080361567 0 0,0 -0.16151536105310976,-0.8235633463054383 l 27.280193459875203 -5.106699599688813" fill="red" stroke="none" /><path d="M 79.35854240842038 103.8639653848113 l -24.64386999275394 4.613194595261327 a46.071934360824784,46.071934360824784 0 0,0 -0.13921086397665278,-0.7807684550698906 l 24.719627299069785 -4.188307389458224" fill="red" stroke="none" /><path d="M 79.23777060512086 103.15116336523772 l -30.271707879562438 4.594453469278343 a51.61838174409168,51.61838174409168 0 0,0 -0.12576683271066247,-0.8796129350555921 l 30.346308763289702 -4.07269506224235" fill="red" stroke="none" /><path d="M 79.18660465613746 102.79330883721812 l -27.81799542522933 3.733377047387891 a49.067400550390175,49.067400550390175 0 0,0 -0.10514090333085388,-0.8380764486044376 l 27.87813783780703 -3.2539828444960444" fill="red" stroke="none" /><path d="M 79.1416061653843 102.43462659150553 l -28.554187082804297 3.3328924423341135 a49.74803944605537,49.74803944605537 0 0,0 -0.09195735219670263,-0.8514108740920594 l 28.607326736502053 -2.840885246357272" fill="red" stroke="none" /><path d="M 79.10278846688536 102.07522291339032 l -28.199109484413942 2.8003467374833937 a49.33781426934862,49.33781426934862 0 0,0 -0.07665076711162723,-0.8458348278714108 l 28.243134847802644 -2.3145305210634164" fill="red" stroke="none" /><path d="M 79.04373962182676 101.35467743843564 l -28.229031489588632 1.82481184036369 a49.287950740428656,49.287950740428656 0 0,0 -0.04744234960665002,-0.847115022194591 l 28.256260190082813 -1.3386251018336615" fill="red" stroke="none" /><path d="M 79.0235259727143 100.99374915477108 l -27.983189778538744 1.3256885382190173 a49.01457406926046,49.01457406926046 0 0,0 -0.03267140457983252,-0.8431037800826015 l 28.00186331596978 -0.8438075111224191" fill="red" stroke="none" /><path d="M 79.0095281055655 100.63252640178507 l -28.31269997804479 0.8531742560147682 a49.32555182795039,49.32555182795039 0 0,0 -0.018269097625962575,-0.8488931796377666 l 28.32319113835576 -0.3656912605868727" fill="red" stroke="none" /><line stroke="#e1ed5e" stroke-width="0.3" x1="15.007084014347285" x2="10.007500721073583" y1="101.09737516637583" y2="101.16192664675087" /><path d="M 14.007167355692545 101.11028546245083 a86.0,86.0 0 0,1 10.666146001902534,-42.60595125391555" fill="none" id="id130" stroke="none" /><text fill="#e1ed5e" style="font-size:6.75px; font-family:Arial;" text-anchor="middle"><textPath startOffset="22.20632615414155" xlink:href="#id130">October</textPath></text><path d="M 79.00019446554 99.90962569577889 l -28.51848281557989 -0.1227315194738675 a49.518746906699775,49.518746906699775 0 0,0 0.011004935207295853,-0.852344359669149 l 28.51214487325488 0.6136121372034884" fill="red" stroke="none" /><path d="M 79.00486145842228 99.54816195383935 l -41.964066508697805 -0.903112012464037 a62.97378335644131,62.97378335644131 0 0,0 0.03265132354614031,-1.0835384693463466 l 41.94230349069602 1.6253206292353781" fill="red" stroke="none" /><path d="M 79.01574976396665 99.18683210126434 l -44.29730755064664 -1.7165802016005414 a65.3305549686117,65.3305549686117 0 0,0 0.05321762226742918,-1.1233398951105082 l 44.261196320145714 2.4788312033340585" fill="red" stroke="none" /><path d="M 79.03285615573316 98.82574320788736 l -28.317931979681354 -1.585934842280252 a49.36230704526376,49.36230704526376 0 0,0 0.05481427747401155,-0.8479526111494571 l 28.28643711120293 2.0731465176827206" fill="red" stroke="none" /><path d="M 79.05617556472873 98.46500227214037 l -62.831473305813795 -4.604993183578899 a84.0,84.0 0 0,0 0.11810206472201168,-1.4411443311688865 l 62.742896757272284 5.685851431955563" fill="red" stroke="none" /><path d="M 79.16333360222342 97.38593545837743 l -24.04481138942261 -3.0165424575688857 a45.233292866451784,45.233292866451784 0 0,0 0.10357131889560688,-0.7717266267651028 l 23.989324071469166 3.4299874263986476" fill="red" stroke="none" /><line stroke="#e1ed5e" stroke-width="0.3" x1="26.266209847984243" x2="21.928928074336255" y1="57.711370442889674" y2="55.22380399835377" /><path d="M 25.398753493254645 57.213857153982495 a86.0,86.0 0 0,1 29.58750427330803,-30.492523968695096" fill="none" id="id131" stroke="none" /><text fill="#e1ed5e" style="font-size:6.75px; font-family:Arial;" text-anchor="middle"><textPath startOffset="21.46611528233685" xlink:href="#id131">November</textPath></text><line stroke="#e1ed5e" stroke-width="0.3" x1="56.762969772571076" x2="54.21961505331055" y1="26.818313649435495" y2="22.513508569990535" /><path d="M 56.25429882871897 25.957352633546506 a86.0,86.0 0 0,1 42.265352541879196,-11.944610805530505" fill="none" id="id132" stroke="none" /><text fill="#e1ed5e" style="font-size:6.75px; font-family:Arial;" text-anchor="middle"><textPath startOffset="22.20632615414155" xlink:href="#id132">December</textPath></text></svg>