<?xml version="1.0" encoding="utf-8" ?>
<svg baseProfile="full" height="200mm" version="1.1" viewBox="0,0,200,200" width="200mm" xmlns="http://www.w3.org/2000/svg" xmlns:ev="http://www.w3.org/2001/xml-events" xmlns:xlink="http://www.w3.org/1999/xlink"><defs /><rect fill="#1a1a1a" height="200" width="200" x="0" y="0" /><text alignment-baseline="middle" fill="#e1ed5e" style="dominant-baseline: central; font-size:9.0px; font-family:Arial;" text-anchor="middle" x="100.0" y="100.0">2016</text><line stroke="#e1ed5e" stroke-width="0.3" x1="100.0" x2="100.0" y1="15.0" y2="10.0" /><path d="M 100.0 14.0 a86.0,86.0 0 0,1 42.35913384403234,11.155469271406648" fill="none" id="id13" stroke="none" /><text fill="#e1ed5e" style="font-size:6.75px; font-family:Arial;" text-anchor="middle"><textPath startOffset="22.145653131862478" xlink:href="#id13">January</textPath></text><line stroke="#e1ed5e" stroke-width="0.3" x1="143.13028292997686" x2="145.6673583964461" y1="26.7553504044142" y2="22.446841604673864" /><path d="M 143.63769802327073 25.89364864446614 a86.0,86.0 0 0,1 29.32050498858742,28.57503671076993" fill="none" id="id14" stroke="none" /><text fill="#e1ed5e" style="font-size:6.75px; font-family:Arial;" text-anchor="middle"><textPath startOffset="20.669276256404974" xlink:href="#id14">February</textPath></text><line stroke="#e1ed5e" stroke-width="0.3" x1="172.87174338648825" x2="177.1583165268699" y1="56.24261187166439" y2="53.66864786411523" /><path d="M 173.72905801456457 55.72781907015455 a86.0,86.0 0 0,1 12.242430191666344,42.057860355516425" fill="none" id="id15" stroke="none" /><text fill="#e1ed5e" style="font-size:6.75px; font-family:Arial;" text-anchor="middle"><textPath startOffset="22.145653131862474" xlink:href="#id15">March</textPath></text><path d="M 118.70294669586156 90.45014215332178 l 9.856335351213106 -5.032715059499265 a32.06686800434901,32.06686800434901 0 0,0 0.24612097942708325,0.49240682876211644 l -9.941276243851927 4.862776374573398" fill="#ff8d0d" stroke="none" /><path d="M 119.0197475246899 91.09779779509293 l 5.615254987658111 -2.6282228650698403 a27.19989064459166,27.19989064459166 0 0,0 0.19430505480630947,0.4245916112310896 l -5.659544507319471 2.531442271624066" fill="#ff4b07" stroke="none" /><path d="M 120.51834098615036 95.52812308129327 l 7.521479882690699 -1.6392715329482468 a28.698043308819155,28.698043308819155 0 0,0 0.10077425754541844,0.4822413030467266 l -7.548511851060484 1.5099137786161156" fill="#ff6008" stroke="none" /><line stroke="#e1ed5e" stroke-width="0.3" x1="184.99686870605535" x2="189.99668451229388" y1="99.2704041080226" y2="99.22748670261217" /><path d="M 185.99683186730306 99.26182062694052 a86.0,86.0 0 0,1 -10.086455211305974,41.156179273409016" fill="none" id="id16" stroke="none" /><text fill="#e1ed5e" style="font-size:6.75px; font-family:Arial;" text-anchor="middle"><textPath startOffset="21.40746469413373" xlink:href="#id16">April</textPath></text><line stroke="#e1ed5e" stroke-width="0.3" x1="174.33088141563837" x2="178.70328620479359" y1="141.23008692659167" y2="143.65538615756765" /><path d="M 175.20536237346943 141.71514677278685 a86.0,86.0 0 0,1 -30.301960400862466,31.631185727798858" fill="none" id="id17" stroke="none" /><text fill="#e1ed5e" style="font-size:6.75px; font-family:Arial;" text-anchor="middle"><textPath startOffset="22.145653131862474" xlink:href="#id17">May</textPath></text><path d="M 112.16784306229584 117.11559508785304 l 1.1842427777547946 1.6657857736982533 a23.04383786062395,23.04383786062395 0 0,0 -0.3243748376093541,0.2264388288707599 l -1.1554728489716821 -1.6858694183741352" fill="#ff1001" stroke="none" /><line stroke="#e1ed5e" stroke-width="0.3" x1="143.1302829299769" x2="145.66735839644613" y1="173.24464959558577" y2="177.55315839532614" /><path d="M 143.63769802327073 174.10635135553383 a86.0,86.0 0 0,1 -40.68552437913181,11.842963189579606" fill="none" id="id18" stroke="none" /><text fill="#e1ed5e" style="font-size:6.75px; font-family:Arial;" text-anchor="middle"><textPath startOffset="21.407464694133747" xlink:href="#id18">June</textPath></text><path d="M 110.02825361518725 118.45085714620011 l 1.2869169338793085 2.367782209862828 a23.694911462005425,23.694911462005425 0 0,0 -0.359046944578929,0.19117227458870145 l -1.2460811735138257 -2.389524952174098" fill="#ff1902" stroke="none" /><path d="M 109.71004243097381 118.62028667847754 l 0.6660806112768646 1.2772973981440097 a22.440538796431536,22.440538796431536 0 0,0 -0.34309743512449603,0.1751879950405796 l -0.6440559544387862 -1.2885433448574255" fill="#ff0701" stroke="none" /><path d="M 108.73861861582097 119.09545874513695 l 0.5733174973400657 1.2528021990228346 a22.377754079156627,22.377754079156627 0 0,0 -0.3506770924592032,0.15685340302445966 l -0.5517270020252355 -1.2624593529571446" fill="#ff0601" stroke="none" /><path d="M 106.38641147887787 120.00534299687104 l 0.46074685150875405 1.4432829500019264 a22.51504235417413,22.51504235417413 0 0,0 -0.3692031302834275,0.11438007352481996 l -0.43590308835370223 -1.4509796113333908" fill="#ff0801" stroke="none" /><path d="M 105.69591212413111 120.21278271476187 l 0.40793048135299165 1.4476013678975157 a22.503980384830747,22.503980384830747 0 0,0 -0.3727287109926158,0.10158886763199404 l -0.38302036942568074 -1.4543907296736518" fill="#ff0801" stroke="none" /><path d="M 105.3480935250658 120.30758222061773 l 0.6695868638692426 2.542530385480292 a23.629221810604196,23.629221810604196 0 0,0 -0.3931392869441952,0.09993446938199016 l -0.62584228369965 -2.553650086697552" fill="#ff1802" stroke="none" /><path d="M 104.9986988182912 120.39639698878246 l 0.33915556106743827 1.3838704262741475 a22.42482414750704,22.42482414750704 0 0,0 -0.37467379768560694,0.0884219960699445 l -0.3153496096419522 -1.3894885659903171" fill="#ff0701" stroke="none" /><path d="M 104.64783097203109 120.47920084513623 l 6.474685063924174 28.52865705121864 a50.25415901753202,50.25415901753202 0 0,0 -0.8429239774844353,0.1837113576424839 l -5.983998669820603 -28.63559986699484" fill="#95ff23" stroke="none" /><path d="M 103.94208987418118 120.62667999033965 l 0.2956434114067783 1.5469312554946792 a22.574928993934197,22.574928993934197 0 0,0 -0.3812639622237922,0.06947899448798911 l -0.2690447156319289 -1.551778423914032" fill="#ff0901" stroke="none" /><path d="M 103.2317021107853 120.74984581791261 l 0.2415573524894637 1.5509714845349891 a22.569669551333142,22.569669551333142 0 0,0 -0.3833349763662469,0.05633704066094178 l -0.2148972705155313 -1.5548895984948135" fill="#ff0901" stroke="none" /><path d="M 102.875027216393 120.80226474461374 l 0.3049172819808698 2.2062295580394484 a23.22720080181773,23.22720080181773 0 0,0 -0.39543997247839063,0.05119762142138358 l -0.2669994876117038 -2.2111387756612264" fill="#ff1302" stroke="none" /><path d="M 101.08105385017728 120.97215588758144 l 0.09026565189786534 1.7511295321558227 a22.7534544551544,22.7534544551544 0 0,0 -0.39024800724232867,0.01675892856481301 l -0.0601918840547071 -1.7524210291464666" fill="#ff0c01" stroke="none" /><line stroke="#e1ed5e" stroke-width="0.3" x1="101.45913802915013" x2="101.54496967792366" y1="184.9874750549273" y2="189.98673829345242" /><path d="M 101.47630435890484 185.9873277026323 a86.0,86.0 0 0,1 -42.54439059252881,-10.42667462771756" fill="none" id="id19" stroke="none" /><text fill="#e1ed5e" style="font-size:6.75px; font-family:Arial;" text-anchor="middle"><textPath startOffset="22.145653131862474" xlink:href="#id19">July</textPath></text><path d="M 100.36049292484886 120.99690560180557 l 0.05288541863433352 3.080310503299459 a24.08076446101306,24.08076446101306 0 0,0 -0.41337834348318536,0.003548355908036723 l -3.772848336106566e-16 -3.080764461013061" fill="#ff1f03" stroke="none" /><path d="M 100.0 121.0 l 1.1548288050456974e-16 0.9429892813582939 a21.942989281358294,21.942989281358294 0 0,0 -0.37668058980780306,-0.003233349829178081 l 0.016187664958950767 -0.9428503297235507" fill="#ff0000" stroke="none" /><path d="M 99.27912038922189 120.98762331915562 l -0.06029067649415208 1.7552972632289134 a22.756332385390373,22.756332385390373 0 0,0 -0.39029736706773704,-0.01676104828810126 l 0.09041380416272789 -1.7540036465149837" fill="#ff0c01" stroke="none" /><path d="M 98.55909050195518 120.95050786540614 l -0.12339060957373979 1.794072382685815 a22.798310584089116,22.798310584089116 0 0,0 -0.39021046146026306,-0.030204757580460092 l 0.154170065809239 -1.7916898581103011" fill="#ff0c01" stroke="none" /><path d="M 97.84075906011543 120.88869738790638 l -0.24614603989090347 2.3812396502575948 a23.393927765182752,23.393927765182752 0 0,0 -0.39910497327662986,-0.044720544708958115 l 0.2869869147683326 -2.376663345041666" fill="#ff1502" stroke="none" /><path d="M 96.41257539226777 120.69131181640829 l -0.3004566792753894 1.7329542828050135 a22.758807767328037,22.758807767328037 0 0,0 -0.3843694581361747,-0.07004491929273444 l 0.3301608709626212 -1.7275411895809132" fill="#ff0c01" stroke="none" /><path d="M 94.6519064749342 120.30758222061772 l -0.4404275790077362 1.6723752550339244 a22.729397422803792,22.729397422803792 0 0,0 -0.3764622461522936,-0.10260645924205512 l 0.46907122609472496 -1.6645683016477248" fill="#ff0b01" stroke="none" /><path d="M 93.95794788825049 120.11202640906438 l -0.5014035457851433 1.6690093312534147 a22.742698385704447,22.742698385704447 0 0,0 -0.37293624870916675,-0.11553660315576979 l 0.5299804273659438 -1.660156140290996" fill="#ff0c01" stroke="none" /><path d="M 92.93061703081489 119.77432235084164 l -0.800437598517591 2.238966422361601 a23.377744937873555,23.377744937873555 0 0,0 -0.3767277379447342,-0.1383396435962024 l 0.838754488116444 -2.224895929756679" fill="#ff1502" stroke="none" /><path d="M 91.26138138417905 119.09545874513695 l -0.7251328292838315 1.58454609762518 a22.74258542275676,22.74258542275676 0 0,0 -0.35360527696532457,-0.16550512419689986 l 0.7522268201206459 -1.5718647418577534" fill="#ff0c01" stroke="none" /><path d="M 90.6110303473126 118.78422872680471 l -0.9732420460825606 1.9471360411656566 a23.17681851404044,23.17681851404044 0 0,0 -0.35435454819728796,-0.18093595718565342 l 1.0065238159934309 -1.9301421323071668" fill="#ff1202" stroke="none" /><path d="M 89.97174638481275 118.45085714620012 l -0.8128241911996907 1.4955049615107991 a22.702121692389486,22.702121692389486 0 0,0 -0.3408083716530096,-0.1890406587538109 l 0.8383767510088029 -1.4813313873238398" fill="#ff0b01" stroke="none" /><line stroke="#e1ed5e" stroke-width="0.3" x1="58.13341422392154" x2="55.67067388415222" y1="173.97424548756322" y2="178.32567169271397" /><path d="M 57.64086615596768 174.84453072859336 a86.0,86.0 0 0,1 -31.369924170532247,-30.572349798747897" fill="none" id="id20" stroke="none" /><text fill="#e1ed5e" style="font-size:6.75px; font-family:Arial;" text-anchor="middle"><textPath startOffset="22.145653131862474" xlink:href="#id20">August</textPath></text><path d="M 89.03521579738668 117.91015095944536 l -0.9337609326606111 1.5252283086426928 a22.788359827564985,22.788359827564985 0 0,0 -0.3318808514912787,-0.20711819713220367 l 0.9598059129416023 -1.5089743146689414" fill="#ff0c01" stroke="none" /><path d="M 88.4268655584334 117.5232005979908 l -1.294713250121892 1.9603608783180648 a23.349318448674246,23.349318448674246 0 0,0 -0.332565134209692,-0.22376466420665553 l 1.3281746724285897 -1.9378465400542881" fill="#ff1402" stroke="none" /><path d="M 86.96720088162412 116.46651593811092 l -1.0055977219562873 1.2705398714059783 a22.620338959364982,22.620338959364982 0 0,0 -0.3024115589116465,-0.24360134526817992 l 1.0272600512231955 -1.2530902323443878" fill="#ff0a01" stroke="none" /><path d="M 86.13680546590413 115.77377054828092 l -41.58958360228758 47.321311644842766 a84.0,84.0 0 0,0 -1.0749398927065164,-0.9612178804664708 l 42.39578852181747 -46.600398234492914" fill="#4dd2ff" stroke="none" /><path d="M 84.83555147118756 114.52719865689866 l -1.2785590060183196 1.224830605590745 a22.770571417441936,22.770571417441936 0 0,0 -0.2679816137291807,-0.28458718716435866 l 1.2993964534837534 -1.202701958481896" fill="#ff0c01" stroke="none" /><path d="M 84.58840730492382 114.26474011684316 l -1.7497857006187607 1.6195755217090202 a23.384276592304033,23.384276592304033 0 0,0 -0.2701466316877319,-0.296938470949225 l 1.7773300331483726 -1.5892994752021212" fill="#ff1502" stroke="none" /><path d="M 84.1078160697243 113.72728997021213 l -1.3523382759872558 1.1681175937643296 a22.786985597469087,22.786985597469087 0 0,0 -0.25315845815117494,-0.29822002714419493 l 1.3721912976455428 -1.1447307841705803" fill="#ff0c01" stroke="none" /><path d="M 83.64595745247003 113.17365903436017 l -1.3932514591569418 1.122304752400835 a22.78905494205864,22.78905494205864 0 0,0 -0.24279412402344472,-0.30676244424536014 l 1.4123120138219483 -1.0982223642407942" fill="#ff0c01" stroke="none" /><path d="M 82.98947788004972 112.3143062007846 l -1.9183220240710381 1.3887172086513653 a23.36822610272762,23.36822610272762 0 0,0 -0.23244140985704095,-0.32695795239918035 l 1.9418785324580399 -1.3555820295426808" fill="#ff1502" stroke="none" /><path d="M 82.78059297857968 112.02048342749411 l -20.18152791437119 14.088273860675534 a45.612466949331534,45.612466949331534 0 0,0 -0.4426804234974071,-0.645883967547453 l 20.420398074683924 -13.73975515805803" fill="#c9ff1d" stroke="none" /><path d="M 82.18462484594161 111.11811171558189 l -1.4942947587009434 0.9325504469919026 a22.761410560336774,22.761410560336774 0 0,0 -0.2040203162684971,-0.3332518539025765 l 1.5100830394248452 -0.906761476964769" fill="#ff0c01" stroke="none" /><line stroke="#e1ed5e" stroke-width="0.3" x1="26.387840678322732" x2="22.057713659400548" y1="142.50000000000003" y2="145.00000000000006" /><path d="M 25.521815274538298 143.00000000000003 a86.0,86.0 0 0,1 -11.493303480769221,-40.785679425670985" fill="none" id="id21" stroke="none" /><text fill="#e1ed5e" style="font-size:6.75px; font-family:Arial;" text-anchor="middle"><textPath startOffset="21.40746469413373" xlink:href="#id21">September</textPath></text><path d="M 81.81346652052679 110.50000000000001 l -1.5290856549935175 0.8828180145245036 a22.765636029049006,22.765636029049006 0 0,0 -0.19249606584887158,-0.3401221037381735 l 1.5440150858637673 -0.8564391406872085" fill="#ff0c01" stroke="none" /><path d="M 81.63589988554817 110.18625677009913 l -2.42378503587989 1.344432701691001 a23.771684179254816,23.771684179254816 0 0,0 -0.194876475187353,-0.35855076494988536 l 2.446506860682572 -1.3026271032665286" fill="#ff1a02" stroke="none" /><path d="M 81.29705330413844 109.54985784667822 l -1.549951236667505 0.7914161452822309 a22.74031271645659,22.74031271645659 0 0,0 -0.1745374084395578,-0.34919173485388405 l 1.5633085583187998 -0.7646925542645941" fill="#ff0c01" stroke="none" /><path d="M 80.5471966667186 107.91128576633889 l -2.440493754771855 0.9925275639800898 a23.634600677966336,23.634600677966336 0 0,0 -0.14961976813216088,-0.3771395545595285 l 2.45717219787014 -0.950486992206996" fill="#ff1902" stroke="none" /><path d="M 79.48165901384964 104.47187691870673 l -1.744091227740718 0.38011656550191236 a22.785033000829703,22.785033000829703 0 0,0 -0.08001049963921568,-0.38287920490056426 l 1.7503594382043004 -0.35012090931593903" fill="#ff0c01" stroke="none" /><path d="M 79.2786578344484 103.40968896794605 l -1.7572728083173035 0.2891585718878831 a22.780904377710275,22.780904377710275 0 0,0 -0.06018336107696073,-0.38642035074428416 l 1.7619776615325318 -0.25895003921214893" fill="#ff0c01" stroke="none" /><line stroke="#e1ed5e" stroke-width="0.3" x1="15.003131293944662" x2="10.003315487706104" y1="100.72959589197737" y2="100.7725132973878" /><path d="M 14.003168132696942 100.73817937305945 a86.0,86.0 0 0,1 10.791469493833604,-42.45332614584628" fill="none" id="id22" stroke="none" /><text fill="#e1ed5e" style="font-size:6.75px; font-family:Arial;" text-anchor="middle"><textPath startOffset="22.145653131862435" xlink:href="#id22">October</textPath></text><path d="M 79.0935383218832 98.0201363427161 l -2.095450194589973 -0.19844131205902266 a23.104825520640336,23.104825520640336 0 0,0 0.04078288591327311,-0.3945374259592367 l 2.091734916195036 0.2343832603011721" fill="#ff1101" stroke="none" /><path d="M 79.2786578344484 96.59031103205396 l -1.7619533534464895 -0.2899287538077337 a22.78564786618354,22.78564786618354 0 0,0 0.06682182297126643,-0.38541051768982976 l 1.7567167129829888 0.32013230441815616" fill="#ff0c01" stroke="none" /><path d="M 79.56144815229197 95.17655741523228 l -5.317699861689513 -1.2549626880126987 a26.46377737168314,26.46377737168314 0 0,0 0.10813915209457843,-0.44124464312201656 l 5.295373183078636 1.346063155742833" fill="#ff4106" stroke="none" /><path d="M 79.83685265289637 94.1308016681162 l -1.7193895710025944 -0.5004892454667513 a22.79075123389609,22.79075123389609 0 0,0 0.11256859942197715,-0.37470425652298284 l 1.7105446515769875 0.5299311055804576" fill="#ff0c01" stroke="none" /><path d="M 80.16572619554312 93.10060997987247 l -2.8036681981858456 -0.9752613368665761 a23.968449096869517,23.968449096869517 0 0,0 0.1385146146050708,-0.38745002943573686 l 2.7865134135368317 1.0232463226832345" fill="#ff1d03" stroke="none" /><path d="M 81.1358732173502 90.77261029715801 l -2.1432122583606295 -1.0483525133000433 a23.385875473810355,23.385875473810355 0 0,0 0.17949225897562385,-0.3591047550488017 l 2.1249000861732616 1.084989124512615" fill="#ff1502" stroke="none" /><line stroke="#e1ed5e" stroke-width="0.3" x1="26.387840678322718" x2="22.05771365940052" y1="57.49999999999999" y2="54.99999999999999" /><path d="M 25.521815274538284 56.99999999999999 a86.0,86.0 0 0,1 29.574782752854787,-30.34633250058573" fill="none" id="id23" stroke="none" /><text fill="#e1ed5e" style="font-size:6.75px; font-family:Arial;" text-anchor="middle"><textPath startOffset="21.40746469413373" xlink:href="#id23">November</textPath></text><path d="M 82.576782715395 88.27688183743585 l -1.488945247086747 -1.0018288117550693 a22.7946082906542,22.7946082906542 0 0,0 0.22122738642428919,-0.3227773682535795 l 1.4715281238471445 1.0272409150786836" fill="#ff0c01" stroke="none" /><path d="M 84.10781606972428 86.27271002978789 l -2.4557363408173423 -2.1212065622124 a24.24502053232085,24.24502053232085 0 0,0 0.27476412575186276,-0.3126311373507344 l 2.418961151106887 2.1630499773744347" fill="#ff2103" stroke="none" /><line stroke="#e1ed5e" stroke-width="0.3" x1="56.869717070023135" x2="54.33264160355391" y1="26.7553504044142" y2="22.446841604673864" /><path d="M 56.362301976729285 25.89364864446614 a86.0,86.0 0 0,1 42.16139366436587,-11.88097634709845" fill="none" id="id24" stroke="none" /><text fill="#e1ed5e" style="font-size:6.75px; font-family:Arial;" text-anchor="middle"><textPath startOffset="22.145653131862474" xlink:href="#id24">December</textPath></text><path d="M 89.65649057296885 81.72400993836675 l -1.4709587051228863 -2.599043087411286 a23.986426708023686,23.986426708023686 0 0,0 0.3600885916701024,-0.1997350717908868 l 1.4261259252966814 2.623911074635319" fill="#ff1e03" stroke="none" /><path d="M 90.28995756902619 81.37971332152246 l -2.208302726569577 -4.234711653825932 a25.77591705573116,25.77591705573116 0 0,0 0.3940926334268506,-0.2012265066489382 l 2.135282871429144 4.271996112147704" fill="#ff3705" stroke="none" /><path d="M 94.30408787586887 79.78721728523814 l -0.382424530710299 -1.357089747100195 a22.409943652552634,22.409943652552634 0 0,0 0.3711712003030319,-0.10116436116760297 l 0.3590719294725895 1.3634546024119378" fill="#ff0701" stroke="none" /></svg>