<?xml version="1.0" encoding="utf-8" ?>
<svg baseProfile="full" height="200mm" version="1.1" viewBox="0,0,200,200" width="200mm" xmlns="http://www.w3.org/2000/svg" xmlns:ev="http://www.w3.org/2001/xml-events" xmlns:xlink="http://www.w3.org/1999/xlink"><defs /><rect fill="#1a1a1a" height="200" width="200" x="0" y="0" /><text alignment-baseline="middle" fill="#e1ed5e" style="dominant-baseline: central; font-size:9.0px; font-family:Arial;" text-anchor="middle" x="100.0" y="100.0">2025</text><line stroke="#e1ed5e" stroke-width="0.3" x1="100.0" x2="100.0" y1="15.0" y2="10.0" /><path d="M 100.0 14.0 a86.0,86.0 0 0,1 42.46469731375804,11.215312516191453" fill="none" id="id121" stroke="none" /><text fill="#e1ed5e" style="font-size:6.75px; font-family:Arial;" text-anchor="middle"><textPath startOffset="22.20632615414155" xlink:href="#id121">January</textPath></text><line stroke="#e1ed5e" stroke-width="0.3" x1="143.23703022742887" x2="145.7803849466894" y1="26.81831364943548" y2="22.513508569990506" /><path d="M 143.74570117128098 25.957352633546492 a86.0,86.0 0 0,1 28.547481713284135,27.462654790039103" fill="none" id="id122" stroke="none" /><text fill="#e1ed5e" style="font-size:6.75px; font-family:Arial;" text-anchor="middle"><textPath startOffset="19.985693538727396" xlink:href="#id122">February</textPath></text><line stroke="#e1ed5e" stroke-width="0.3" x1="172.23445277983987" x2="176.4835382374775" y1="55.19839476539836" y2="52.563006222186495" /><path d="M 173.08426987136738 54.67131705675599 a86.0,86.0 0 0,1 12.851231095245387,41.99856678651699" fill="none" id="id123" stroke="none" /><text fill="#e1ed5e" style="font-size:6.75px; font-family:Arial;" text-anchor="middle"><textPath startOffset="22.20632615414155" xlink:href="#id123">March</textPath></text><path d="M 120.96714384426684 98.82574320788733 l 16.281173509954368 -0.9118208335684393 a37.30668660684228,37.30668660684228 0 0,0 0.030389656981276863,0.6414776277346301 l -16.29445677516914 0.6314320992108094" fill="red" stroke="none" /><path d="M 120.98425023603335 99.18683210126433 l 54.42229579178131 -2.108937103570264 a75.46314253653523,75.46314253653523 0 0,0 0.03912694063214302,1.2984326746463122 l -54.4505344268691 1.1718342814989529" fill="red" stroke="none" /><line stroke="#e1ed5e" stroke-width="0.3" x1="184.98032266829074" x2="189.97916517819016" y1="98.17113171792111" y2="98.06355123074" /><path d="M 185.9800911702706 98.14961562048488 a86.0,86.0 0 0,1 -9.607161424134198,41.387399972396054" fill="none" id="id124" stroke="none" /><text fill="#e1ed5e" style="font-size:6.75px; font-family:Arial;" text-anchor="middle"><textPath startOffset="21.466115282336823" xlink:href="#id124">April</textPath></text><path d="M 120.99513854157772 99.54816195383933 l 12.772190576135614 -0.2748713290786 a33.77514799760366,33.77514799760366 0 0,0 0.007506113109662863,0.5813567323702614 l -12.775029696362992 0.05497833864787589" fill="red" stroke="none" /><path d="M 120.9904718944345 100.63252640178507 l 14.941326343231253 0.4502415875789037 a35.948108588785466,35.948108588785466 0 0,0 -0.023961754679825732,0.6183464166228826 l -14.931362455700224 -0.7073652512157925" fill="red" stroke="none" /><path d="M 120.95626037817324 101.35467743843564 l 14.254510135810493 0.9214555902849457 a35.28426195562065,35.28426195562065 0 0,0 -0.04439674408840401,0.605758299708869 l -14.236536833057752 -1.1666870264905849" fill="red" stroke="none" /><path d="M 120.89721153311464 102.0752229133903 l 40.20345876707889 3.9924531892102246 a61.40121012178036,61.40121012178036 0 0,0 -0.11349779342751577,1.0508486075472683 l -40.128778672150325 -4.683898118642285" fill="red" stroke="none" /><path d="M 120.8583938346157 102.4346265915055 l 13.432473757324681 1.567860788255421 a34.52366587477542,34.52366587477542 0 0,0 -0.0739768028395708,0.589667905056956 l -13.403495445238264 -1.7988464475997719" fill="red" stroke="none" /><path d="M 120.81339534386255 102.79330883721812 l 13.150659752259207 1.7649140610816432 a34.26856335714963,34.26856335714963 0 0,0 -0.08349445545077536,0.5839600269562962 l -13.11833124579183 -1.9910195600183487" fill="red" stroke="none" /><path d="M 120.64145759157962 103.86396538481128 l 14.147764133846094 2.6483822977673936 a35.39351099565598,35.39351099565598 0 0,0 -0.1172537586759217,0.597874389360891 l -14.100080442194507 -2.8915204141962296" fill="red" stroke="none" /><path d="M 120.5718875245553 104.21870165774334 l 20.933894784311153 4.292938920854184 a42.369540833129626,42.369540833129626 0 0,0 -0.15266343028298637,0.7131927220092219 l -20.856897315303726 -4.652645462279575" fill="red" stroke="none" /><path d="M 120.49622156327973 104.57218783832717 l 19.420783024353465 4.332284742365503 a40.8981281624164,40.8981281624164 0 0,0 -0.15918999288074456,0.685786322941055 l -19.343332465542165 -4.665939722655123" fill="red" stroke="none" /><path d="M 120.41448212921028 104.9243191809786 l 14.220373202402053 3.430195097678503 a35.62823476786355,35.62823476786355 0 0,0 -0.14894075734560755,0.5949442887858823 l -14.159221130761384 -3.6744672258617816" fill="red" stroke="none" /><path d="M 120.23288151984713 105.62410040840565 l 17.196443997648238 4.7800669230147905 a38.84843763338271,38.84843763338271 0 0,0 -0.18463619625155947,0.6427428211450138 l -17.111615164510578 -5.075367219664387" fill="red" stroke="none" /><path d="M 120.13307415673323 105.97154293290107 l 14.153113724124935 4.197864945010314 a35.76254375724455,35.76254375724455 0 0,0 -0.1801295084092577,0.5886736557050597 l -14.078757443209545 -4.4408655732674305" fill="red" stroke="none" /><path d="M 120.02730092923936 106.31721596034902 l 14.147063586578094 4.462411395173352 a35.83416743812934,35.83416743812934 0 0,0 -0.1906168657723966,0.5866583896956542 l -14.06815446978945 -4.705268684846802" fill="red" stroke="none" /><path d="M 119.79798401119884 107.00284435728193 l 16.782308528975303 5.936154636644871 a38.801230615659065,38.801230615659065 0 0,0 -0.2281433630559583,0.6277525514544438 l -16.677640904914117 -6.2241549851054465" fill="red" stroke="none" /><path d="M 119.67450827220406 107.3425965602758 l 38.59845542441809 14.405081037359063 a62.19887281035334,62.19887281035334 0 0,0 -0.38298428843878973,0.9998511252532396 l -38.34477685638579 -15.067355729445445" fill="red" stroke="none" /><path d="M 119.41010516605496 108.01547362559984 l 16.42063445837601 6.780960808337541 a38.76565972599428,38.76565972599428 0 0,0 -0.2600050064685296,0.6145750310543214 l -16.30147847071517 -7.062610365058026" fill="red" stroke="none" /><path d="M 119.26925614724726 108.34839909993367 l 18.944404038699037 8.207657027178412 a41.645970024614186,41.645970024614186 0 0,0 -0.29064705676768476,0.6553323844290201 l -18.80031589720008 -8.532537748100118" fill="red" stroke="none" /><path d="M 119.12269723197855 108.67885076344098 l 12.546934276422768 5.694435717032419 a34.7786849108428,34.7786849108428 0 0,0 -0.25210469696951526,0.5430110889856136 l -12.44705496261342 -5.909566873296862" fill="red" stroke="none" /><path d="M 118.97047184881838 109.00673069616215 l 15.970927519621524 7.582618096350401 a38.679553813151074,38.679553813151074 0 0,0 -0.29073531452389556,0.5990008608748654 l -15.838038948482913 -7.856407913190542" fill="red" stroke="none" /><path d="M 118.81262510543309 109.33194174019688 l 17.762750848885748 8.811155016296086 a40.828055135105686,40.828055135105686 0 0,0 -0.3177226228675486,0.6268968772707149 l -17.60844955623193 -9.115606105269494" fill="red" stroke="none" /><line stroke="#e1ed5e" stroke-width="0.3" x1="174.80103733775053" x2="179.2010983576182" y1="140.37084112569926" y2="142.7455964860345" /><path d="M 175.68104954172406 140.8457921977663 a86.0,86.0 0 0,1 -30.038265399797805,32.042727171017184" fill="none" id="id125" stroke="none" /><text fill="#e1ed5e" style="font-size:6.75px; font-family:Arial;" text-anchor="middle"><textPath startOffset="22.206326154141568" xlink:href="#id125">May</textPath></text><path d="M 118.48025628344425 109.97397251340804 l 13.176420541340939 7.111441220767862 a35.972997512813116,35.972997512813116 0 0,0 -0.29878758995127525,0.542386264483765 l -13.052056541938155 -7.337198003649432" fill="red" stroke="none" /><path d="M 117.55443506779139 111.5257021239791 l 13.158231397855454 8.639290013287335 a36.74091437792593,36.74091437792593 0 0,0 -0.35165760449208106,0.5256804051853268 l -13.00757068795265 -8.86450733267847" fill="red" stroke="none" /><path d="M 117.35343817320211 111.8261652097733 l 14.585584616632682 9.939905374128944 a38.65052399946215,38.65052399946215 0 0,0 -0.3793992359503434,0.5465528963185995 l -14.412324473520203 -10.189499532634564" fill="red" stroke="none" /><path d="M 116.93607887273984 112.41649034213515 l 14.359951002857665 10.527831989936372 a38.805713667606824,38.805713667606824 0 0,0 -0.3995856365941073,0.5353102595692877 l -14.176604099568465 -10.773455129014975" fill="red" stroke="none" /><path d="M 116.71984013943494 112.70617746262583 l 10.267937940745451 7.803079488937611 a33.89645684153903,33.89645684153903 0 0,0 -0.35703167494335225,0.46151156821839995 l -10.13209944858403 -7.9786690512692635" fill="red" stroke="none" /><path d="M 116.27256486870786 113.27417163493432 l 15.08270071472162 12.303552612690204 a40.464461660757536,40.464461660757536 0 0,0 -0.4449240980772985,0.5359397379948159 l -14.868680616750778 -12.561353607798791" fill="red" stroke="none" /><path d="M 116.0416608686014 113.55231037782055 l 14.727669605217883 12.44222473388495 a40.27986536075802,40.27986536075802 0 0,0 -0.4520119993211026,0.5257920732416227 l -14.511315096326003 -12.6938939062881" fill="red" stroke="none" /><path d="M 115.80600337817218 113.82643327865902 l 11.273115637123453 9.861251922452757 a35.97756407584476,35.97756407584476 0 0,0 -0.41175662556376896,0.46261293382291224 l -11.101700161911346 -10.053839026016535" fill="red" stroke="none" /><path d="M 115.32070863581623 114.36230785411682 l 10.828715008502236 10.151314949820433 a35.84285228471298,35.84285228471298 0 0,0 -0.42583603928225733,0.4464873847173972 l -10.652372417841015 -10.336209451120338" fill="red" stroke="none" /><path d="M 115.07121518719521 114.62390073753431 l 10.812263737431614 10.49135518803961 a36.06564239617363,36.06564239617363 0 0,0 -0.4361527619001348,0.44182044510045837 l -10.630070350475945 -10.675916127120733" fill="red" stroke="none" /><path d="M 114.81725581225074 114.88116024355365 l 13.049755814132196 13.106037303397875 a39.49498149786946,39.49498149786946 0 0,0 -0.4858823976615096,0.4755381908005341 l -12.822223464094892 -13.32872559712098" fill="red" stroke="none" /><path d="M 114.29624159901734 115.38237550388516 l 12.492080117369497 13.44114576261802 a39.349835559773354,39.349835559773354 0 0,0 -0.5001185161575393,0.45684640681434474 l -12.258862051745094 -13.654184936018948" fill="red" stroke="none" /><path d="M 114.0293411484842 115.62618273729858 l 9.884895800582878 11.01001012693688 a35.79633359936284,35.79633359936284 0 0,0 -0.46204142666734044,0.4076978383984124 l -9.69391202100895 -11.178531107107581" fill="red" stroke="none" /><path d="M 113.20401910651253 116.32954008644616 l 14.511385576203983 17.946373037253732 a44.079268110872334,44.079268110872334 0 0,0 -0.5941098364421626,0.47199678541002504 l -14.200318247044468 -18.19350373666888" fill="red" stroke="none" /><path d="M 112.92097659922987 116.55440617244103 l 8.807324007748226 11.283978250161475 a35.314227933338756,35.314227933338756 0 0,0 -0.4824113080717843,0.3698924199559722 l -8.611783971182948 -11.43391001194482" fill="red" stroke="none" /><path d="M 112.63410532772338 116.77436683061366 l 31.71760477284221 42.111627507220604 a73.7199736706414,73.7199736706414 0 0,0 -1.0201967775731482,0.754717186588289 l -30.9880230248505 -42.65135464254866" fill="red" stroke="none" /><path d="M 112.34349029814194 116.9893568818739 l 4.636398516045313 6.381455093584145 a28.887912291032286,28.887912291032286 0 0,0 -0.40480586394043433,0.2888182356591969 l -4.525865324255994 -6.460317591087561" fill="red" stroke="none" /><path d="M 111.1453310114006 117.79835938074945 l 9.805200783796298 15.658259693848409 a39.474930556041535,39.474930556041535 0 0,0 -0.5790047472613555,0.35567200630247253 l -9.534216836602633 -15.824720166979258" fill="red" stroke="none" /><line stroke="#e1ed5e" stroke-width="0.3" x1="143.8653032363475" x2="146.44561519142675" y1="172.8068346515853" y2="177.08958963109032" /><path d="M 144.38136562736335 173.6633856474863 a86.0,86.0 0 0,1 -40.68145358897372,12.25698825130547" fill="none" id="id126" stroke="none" /><text fill="#e1ed5e" style="font-size:6.75px; font-family:Arial;" text-anchor="middle"><textPath startOffset="21.466115282336833" xlink:href="#id126">June</textPath></text><path d="M 110.5260780823613 118.17145234162733 l 13.296776186626124 22.95458316782306 a47.52766754476792,47.52766754476792 0 0,0 -0.7114467094312906,0.40397800923364086 l -12.899680710273634 -23.18006434285133" fill="red" stroke="none" /><path d="M 109.89434966115114 118.52300852407294 l 13.312994604516849 24.922983418367757 a49.25581228370773,49.25581228370773 0 0,0 -0.7512897513294655,0.39303928974908864 l -12.882013950660888 -25.14845212706156" fill="red" stroke="none" /><path d="M 108.2653958097858 119.30500536409082 l 7.849794382638417 18.33430922744543 a40.944075980032075,40.944075980032075 0 0,0 -0.6502865668497694,0.27181983768300577 l -7.533036356291187 -18.46671410814841" fill="red" stroke="none" /><path d="M 107.2578585660854 119.70592522655815 l 8.62384768448869 23.414743631112117 a45.95237399920028,45.95237399920028 0 0,0 -0.7446044768835535,0.26698867365208706 l -8.2195236469754 -23.559719845804164" fill="red" stroke="none" /><path d="M 106.2309692047433 120.05430185196036 l 5.2417434308512965 16.870490214074607 a38.666049763828354,38.666049763828354 0 0,0 -0.6372994029904674,0.19201308227430888 l -4.950569053420583 -16.958218665454645" fill="red" stroke="none" /><path d="M 105.88484417918355 120.15858648285463 l 5.505543723149247 18.859289370961594 a40.646470605815516,40.646470605815516 0 0,0 -0.6733162023959772,0.19028588437086383 l -5.180096352648664 -18.95126404867098" fill="red" stroke="none" /><path d="M 105.53697534728816 120.25689768951611 l 4.391823602223025 16.067386217315587 a37.65680084558335,37.65680084558335 0 0,0 -0.6267338946988317,0.16552611788568844 l -4.114599264712696 -16.14060368450486" fill="red" stroke="none" /><path d="M 105.18746579009965 120.34920634021253 l 6.136075196326552 24.070377587340268 a45.840179065620816,45.840179065620816 0 0,0 -0.766287823227105,0.18833490325911 l -5.720834088356236 -24.172433748913406" fill="red" stroke="none" /><path d="M 103.06178313531738 120.77559828337769 l 3.890387499531182 26.398057695407584 a47.68318880843472,47.68318880843472 0 0,0 -0.8130469806352657,0.11268090301508776 l -3.4354119277090853 -26.46111316391527" fill="red" stroke="none" /><path d="M 102.70371172650421 120.8252237178851 l 3.6626135663870776 28.21112405011909 a49.447886710753934,49.447886710753934 0 0,0 -0.8450233585024605,0.10232056060307422 l -3.176462784833237 -28.269990139447515" fill="red" stroke="none" /><path d="M 101.62511606390274 120.93702456842531 l 3.194648535022715 41.157943331521864 a62.28174025574852,62.28174025574852 0 0,0 -1.0695768980817573,0.07376428507462814 l -2.485708876162027 -41.20683596111277" fill="red" stroke="none" /><line stroke="#e1ed5e" stroke-width="0.3" x1="102.19456741930631" x2="102.32365962044197" y1="184.97166512339345" y2="189.96999836594603" /><path d="M 102.22038585953345 185.97133177190398 a86.0,86.0 0 0,1 -42.740103519485714,-10.115201625700543" fill="none" id="id127" stroke="none" /><text fill="#e1ed5e" style="font-size:6.75px; font-family:Arial;" text-anchor="middle"><textPath startOffset="22.20632615414155" xlink:href="#id127">July</textPath></text><path d="M 100.54218724476979 120.99299961872073 l 0.8458959750722088 32.75232690084409 a53.76324857855824,53.76324857855824 0 0,0 -0.9253431066005557,0.0159306207536317 l -0.28199317857898515 -32.76203499887688" fill="red" stroke="none" /><path d="M 100.18074693466247 120.99922214144158 l 0.2789899404880353 32.41311807846953 a53.41431873348107,53.41431873348107 0 0,0 -0.9194737503009592,0.0 l 0.278989940488013 -32.41311807846953" fill="red" stroke="none" /><path d="M 99.09653310690486 120.98055641714683 l -1.0541057729520686 24.47873387291039 a45.501419367076295,45.501419367076295 0 0,0 -0.7822169188398141,-0.04043167990398728 l 1.4753107602053719 -24.4569623862442" fill="red" stroke="none" /><path d="M 98.73552117531835 120.96189622390904 l -1.9380499778192772 32.1280212201457 a53.18642237401755,53.18642237401755 0 0,0 -0.9133811680481636,-0.06299211303323368 l 2.490793906646371 -32.08990076259618" fill="red" stroke="none" /><path d="M 98.37488393609728 120.93702456842531 l -1.2549149424721824 16.16757446771318 a37.21620410829523,37.21620410829523 0 0,0 -0.6382679705568146,-0.055072446191197756 l 1.5330272307705388 -16.14357776924332" fill="red" stroke="none" /><path d="M 98.01472825383883 120.90594882070398 l -1.677357703154766 17.663453058239504 a38.742916975654346,38.742916975654346 0 0,0 -0.6633661931838625,-0.06876061826422218 l 1.9811564929442218 -17.63196307151952" fill="red" stroke="none" /><path d="M 97.65516085044442 120.86867818915974 l -2.397180955367775 21.334511549857915 a42.46876474331485,42.46876474331485 0 0,0 -0.725755954440843,-0.08787893893372874 l 2.7640643328600074 -21.290087082198838" fill="red" stroke="none" /><path d="M 96.93821686468263 120.77559828337769 l -3.297209529805928 22.37307399639597 a43.614730392636844,43.614730392636844 0 0,0 -0.7417913102206428,-0.11585254694766255 l 3.681836703635088 -22.313003142101202" fill="red" stroke="none" /><path d="M 96.58105272829116 120.7198165907248 l -3.663281485256609 22.200553112589407 a43.50075975928651,43.50075975928651 0 0,0 -0.7377543014293881,-0.12826804189101113 l 4.044884758158047 -22.13420649217739" fill="red" stroke="none" /><path d="M 96.22490169976321 120.6578951692458 l -4.369744012097752 23.91188428462716 a45.307876763976395,45.307876763976395 0 0,0 -0.7659887412479147,-0.14680356532872835 l 4.780700367917362 -23.833123520949965" fill="red" stroke="none" /><path d="M 95.86986931433489 120.58985236759428 l -4.795096491229675 23.90489220727628 a45.381075074772674,45.381075074772674 0 0,0 -0.7645815167127906,-0.1602254907140108 l 5.2058694693718515 -23.81881073583573" fill="red" stroke="none" /><path d="M 95.16358092515715 120.4354850818985 l -5.561516311290287 23.49926295743938 a45.148412436920786,45.148412436920786 0 0,0 -0.7547238992876106,-0.1854927721036536 l 5.965193495321109 -23.400048927021697" fill="red" stroke="none" /><path d="M 94.81253420990036 120.34920634021253 l -5.576186367524557 21.874065598812916 a43.57362620906392,43.57362620906392 0 0,0 -0.7252094667346484,-0.19153441149089434 l 5.951886277070695 -21.77483983801844" fill="red" stroke="none" /><path d="M 94.46302465271185 120.25689768951611 l -9.943597391400901 36.378423668077225 a58.71292666522178,58.71292666522178 0 0,0 -0.9725903436281031,-0.2748637460516599 l 10.568318903133619 -36.201871128687046" fill="red" stroke="none" /><path d="M 94.11515582081647 120.15858648285463 l -6.264124123707221 21.457813332384195 a43.35345619909046,43.35345619909046 0 0,0 -0.7145579111911365,-0.2152904370339639 l 6.632557009338604 -21.346807526244504" fill="red" stroke="none" /><path d="M 93.42475214034765 119.94407469862007 l -8.02890202628986 24.353305788337746 a46.64267479355549,46.64267479355549 0 0,0 -0.7603428246952371,-0.25794956826694004 l 8.446914583922323 -24.211493233172682" fill="red" stroke="none" /><path d="M 93.08242187328487 119.8279376855182 l -7.457505073541404 21.375536810573134 a43.639080278625784,43.639080278625784 0 0,0 -0.7071202576631149,-0.25354816626427695 l 7.8243448918342455 -21.2440011032689" fill="red" stroke="none" /><path d="M 92.7421414339146 119.70592522655815 l -7.174915156579216 19.48072427907727 a41.760010258705094,41.760010258705094 0 0,0 -0.6723953833249654,-0.2542423993876379 l 7.509180760664464 -19.354333629583" fill="red" stroke="none" /><path d="M 91.7346041902142 119.30500536409082 l -12.161986120140295 28.40604523855116 a51.90011832471035,51.90011832471035 0 0,0 -0.8182407695299236,-0.3586927074822678 l 12.649147564327961 -28.19248797777444" fill="red" stroke="none" /><path d="M 91.40352486487194 119.15986991738527 l -9.859522013504318 21.974955578525655 a45.085448864676614,45.085448864676614 0 0,0 -0.70533394653513,-0.32378422040881716 l 10.236323955806869 -21.801984287782762" fill="red" stroke="none" /><line stroke="#e1ed5e" stroke-width="0.3" x1="58.666819895761336" x2="56.23545636021788" y1="174.27360380694188" y2="178.64263932499728" /><path d="M 58.180547188652646 175.14741091055294 a86.0,86.0 0 0,1 -31.652253787137756,-30.449443065178592" fill="none" id="id128" stroke="none" /><text fill="#e1ed5e" style="font-size:6.75px; font-family:Arial;" text-anchor="middle"><textPath startOffset="22.20632615414155" xlink:href="#id128">August</textPath></text><path d="M 87.65650970185807 116.9893568818739 l -12.212857868592348 16.809556767614623 a41.77775483641331,41.77775483641331 0 0,0 -0.5781544503633439,-0.4277048406579979 l 12.500397289374256 -16.59684197821686" fill="red" stroke="none" /><path d="M 87.36589467227662 116.77436683061367 l -14.667998842315438 19.474777744025076 a45.38067181636596,45.38067181636596 0 0,0 -0.6199243345609854,-0.47533154481162493 l 15.00105190536991 -19.219406857386083" fill="red" stroke="none" /><path d="M 87.07902340077011 116.55440617244103 l -15.939447335458604 20.4216827829517 a46.9058122638022,46.9058122638022 0 0,0 -0.6322066052035937,-0.5022631625795877 l 16.288611433379558 -20.14428570636698" fill="red" stroke="none" /><path d="M 86.79598089348748 116.32954008644616 l -15.30523720756832 18.928137145021566 a45.34182946618185,45.34182946618185 0 0,0 -0.6026790014497134,-0.4959637880155849 l 15.62878633756272 -18.6618782381488" fill="red" stroke="none" /><path d="M 86.24171649860922 115.8653595955263 l -12.604169303196986 14.534493229326175 a40.23841410451968,40.23841410451968 0 0,0 -0.5193776119019752,-0.4582903555040303 l 12.85248926800555 -14.315379732049855" fill="red" stroke="none" /><path d="M 85.97065885151581 115.62618273729859 l -19.634762577847074 21.869622015575576 a50.39054726595903,50.39054726595903 0 0,0 -0.6404409413283915,-0.5850276151953261 l 20.00830306864232 -21.528401633793674" fill="red" stroke="none" /><path d="M 85.70375840098266 115.38237550388516 l -17.247478937306575 18.557828340508458 a46.33512428247813,46.33512428247813 0 0,0 -0.5795512741930912,-0.5480019035161964 l 17.56436604589048 -18.25819180024633" fill="red" stroke="none" /><path d="M 85.44109423537348 115.13401014063109 l -21.991029822874655 22.859717187739033 a52.72021536140595,52.72021536140595 0 0,0 -0.6485842928275053,-0.6347762394300693 l 22.381264068077954 -22.477790845386394" fill="red" stroke="none" /><path d="M 84.9287848128048 114.62390073753433 l -18.10099033440028 17.563752000982536 a46.22164220343454,46.22164220343454 0 0,0 -0.5491427102029908,-0.5757739362042116 l 18.400639595982227 -17.249570948195824" fill="red" stroke="none" /><path d="M 84.67929136418377 114.36230785411682 l -18.741820473675812 17.569408947589512 a46.68929670962466,46.68929670962466 0 0,0 -0.5446052827226548,-0.5910614735457832 l 19.041472164394197 -17.244196219242383" fill="red" stroke="none" /><path d="M 84.43433777217949 114.09645910891817 l -19.03130712517495 17.234990632123928 a46.675582816795696,46.675582816795696 0 0,0 -0.5341934889296635,-0.6001720477587767 l 19.325159463752954 -16.90484441462429" fill="red" stroke="none" /><path d="M 83.95833913139862 113.55231037782056 l -20.801931479775273 17.573880546487935 a48.23162923424694,48.23162923424694 0 0,0 -0.530327434373308,-0.6388135582175529 l 21.101354914042115 -17.21320573115662" fill="red" stroke="none" /><path d="M 83.72743513129214 113.27417163493432 l -21.14059135342529 17.245212439067647 a48.28226447421646,48.28226447421646 0 0,0 -0.5197978649071557,-0.6485277590471271 l 21.434307130387307 -16.87875684644226" fill="red" stroke="none" /><path d="M 83.50135304334701 112.99209946851258 l -21.378726481090414 16.83498905590241 a48.21151966476019,48.21151966476019 0 0,0 -0.5078123562572375,-0.6564159242569808 l 21.665345654565723 -16.464495137532175" fill="red" stroke="none" /><path d="M 83.28015986056508 112.70617746262583 l -33.419389548109756 25.39693506335503 a62.97451498684148,62.97451498684148 0 0,0 -0.6484537786307611,-0.8687098052779065 l 33.8516045934356 -24.817912378567815" fill="red" stroke="none" /><path d="M 82.85270091963577 112.12312394758628 l -20.525871239269296 14.511771212459223 a46.137678768212126,46.137678768212126 0 0,0 -0.4528942498535298,-0.652427945363302 l 20.77262639628496 -14.156302004908909" fill="red" stroke="none" /><path d="M 82.6465618267979 111.8261652097733 l -20.859095415462054 14.215229630438154 a46.24231794026525,46.24231794026525 0 0,0 -0.4425982049810946,-0.6616242639336966 l 21.10069672585388 -13.854068452298637" fill="red" stroke="none" /><path d="M 82.44556493220864 111.52570212397912 l -20.985281640508287 13.778290457212504 a46.10424931071964,46.10424931071964 0 0,0 -0.42985656155671903,-0.667146929398293 l 21.219343065442054 -13.415021927892765" fill="red" stroke="none" /><path d="M 82.24976979558568 111.22182372390057 l -23.54685738493576 14.886493289527117 a48.85789251120119,48.85789251120119 0 0,0 -0.4432931502231428,-0.7147297057715519 l 23.799615174826858 -14.4789672523903" fill="red" stroke="none" /><path d="M 82.05923443525364 110.91462005526583 l -21.367753622133144 12.999496112829933 a46.011353302923546,46.011353302923546 0 0,0 -0.4058182174622269,-0.6801746750869501 l 21.588352715293603 -12.62975934385687" fill="red" stroke="none" /><line stroke="#e1ed5e" stroke-width="0.3" x1="26.63291911575756" x2="22.317208475507996" y1="142.92168965132927" y2="145.44649492493687" /><path d="M 25.769776987707644 143.4266507060508 a86.0,86.0 0 0,1 -11.730757126820373,-40.83630448921669" fill="none" id="id129" stroke="none" /><text fill="#e1ed5e" style="font-size:6.75px; font-family:Arial;" text-anchor="middle"><textPath startOffset="21.46611528233685" xlink:href="#id129">September</textPath></text><path d="M 81.69416730710424 110.29060199501025 l -23.295698827921846 13.095649285968026 a47.72425142267439,47.72425142267439 0 0,0 -0.3963921566372113,-0.7195669041815892 l 23.517667394010576 -12.692711863388615" fill="red" stroke="none" /><path d="M 81.51974371655577 109.97397251340807 l -21.95911912227497 11.851548332716334 a45.95319840238869,45.95319840238869 0 0,0 -0.36969893376798774,-0.6993310580081734 l 22.159870564267845 -11.471802259622033" fill="red" stroke="none" /><path d="M 81.35079622478065 109.6543875284942 l -27.490641060760005 14.231454887096923 a51.95593083942104,51.95593083942104 0 0,0 -0.4043193966795674,-0.7977605274398999 l 27.73153912722584 -13.756140147954339" fill="red" stroke="none" /><path d="M 81.18737489456691 109.33194174019688 l -22.488840907253934 11.15551667961752 a46.10365546570863,46.10365546570863 0 0,0 -0.3465386606390057,-0.7139722822771385 l 22.677532824507658 -10.766755441375096" fill="red" stroke="none" /><path d="M 80.87730276802145 108.67885076344099 l -22.800413492732073 10.347985101037661 a46.038762970459544,46.038762970459544 0 0,0 -0.32130434101258426,-0.724456467114611 l 22.975158918475934 -9.953980297430354" fill="red" stroke="none" /><path d="M 80.73074385275274 108.34839909993369 l -23.04429551939164 9.983933707797966 a46.1141093464761,46.1141093464761 0 0,0 -0.3092917645067544,-0.7310743679837226 l 23.2127382650907 -9.585784814148086" fill="red" stroke="none" /><path d="M 80.45479744820244 107.68017299344265 l -23.418880184374817 9.202311956197303 a46.16200497633834,46.16200497633834 0 0,0 -0.28423863375587843,-0.7420573803686816 l 23.573813097724205 -8.797831008995463" fill="red" stroke="none" /><path d="M 80.32549172779594 107.34259656027581 l -23.63131461627351 8.819290780516525 a46.223380430953455,46.223380430953455 0 0,0 -0.27178409797850606,-0.7478331110114653 l 23.77962297525724 -8.411209872498944" fill="red" stroke="none" /><path d="M 80.20201598880116 107.00284435728193 l -23.22116732626271 8.21367572012558 a45.63101867218795,45.63101867218795 0 0,0 -0.25555362805952625,-0.7427584651426585 l 23.359111785265465 -7.8127445518936245" fill="red" stroke="none" /><path d="M 79.97269907076064 106.31721596034903 l -23.09222093509955 7.283984355482362 a45.213779048433594,45.213779048433594 0 0,0 -0.22773368272131062,-0.7442468517159444 l 23.214181390326992 -6.88541053121437" fill="red" stroke="none" /><path d="M 79.86692584326677 105.97154293290107 l -24.168271649735882 7.168397168106954 a46.20895222922109,46.20895222922109 0 0,0 -0.21961874639307333,-0.7645216674670525 l 24.28808303301506 -6.751318025135305" fill="red" stroke="none" /><path d="M 79.76711848015287 105.62410040840567 l -23.66097802534783 6.57700268966147 a45.55807088302758,45.55807088302758 0 0,0 -0.20351858417593294,-0.7573683624903053 l 23.77068468586554 -6.1687433939956255" fill="red" stroke="none" /><path d="M 79.58551787078972 104.9243191809786 l -23.690601051669407 5.714574605873699 a45.37008291154251,45.37008291154251 0 0,0 -0.17659642385110833,-0.7607727719927606 l 23.785458041451072 -5.305933176532363" fill="red" stroke="none" /><path d="M 79.50377843672027 104.57218783832718 l -23.826300472218026 5.315044088251572 a45.41192921201589,45.41192921201589 0 0,0 -0.16362558462880153,-0.7644042576237636 l 23.914260095571265 -4.904126011211645" fill="red" stroke="none" /><path d="M 79.4281124754447 104.21870165774334 l -23.73096034416879 4.8665365112601915 a45.22481489035448,45.22481489035448 0 0,0 -0.14982349538500186,-0.7639467751545718 l 23.81121377252946 -4.457326009037665" fill="red" stroke="none" /><path d="M 79.35854240842038 103.8639653848113 l -21.510128124383638 4.026575648871791 a42.88375935216541,42.88375935216541 0 0,0 -0.12957748079833253,-0.7267393262621361 l 21.57625204752116 -3.655717571876442" fill="red" stroke="none" /><path d="M 79.23777060512086 103.15116336523772 l -26.422323897373246 4.010217665275557 a47.72491432840505,47.72491432840505 0 0,0 -0.11628050151258836,-0.8132655567508194 l 26.487438449902434 -3.554806636544337" fill="red" stroke="none" /><path d="M 79.18660465613746 102.79330883721812 l -24.28062824289122 3.2586366771760638 a45.49831873544231,45.49831873544231 0 0,0 -0.09749312737622655,-0.7771161495321771 l 24.333122879514292 -2.8402027733564776" fill="red" stroke="none" /><path d="M 79.1416061653843 102.43462659150553 l -24.92320495195501 2.909078139126526 a46.09240683347651,46.09240683347651 0 0,0 -0.0852000548358451,-0.7888466928159268 l 24.96958730829191 -2.479635124425817" fill="red" stroke="none" /><path d="M 79.10278846688536 102.07522291339032 l -24.61327941518985 2.444251537346962 a45.734346345679555,45.734346345679555 0 0,0 -0.07105245302532665,-0.7840578984290719 l 24.651706464492253 -2.020212250369324" fill="red" stroke="none" /><path d="M 79.04373962182676 101.35467743843564 l -24.639396504966555 1.5927667408023392 a45.69082351845649,45.69082351845649 0 0,0 -0.04397991782199033,-0.7852909767493773 l 24.663162773676074 -1.1684040477175244" fill="red" stroke="none" /><path d="M 79.0235259727143 100.99374915477108 l -24.4248162988319 1.1571125118945367 a45.45220972830201,45.45220972830201 0 0,0 -0.030296856828387012,-0.7818272536835452 l 24.441115288511487 -0.7365080111969947" fill="red" stroke="none" /><path d="M 79.0095281055655 100.63252640178507 l -24.712425615540287 0.744683670409695 a45.723643209943525,45.723643209943525 0 0,0 -0.016935030033334533,-0.7869043007262911 l 24.721582708258627 -0.31918955389327486" fill="red" stroke="none" /><line stroke="#e1ed5e" stroke-width="0.3" x1="15.007084014347285" x2="10.007500721073583" y1="101.09737516637583" y2="101.16192664675087" /><path d="M 14.007167355692545 101.11028546245083 a86.0,86.0 0 0,1 10.666146001902534,-42.60595125391555" fill="none" id="id130" stroke="none" /><text fill="#e1ed5e" style="font-size:6.75px; font-family:Arial;" text-anchor="middle"><textPath startOffset="22.20632615414155" xlink:href="#id130">October</textPath></text><path d="M 79.00019446554 99.90962569577889 l -24.892040878990425 -0.10712484319871061 a45.892271387990306,45.892271387990306 0 0,0 0.010198995424743668,-0.7899234353336816 l 24.886508876447966 0.5355845365928642" fill="red" stroke="none" /><path d="M 79.00486145842228 99.54816195383935 l -36.627869222149506 -0.7882712863070307 a57.63635046474612,57.63635046474612 0 0,0 0.02988391401531807,-0.9917016198280034 l 36.60887361367855 1.4186430535600285" fill="red" stroke="none" /><path d="M 79.01574976396665 99.18683210126434 l -38.6644127427957 -1.4982979573851305 a59.6934323821804,59.6934323821804 0 0,0 0.04862567810555841,-1.0264112114645596 l 38.632893456456635 2.163620275472699" fill="red" stroke="none" /><path d="M 79.03285615573316 98.82574320788736 l -24.71699231004007 -1.3842656070009631 a45.75572459301698,45.75572459301698 0 0,0 0.05080935503209492,-0.7859982335936393 l 24.689502364003562 1.8095229048476142" fill="red" stroke="none" /><path d="M 79.05617556472873 98.46500227214037 l -54.841753403553554 -4.019417137804262 a75.98885005620551,75.98885005620551 0 0,0 0.1068385724701098,-1.303701196315989 l 54.76444034726394 4.962832251328029" fill="red" stroke="none" /><path d="M 79.16333360222342 97.38593545837743 l -20.98724647813813 -2.6329555696417954 a42.151760441292566,42.151760441292566 0 0,0 0.09651548994157491,-0.7191525055142669 l 20.93881498913872 2.993826417220722" fill="red" stroke="none" /><path d="M 79.21141760316559 97.0276538004421 l -24.094007753541458 -3.4449550725143676 a45.33904117009046,45.33904117009046 0 0,0 0.11711313240905956,-0.7716292170229434 l 24.031138727693097 3.859183401929403" fill="red" stroke="none" /><path d="M 79.26566170972629 96.67025291283419 l -24.309533317881446 -3.9038910536897307 a45.621002731250954,45.621002731250954 0 0,0 0.13118892526290793,-0.7742844630809651 l 24.238732531098318 4.321761305086524" fill="red" stroke="none" /><path d="M 79.46518482838121 95.60439243477599 l -23.931931308657692 -5.122781843011071 a45.47407260701402,45.47407260701402 0 0,0 0.1704316552404233,-0.7640116921535594 l 23.84020526641523 5.53397170471459" fill="red" stroke="none" /><path d="M 79.54389044137918 95.25157060432595 l -24.058403102048974 -5.584621463595993 a45.69807192297279,45.69807192297279 0 0,0 0.18446179001858506,-0.764713207543986 l 23.958708511769572 5.997919902799376" fill="red" stroke="none" /><path d="M 79.62865764111835 94.90015583598534 l -24.16972541907021 -6.0507467280643485 a45.91560079148063,45.91560079148063 0 0,0 0.19853833220214573,-0.7650491828576423 l 24.06199075499776 6.465892336470855" fill="red" stroke="none" /><path d="M 80.02781315780177 93.51064311812611 l -23.445911659362302 -7.61803849426355 a45.652490422647006,45.652490422647006 0 0,0 0.24926848085328324,-0.7452810302602132 l 23.311305884737244 8.020492627446085" fill="red" stroke="none" /><path d="M 80.14247586403 93.16781622104843 l -23.616920855772282 -8.125642576322546 a45.97568853877621,45.97568853877621 0 0,0 0.2639156005236772,-0.7461249419374184 l 23.473552174438794 8.530965144686576" fill="red" stroke="none" /><path d="M 80.2630227832202 92.82701384747504 l -23.393454672865737 -8.501855404966811 a45.890465380510406,45.890465380510406 0 0,0 0.276206869315306,-0.7400970883492797 l 23.243643215048802 8.903275630345432" fill="red" stroke="none" /><path d="M 80.52162464483688 92.15188598940014 l -8.696492681897391 -3.503940385961744 a30.375851065085698,30.375851065085698 0 0,0 0.19958136615983607,-0.48330210880800006 l 8.634889628851354 3.6531170652230553" fill="red" stroke="none" /><path d="M 80.65960295795068 91.81776055985345 l -22.74478942805292 -9.622517713127724 a45.69652391058152,45.69652391058152 0 0,0 0.31271500065936364,-0.7217893366932766 l 22.575783717550873 10.012606194407601" fill="red" stroke="none" /><path d="M 80.803312248108 91.48605970444005 l -22.454551736839232 -9.958838489320577 a45.56390355295271,45.56390355295271 0 0,0 0.3241496009960212,-0.7142206781368857 l 22.27979981887986 10.343881176299535" fill="red" stroke="none" /><path d="M 81.10775173730289 90.83032412892265 l -22.039301811629958 -10.6971521455458 a45.49816091809895,45.49816091809895 0 0,0 0.34803923716795027,-0.7016258644884585 l 21.85190256150859 11.07493759853322" fill="red" stroke="none" /><path d="M 81.26839172434947 90.50648371742162 l -21.87873730812921 -11.088537931202618 a45.52824534388557,45.52824534388557 0 0,0 0.3603030905202735,-0.6959908887148162 l 21.684624784448822 11.46350154217777" fill="red" stroke="none" /><path d="M 81.6062741919709 89.86733742301443 l -23.091328752651673 -12.72045941897919 a47.36322346362323,47.36322346362323 0 0,0 0.39952538668285287,-0.7107110826681622 l 22.86894572467639 13.116054011582136" fill="red" stroke="none" /><line stroke="#e1ed5e" stroke-width="0.3" x1="26.266209847984243" x2="21.928928074336255" y1="57.711370442889674" y2="55.22380399835377" /><path d="M 25.398753493254645 57.213857153982495 a86.0,86.0 0 0,1 29.58750427330803,-30.492523968695096" fill="none" id="id131" stroke="none" /><text fill="#e1ed5e" style="font-size:6.75px; font-family:Arial;" text-anchor="middle"><textPath startOffset="21.46611528233685" xlink:href="#id131">November</textPath></text><path d="M 81.96595687620814 89.24020034530311 l -19.575438647862555 -11.67945515922249 a43.79490011104501,43.79490011104501 0 0,0 0.3918271355475505,-0.6440607868317987 l 19.37149571402879 12.014683719261363" fill="red" stroke="none" /><path d="M 82.15384107792192 88.93136811851018 l -20.878475810136703 -12.94935027744801 a45.56819946114298,45.56819946114298 0 0,0 0.41916755355487706,-0.6630224064180978 l 20.65248066033586 13.306820331580322" fill="red" stroke="none" /><path d="M 82.34701348167596 88.62581576622439 l -20.707572534997286 -13.342317165588135 a45.63373677782812,45.63373677782812 0 0,0 0.43113747228152943,-0.6566519489265543 l 20.474838427357835 13.696787178492357" fill="red" stroke="none" /><path d="M 82.54541684631803 88.32363383020206 l -20.525261254123713 -13.730517883113079 a45.6944016102541,45.6944016102541 0 0,0 0.4429648677978404,-0.6499962844995524 l 20.28587192065713 14.081792190883046" fill="red" stroke="none" /><path d="M 83.39014120810768 87.1503855733568 l -15.398004246331293 -11.912107139751932 a40.467840950628435,40.467840950628435 0 0,0 0.43097464265620217,-0.5472940300131811 l 15.19067552308112 12.17539356371816" fill="red" stroke="none" /><path d="M 83.6137871275137 86.86637796730984 l -17.263935062474904 -13.83712024687309 a43.12485820446711,43.12485820446711 0 0,0 0.4692426251767852,-0.5752359745941911 l 17.023193945221728 14.132240391075364" fill="red" stroke="none" /><path d="M 84.07557802195018 86.31012108654704 l -17.365178200025255 -14.928465673451846 a43.89996727687755,43.89996727687755 0 0,0 0.4975499714553941,-0.5687856275827726 l 17.105636364992016 15.225166857237562" fill="red" stroke="none" /><path d="M 84.5562425177563 85.77008943001954 l -17.05338538452295 -15.713025098728638 a44.188728098503745,44.188728098503745 0 0,0 0.5202332184053544,-0.5549485251826516 l 16.78038484414714 16.00424304078934" fill="red" stroke="none" /><path d="M 85.83668400450813 84.49514656593479 l -11.838941612656242 -12.960316254831671 a38.55364167154889,38.55364167154889 0 0,0 0.49383361894327327,-0.4433686990110998 l 11.614097006116998 13.16218396261205" fill="red" stroke="none" /><path d="M 86.37877921826538 84.01681056812374 l -14.112396813470372 -16.55953715323153 a42.7572519990486,42.7572519990486 0 0,0 0.5642785777083967,-0.47256708104763245 l 13.825260698802866 16.800005391672975" fill="red" stroke="none" /><path d="M 87.80319425747018 82.90503203632743 l -10.74178221193884 -15.0556159261871 a39.49479537614797,39.49479537614797 0 0,0 0.5568180504472692,-0.39008662823569734 l 10.48103302190791 15.23828739718674" fill="red" stroke="none" /><line stroke="#e1ed5e" stroke-width="0.3" x1="56.762969772571076" x2="54.21961505331055" y1="26.818313649435495" y2="22.513508569990535" /><path d="M 56.25429882871897 25.957352633546506 a86.0,86.0 0 0,1 42.265352541879196,-11.944610805530505" fill="none" id="id132" stroke="none" /><text fill="#e1ed5e" style="font-size:6.75px; font-family:Arial;" text-anchor="middle"><textPath startOffset="22.20632615414155" xlink:href="#id132">December</textPath></text><path d="M 89.63071344664047 81.73862282372117 l -10.947919477881305 -19.28040910551817 a43.171854143718356,43.171854143718356 0 0,0 0.6493785120998009,-0.36137843891634425 l 10.614416876709459 19.4660029419947" fill="red" stroke="none" /><path d="M 89.94658935756843 81.56283822128135 l -11.788077394972865 -21.618403716035246 a45.62344711650578,45.62344711650578 0 0,0 0.6927267670262749,-0.3700306482982548 l 11.414205581418285 21.81811309083525" fill="red" stroke="none" /><path d="M 91.56875222667455 80.76684994638697 l -7.466380750939705 -17.0321197052891 a39.59677238590881,39.59677238590881 0 0,0 0.6266024096627478,-0.26827845077224854 l 7.17209458348665 17.158117684024138" fill="red" stroke="none" /><path d="M 92.23578459929587 80.48803036053334 l -7.642503596400576 -19.206100094667526 a41.67080409822955,41.67080409822955 0 0,0 0.6687505956716114,-0.2594648414567154 l 7.310769835729288 19.334807640014795" fill="red" stroke="none" /><path d="M 93.59665428221793 80.00007090966166 l -6.703723789490138 -20.93811678146532 a42.98510056834073,42.98510056834073 0 0,0 0.7066231176995994,-0.21955124233434828 l 6.342315299079811 21.050408158682195" fill="red" stroke="none" /><path d="M 94.28887869178378 79.79150937346287 l -5.940323133487312 -21.01950875898554 a42.842783416939206,42.842783416939206 0 0,0 0.7113985242389333,-0.19445208990944188 l 5.577626720024656 21.11864738972128" fill="red" stroke="none" /><path d="M 94.98787191387505 79.60689891045804 l -6.828906326092034 -27.785119343722954 a49.61200479790725,49.61200479790725 0 0,0 0.8310632442954706,-0.1966858193482143 l 6.349619394834029 27.89855107521204" fill="red" stroke="none" /><path d="M 96.40284397218896 79.31037775812273 l -10.791468083433102 -62.06886672563182 a84.0,84.0 0 0,0 1.4266831754444573,-0.235414948241492 l 9.72145570184976 62.24542793681294" fill="red" stroke="none" /><path d="M 97.47563105711357 79.15227682838746 l -1.844382859428305 -15.23199823234334 a36.34325644321516,36.34325644321516 0 0,0 0.6217003722518031,-0.06985528067161466 l 1.5819157836667839 15.261489466485552" fill="red" stroke="none" /><path d="M 98.19473922651362 79.07773832637324 l -3.145677326758693 -36.457161833820024 a57.59262131661829,57.59262131661829 0 0,0 0.9884259877547236,-0.0767208800576943 l 2.5176611496416355 36.50590797606618" fill="red" stroke="none" /><path d="M 99.27714615592234 79.0124445844662 l -0.6046386940107276 -17.555261275698154 a38.56567067914921,38.56567067914921 0 0,0 0.6636479132995402,-0.01714006764846694 l 0.3023641455163083 17.56306813548898" fill="red" stroke="none" /></svg>