<?xml version="1.0" encoding="utf-8" ?>
<svg baseProfile="full" height="200mm" version="1.1" viewBox="0,0,200,200" width="200mm" xmlns="http://www.w3.org/2000/svg" xmlns:ev="http://www.w3.org/2001/xml-events" xmlns:xlink="http://www.w3.org/1999/xlink"><defs /><rect fill="#1a1a1a" height="200" width="200" x="0" y="0" /><text alignment-baseline="middle" fill="#e1ed5e" style="dominant-baseline: central; font-size:9.0px; font-family:Arial;" text-anchor="middle" x="100.0" y="100.0">2017</text><line stroke="#e1ed5e" stroke-width="0.3" x1="100.0" x2="100.0" y1="15.0" y2="10.0" /><path d="M 100.0 14.0 a86.0,86.0 0 0,1 42.46469731375804,11.215312516191453" fill="none" id="id25" stroke="none" /><text fill="#e1ed5e" style="font-size:6.75px; font-family:Arial;" text-anchor="middle"><textPath startOffset="22.20632615414155" xlink:href="#id25">January</textPath></text><path d="M 104.66035177308747 79.52364482259891 l 1.3347664206239915 -5.864611222139214 a27.0145877817575,27.0145877817575 0 0,0 0.4525281946711387,0.10709880307907882 l -1.4355183022576539 5.840766506919267" fill="#ff3b05" stroke="none" /><line stroke="#e1ed5e" stroke-width="0.3" x1="143.23703022742887" x2="145.7803849466894" y1="26.81831364943548" y2="22.513508569990506" /><path d="M 143.74570117128098 25.957352633546492 a86.0,86.0 0 0,1 28.547481713284135,27.462654790039103" fill="none" id="id26" stroke="none" /><text fill="#e1ed5e" style="font-size:6.75px; font-family:Arial;" text-anchor="middle"><textPath startOffset="19.985693538727396" xlink:href="#id26">February</textPath></text><path d="M 113.6212207817346 84.01681056812373 l 1.2794966043101896 -1.5013659151281968 a22.97261531261167,22.97261531261167 0 0,0 0.2987601763417405,0.25908188089189266 l -1.3051505792986942 1.4791190408166328" fill="#ff0000" stroke="none" /><path d="M 115.4437574822437 85.77008943001954 l 3.2786834085167134 -3.0209857765581405 a25.458264231228267,25.458264231228267 0 0,0 0.2941718911707072,0.32483194960537864 l -3.330198940303456 2.964101039683213" fill="#ff2503" stroke="none" /><path d="M 117.04232023915458 87.72973835380427 l 4.06903298692454 -2.929653867309458 a26.013970605310856,26.013970605310856 0 0,0 0.25851368448195816,0.3656492735159746 l -4.118859291210382 2.8591780934616904" fill="#ff2d04" stroke="none" /><line stroke="#e1ed5e" stroke-width="0.3" x1="172.23445277983987" x2="176.4835382374775" y1="55.19839476539836" y2="52.563006222186495" /><path d="M 173.08426987136738 54.67131705675599 a86.0,86.0 0 0,1 12.851231095245387,41.99856678651699" fill="none" id="id27" stroke="none" /><text fill="#e1ed5e" style="font-size:6.75px; font-family:Arial;" text-anchor="middle"><textPath startOffset="22.20632615414155" xlink:href="#id27">March</textPath></text><path d="M 118.73160827565052 90.50648371742162 l 2.3755248906557163 -1.203958779045474 a23.66320018920199,23.66320018920199 0 0,0 0.18101219866068183,0.3649095469858524 l -2.395897102269806 1.1628896435606717" fill="#ff0a01" stroke="none" /><path d="M 120.28053869075195 94.5502522615342 l 4.7211137348349235 -1.268648692807601 a25.88859738606171,25.88859738606171 0 0,0 0.11194188597082366,0.4313577506147467 l -4.74225195267605 1.1871945166440039" fill="#ff2b04" stroke="none" /><path d="M 120.83666639777658 97.38593545837742 l 62.50999919332973 -7.84219362486773 a84.0,84.0 0 0,0 0.16763858798564435,1.436225046700589 l -62.63572813431897 6.7650248398422885" fill="#4dd2ff" stroke="none" /><line stroke="#e1ed5e" stroke-width="0.3" x1="184.98032266829074" x2="189.97916517819016" y1="98.17113171792111" y2="98.06355123074" /><path d="M 185.9800911702706 98.14961562048488 a86.0,86.0 0 0,1 -9.607161424134198,41.387399972396054" fill="none" id="id28" stroke="none" /><text fill="#e1ed5e" style="font-size:6.75px; font-family:Arial;" text-anchor="middle"><textPath startOffset="21.466115282336823" xlink:href="#id28">April</textPath></text><path d="M 120.99513854157772 99.54816195383933 l 4.135856626259463 -0.08900809935161764 a25.13681429057729,25.13681429057729 0 0,0 0.005586349208449058,0.4326689025672049 l -4.136775982585628 0.017802938723950022" fill="#ff2003" stroke="none" /><path d="M 120.49622156327973 104.57218783832717 l 4.282132791227993 0.9552353544631413 a25.387383710610045,25.387383710610045 0 0,0 -0.09881668461948413,0.4256996910678232 l -4.265055540677957 -1.0288037028795294" fill="#ff2303" stroke="none" /><path d="M 119.67450827220406 107.3425965602758 l 17.786563812876896 6.638008963917308 a39.98486279314624,39.98486279314624 0 0,0 -0.24620340422964582,0.6427593982084021 l -17.669666129053745 -6.9431919289588535" fill="#ffe915" stroke="none" /><path d="M 118.81262510543309 109.33194174019688 l 3.4899104863121067 1.7311587911971518 a24.895688124428133,24.895688124428133 0 0,0 -0.19373745094667763,0.3822623705945286 l -3.4595943655791603 -1.7909753734943745" fill="#ff1c02" stroke="none" /><path d="M 118.64920377521936 109.65438752849418 l 2.8748884720064956 1.4882827033522907 a24.237278043599815,24.237278043599815 0 0,0 -0.19499177775819332,0.3688509589484293 l -2.8488441860234093 -1.5375486773868543" fill="#ff1302" stroke="none" /><line stroke="#e1ed5e" stroke-width="0.3" x1="174.80103733775053" x2="179.2010983576182" y1="140.37084112569926" y2="142.7455964860345" /><path d="M 175.68104954172406 140.8457921977663 a86.0,86.0 0 0,1 -30.038265399797805,32.042727171017184" fill="none" id="id29" stroke="none" /><text fill="#e1ed5e" style="font-size:6.75px; font-family:Arial;" text-anchor="middle"><textPath startOffset="22.206326154141568" xlink:href="#id29">May</textPath></text><path d="M 117.55443506779139 111.5257021239791 l 3.3627491532459697 2.2078776621577916 a25.022785805721185,25.022785805721185 0 0,0 -0.2395001067106022,0.3580201637311487 l -3.3242459411246466 -2.265434740094747" fill="#ff1e03" stroke="none" /><path d="M 117.35343817320211 111.8261652097733 l 2.6005648835665967 1.772254561017546 a24.14703415022577,24.14703415022577 0 0,0 -0.23703084354535514,0.3414606087227609 l -2.5696731328591054 -1.8167564319273266" fill="#ff1101" stroke="none" /><path d="M 116.0416608686014 113.55231037782055 l 3.197700316560193 2.70148007368124 a25.18608192741446,25.18608192741446 0 0,0 -0.28263280289329784,0.3287658018427746 l -3.1507250040961163 -2.7561229746855425" fill="#ff2103" stroke="none" /><path d="M 114.29624159901734 115.38237550388516 l 3.2955974527596603 3.545975155559837 a25.840960893715582,25.840960893715582 0 0,0 -0.32842686213056377,0.3000101516305284 l -3.2340710411622324 -3.6021780737769484" fill="#ff2a04" stroke="none" /><path d="M 114.0293411484842 115.62618273729858 l 30.19937283531829 33.636712763769424 a66.20432020503006,66.20432020503006 0 0,0 -0.8545327267711572,0.7540257765590699 l -29.615897755640542 -34.151561682100784" fill="#37ff74" stroke="none" /><path d="M 112.34349029814194 116.9893568818739 l 2.780406322668019 3.826900994084 a25.730309771849345,25.730309771849345 0 0,0 -0.3605584291351459,0.25724886576788225 l -2.7141205656839884 -3.874194121696102" fill="#ff2803" stroke="none" /><line stroke="#e1ed5e" stroke-width="0.3" x1="143.8653032363475" x2="146.44561519142675" y1="172.8068346515853" y2="177.08958963109032" /><path d="M 144.38136562736335 173.6633856474863 a86.0,86.0 0 0,1 -40.68145358897372,12.25698825130547" fill="none" id="id30" stroke="none" /><text fill="#e1ed5e" style="font-size:6.75px; font-family:Arial;" text-anchor="middle"><textPath startOffset="21.466115282336833" xlink:href="#id30">June</textPath></text><path d="M 110.21172684928248 118.3499491758327 l 2.421514581706684 4.351337453368874 a25.97974602791235,25.97974602791235 0 0,0 -0.3926370829859745,0.2140970435732001 l -2.3462546868520606 -4.392375148701844" fill="#ff2c04" stroke="none" /><path d="M 109.89434966115114 118.52300852407294 l 1.513889047720481 2.834120553221347 a24.213113654852517,24.213113654852517 0 0,0 -0.369318122943295,0.19320978687148802 l -1.4648800222506904 -2.859759759037552" fill="#ff1202" stroke="none" /><path d="M 105.53697534728816 120.25689768951611 l 1.2401053828288535 4.53689718457671 a25.70332833469461,25.70332833469461 0 0,0 -0.427788519263324,0.11298283604679131 l -1.161826420754032 -4.557571369927086" fill="#ff2803" stroke="none" /><line stroke="#e1ed5e" stroke-width="0.3" x1="102.19456741930631" x2="102.32365962044197" y1="184.97166512339345" y2="189.96999836594603" /><path d="M 102.22038585953345 185.97133177190398 a86.0,86.0 0 0,1 -42.740103519485714,-10.115201625700543" fill="none" id="id31" stroke="none" /><text fill="#e1ed5e" style="font-size:6.75px; font-family:Arial;" text-anchor="middle"><textPath startOffset="22.20632615414155" xlink:href="#id31">July</textPath></text><path d="M 98.01472825383883 120.90594882070398 l -0.2784401322861086 2.9321200820287316 a23.945311033270286,23.945311033270286 0 0,0 -0.40999777674783017,-0.04249794593967733 l 0.3288705056395321 -2.9268927676332934" fill="#ff0e01" stroke="none" /><line stroke="#e1ed5e" stroke-width="0.3" x1="58.666819895761336" x2="56.23545636021788" y1="174.27360380694188" y2="178.64263932499728" /><path d="M 58.180547188652646 175.14741091055294 a86.0,86.0 0 0,1 -31.652253787137756,-30.449443065178592" fill="none" id="id32" stroke="none" /><text fill="#e1ed5e" style="font-size:6.75px; font-family:Arial;" text-anchor="middle"><textPath startOffset="22.20632615414155" xlink:href="#id32">August</textPath></text><line stroke="#e1ed5e" stroke-width="0.3" x1="26.63291911575756" x2="22.317208475507996" y1="142.92168965132927" y2="145.44649492493687" /><path d="M 25.769776987707644 143.4266507060508 a86.0,86.0 0 0,1 -11.730757126820373,-40.83630448921669" fill="none" id="id33" stroke="none" /><text fill="#e1ed5e" style="font-size:6.75px; font-family:Arial;" text-anchor="middle"><textPath startOffset="21.46611528233685" xlink:href="#id33">September</textPath></text><path d="M 81.69416730710424 110.29060199501025 l -13.516207531470561 7.598119928316748 a36.50546008601053,36.50546008601053 0 0,0 -0.30321016299172887,-0.5504145191753569 l 13.644994103913806 -7.364334890743569" fill="#ffbd11" stroke="none" /><path d="M 79.50377843672027 104.57218783832718 l -3.159185770058148 0.704734319556448 a24.236835675609527,24.236835675609527 0 0,0 -0.08732873665108397,-0.4079707844004416 l 3.1708485454336723 -0.6502497157398427" fill="#ff1302" stroke="none" /><path d="M 79.0095281055655 100.63252640178507 l -2.4356092568224805 0.07339459384811749 a23.43671484140543,23.43671484140543 0 0,0 -0.008680442805038421,-0.40334606800507417 l 2.4365117623125263 -0.03145871005291447" fill="#ff0701" stroke="none" /><line stroke="#e1ed5e" stroke-width="0.3" x1="15.007084014347285" x2="10.007500721073583" y1="101.09737516637583" y2="101.16192664675087" /><path d="M 14.007167355692545 101.11028546245083 a86.0,86.0 0 0,1 10.666146001902534,-42.60595125391555" fill="none" id="id34" stroke="none" /><text fill="#e1ed5e" style="font-size:6.75px; font-family:Arial;" text-anchor="middle"><textPath startOffset="22.20632615414155" xlink:href="#id34">October</textPath></text><path d="M 81.10775173730289 90.83032412892265 l -23.326177664367602 -11.321759354377589 a46.928609667856826,46.928609667856826 0 0,0 0.3589814880551842,-0.7236847745719223 l 23.127836163359003 11.721603717448474" fill="#c1ff1e" stroke="none" /><path d="M 81.26839172434947 90.50648371742162 l -41.6753767559061 -21.121831184623296 a67.72225144766082,67.72225144766082 0 0,0 0.5359428264647639,-1.0352709535544575 l 41.305624496281226 21.836074860438092" fill="#38ff85" stroke="none" /><line stroke="#e1ed5e" stroke-width="0.3" x1="26.266209847984243" x2="21.928928074336255" y1="57.711370442889674" y2="55.22380399835377" /><path d="M 25.398753493254645 57.213857153982495 a86.0,86.0 0 0,1 29.58750427330803,-30.492523968695096" fill="none" id="id35" stroke="none" /><text fill="#e1ed5e" style="font-size:6.75px; font-family:Arial;" text-anchor="middle"><textPath startOffset="21.46611528233685" xlink:href="#id35">November</textPath></text><line stroke="#e1ed5e" stroke-width="0.3" x1="56.762969772571076" x2="54.21961505331055" y1="26.818313649435495" y2="22.513508569990535" /><path d="M 56.25429882871897 25.957352633546506 a86.0,86.0 0 0,1 42.265352541879196,-11.944610805530505" fill="none" id="id36" stroke="none" /><text fill="#e1ed5e" style="font-size:6.75px; font-family:Arial;" text-anchor="middle"><textPath startOffset="22.20632615414155" xlink:href="#id36">December</textPath></text></svg>