<?xml version="1.0" encoding="utf-8" ?>
<svg baseProfile="full" height="200mm" version="1.1" viewBox="0,0,200,200" width="200mm" xmlns="http://www.w3.org/2000/svg" xmlns:ev="http://www.w3.org/2001/xml-events" xmlns:xlink="http://www.w3.org/1999/xlink"><defs /><rect fill="#1a1a1a" height="200" width="200" x="0" y="0" /><rect fill="#1a1a1a" height="200" width="180" x="10" y="0" /><text alignment-baseline="middle" fill="#e1ed5e" style="dominant-baseline: central; font-size:9.0px; font-family:Arial;" text-anchor="middle" x="100.0" y="100.0">2026</text><line stroke="#e1ed5e" stroke-width="0.3" x1="100.0" x2="100.0" y1="15.0" y2="10.0" /><path d="M 100.0 14.0 a86.0,86.0 0 0,1 42.46469731375804,11.215312516191453" fill="none" id="id133" stroke="none" /><text fill="#e1ed5e" style="font-size:6.75px; font-family:Arial;" text-anchor="middle"><textPath startOffset="22.20632615414155" xlink:href="#id133">January</textPath></text><path d="M 102.16513564639614 79.11191278185805 l 3.4391144290816875 -33.17876284906242 a54.35652578208112,54.35652578208112 0 0,0 0.92984161630741,0.10447853980211469 l -4.009722748898823 33.114648355789704" fill="red" stroke="none" /><path d="M 103.59715602781102 79.31037775812273 l 5.106730782914783 -29.372184573758368 a50.81281479371075,50.81281479371075 0 0,0 0.8604421357684875,0.15724030050396978 l -5.611568039786172 29.27992879190366" fill="red" stroke="none" /><path d="M 104.66035177308747 79.52364482259891 l 6.023482469924252 -26.465591539950708 a48.142399979091664,48.142399979091664 0 0,0 0.8064455221628738,0.19085959988613052 l -6.478151679049649 26.357986027923708" fill="red" stroke="none" /><path d="M 106.0581310904928 79.89281104454417 l 7.861708028907147 -26.093335797558925 a48.25194719971314,48.25194719971314 0 0,0 0.793203712787194,0.24645225468080814 l -8.30969711440506 25.954143407995595" fill="red" stroke="none" /><path d="M 107.08798089147638 80.2323363322302 l 10.614540773120186 -29.602883416798242 a52.44835738814953,52.44835738814953 0 0,0 0.8472099909646091,0.31203458957149566 l -11.122533089857372 29.415785559420424" fill="red" stroke="none" /><path d="M 108.43124777332544 80.76684994638697 l 12.536061327105323 -28.596947340146162 a52.22400087708233,52.22400087708233 0 0,0 0.8202099683080146,0.36800430423309644 l -13.026453413880118 28.37692270539653" fill="red" stroke="none" /><path d="M 109.08828744355905 81.06846463323043 l 24.461820983575954 -50.95567585886126 a77.52310667387147,77.52310667387147 0 0,0 1.1980226469660307,0.587864509911 l -25.33531489755242 50.52705618881543" fill="red" stroke="none" /><path d="M 109.41281617654863 81.2277094730956 l 13.171994840839712 -26.269344830846823 a50.38673043958866,50.38673043958866 0 0,0 0.7719715277919078,0.395433800071827 l -13.622226856220376 26.038718505462494" fill="red" stroke="none" /><path d="M 110.36928655335952 81.73862282372117 l 15.321041974875355 -26.981926364659333 a52.028352801007514,52.028352801007514 0 0,0 0.774982798123897,0.44892005835173016 l -15.783221505464581 26.71420214891755" fill="red" stroke="none" /><line stroke="#e1ed5e" stroke-width="0.3" x1="143.23703022742887" x2="145.7803849466894" y1="26.81831364943548" y2="22.513508569990506" /><path d="M 143.74570117128098 25.957352633546492 a86.0,86.0 0 0,1 28.547481713284135,27.462654790039103" fill="none" id="id134" stroke="none" /><text fill="#e1ed5e" style="font-size:6.75px; font-family:Arial;" text-anchor="middle"><textPath startOffset="19.985693538727396" xlink:href="#id134">February</textPath></text><path d="M 110.99172775467656 82.1063720568725 l 14.252060214363441 -23.201180796200823 a48.22895537276153,48.22895537276153 0 0,0 0.7036394393955698,0.44061895239749965 l -14.649318806131275 22.95241750248038" fill="red" stroke="none" /><path d="M 111.2981086023043 82.29822771554956 l 16.968796166809657 -26.586553224037594 a52.54021014015788,52.54021014015788 0 0,0 0.7581626735567126,0.4931300925480759 l -17.42392586615065 26.29052420732999" fill="red" stroke="none" /><path d="M 111.60114157652 82.49532879139004 l 17.127050434999305 -25.842576324103014 a52.0028161248313,52.0028161248313 0 0,0 0.7418952185066308,0.5009309632845717 l -17.56935034791248 25.54393344851977" fill="red" stroke="none" /><path d="M 114.16331599549186 84.49514656593476 l 17.489520033553877 -19.14611273509071 a46.931774792113345,46.931774792113345 0 0,0 0.5917697125936836,0.5499854544627089 l -17.816497629942408 18.842222694553364" fill="red" stroke="none" /><path d="M 114.42810811169701 84.74124197986012 l 43.28432433509102 -45.77627406041963 a84.0,84.0 0 0,0 1.042067025550327,1.0024676529507923 l -44.06587460425377 45.02442332070654" fill="red" stroke="none" /><path d="M 114.68862486808459 84.99185889309783 l 21.977238659215466 -22.45530142540719 a52.42036889010072,52.42036889010072 0 0,0 0.6394391357936395,0.6366931809314534 l -22.36051359517643 22.073672393825618" fill="red" stroke="none" /><line stroke="#e1ed5e" stroke-width="0.3" x1="172.23445277983987" x2="176.4835382374775" y1="55.19839476539836" y2="52.563006222186495" /><path d="M 173.08426987136738 54.67131705675599 a86.0,86.0 0 0,1 12.851231095245387,41.99856678651699" fill="none" id="id135" stroke="none" /><text fill="#e1ed5e" style="font-size:6.75px; font-family:Arial;" text-anchor="middle"><textPath startOffset="22.20632615414155" xlink:href="#id135">March</textPath></text><line stroke="#e1ed5e" stroke-width="0.3" x1="184.98032266829074" x2="189.97916517819016" y1="98.17113171792111" y2="98.06355123074" /><path d="M 185.9800911702706 98.14961562048488 a86.0,86.0 0 0,1 -9.607161424134198,41.387399972396054" fill="none" id="id136" stroke="none" /><text fill="#e1ed5e" style="font-size:6.75px; font-family:Arial;" text-anchor="middle"><textPath startOffset="21.466115282336823" xlink:href="#id136">April</textPath></text><line stroke="#e1ed5e" stroke-width="0.3" x1="174.80103733775053" x2="179.2010983576182" y1="140.37084112569926" y2="142.7455964860345" /><path d="M 175.68104954172406 140.8457921977663 a86.0,86.0 0 0,1 -30.038265399797805,32.042727171017184" fill="none" id="id137" stroke="none" /><text fill="#e1ed5e" style="font-size:6.75px; font-family:Arial;" text-anchor="middle"><textPath startOffset="22.206326154141568" xlink:href="#id137">May</textPath></text><line stroke="#e1ed5e" stroke-width="0.3" x1="143.8653032363475" x2="146.44561519142675" y1="172.8068346515853" y2="177.08958963109032" /><path d="M 144.38136562736335 173.6633856474863 a86.0,86.0 0 0,1 -40.68145358897372,12.25698825130547" fill="none" id="id138" stroke="none" /><text fill="#e1ed5e" style="font-size:6.75px; font-family:Arial;" text-anchor="middle"><textPath startOffset="21.466115282336833" xlink:href="#id138">June</textPath></text><line stroke="#e1ed5e" stroke-width="0.3" x1="102.19456741930631" x2="102.32365962044197" y1="184.97166512339345" y2="189.96999836594603" /><path d="M 102.22038585953345 185.97133177190398 a86.0,86.0 0 0,1 -42.740103519485714,-10.115201625700543" fill="none" id="id139" stroke="none" /><text fill="#e1ed5e" style="font-size:6.75px; font-family:Arial;" text-anchor="middle"><textPath startOffset="22.20632615414155" xlink:href="#id139">July</textPath></text><line stroke="#e1ed5e" stroke-width="0.3" x1="58.666819895761336" x2="56.23545636021788" y1="174.27360380694188" y2="178.64263932499728" /><path d="M 58.180547188652646 175.14741091055294 a86.0,86.0 0 0,1 -31.652253787137756,-30.449443065178592" fill="none" id="id140" stroke="none" /><text fill="#e1ed5e" style="font-size:6.75px; font-family:Arial;" text-anchor="middle"><textPath startOffset="22.20632615414155" xlink:href="#id140">August</textPath></text><line stroke="#e1ed5e" stroke-width="0.3" x1="26.63291911575756" x2="22.317208475507996" y1="142.92168965132927" y2="145.44649492493687" /><path d="M 25.769776987707644 143.4266507060508 a86.0,86.0 0 0,1 -11.730757126820373,-40.83630448921669" fill="none" id="id141" stroke="none" /><text fill="#e1ed5e" style="font-size:6.75px; font-family:Arial;" text-anchor="middle"><textPath startOffset="21.46611528233685" xlink:href="#id141">September</textPath></text><line stroke="#e1ed5e" stroke-width="0.3" x1="15.007084014347285" x2="10.007500721073583" y1="101.09737516637583" y2="101.16192664675087" /><path d="M 14.007167355692545 101.11028546245083 a86.0,86.0 0 0,1 10.666146001902534,-42.60595125391555" fill="none" id="id142" stroke="none" /><text fill="#e1ed5e" style="font-size:6.75px; font-family:Arial;" text-anchor="middle"><textPath startOffset="22.20632615414155" xlink:href="#id142">October</textPath></text><line stroke="#e1ed5e" stroke-width="0.3" x1="26.266209847984243" x2="21.928928074336255" y1="57.711370442889674" y2="55.22380399835377" /><path d="M 25.398753493254645 57.213857153982495 a86.0,86.0 0 0,1 29.58750427330803,-30.492523968695096" fill="none" id="id143" stroke="none" /><text fill="#e1ed5e" style="font-size:6.75px; font-family:Arial;" text-anchor="middle"><textPath startOffset="21.46611528233685" xlink:href="#id143">November</textPath></text><line stroke="#e1ed5e" stroke-width="0.3" x1="56.762969772571076" x2="54.21961505331055" y1="26.818313649435495" y2="22.513508569990535" /><path d="M 56.25429882871897 25.957352633546506 a86.0,86.0 0 0,1 42.265352541879196,-11.944610805530505" fill="none" id="id144" stroke="none" /><text fill="#e1ed5e" style="font-size:6.75px; font-family:Arial;" text-anchor="middle"><textPath startOffset="22.20632615414155" xlink:href="#id144">December</textPath></text></svg>