<?xml version="1.0" encoding="utf-8" ?>
<svg baseProfile="full" height="200mm" version="1.1" viewBox="0,0,200,200" width="200mm" xmlns="http://www.w3.org/2000/svg" xmlns:ev="http://www.w3.org/2001/xml-events" xmlns:xlink="http://www.w3.org/1999/xlink"><defs /><rect fill="#1a1a1a" height="200" width="200" x="0" y="0" /><text alignment-baseline="middle" fill="#e1ed5e" style="dominant-baseline: central; font-size:9.0px; font-family:Arial;" text-anchor="middle" x="100.0" y="100.0">2016</text><line stroke="#e1ed5e" stroke-width="0.3" x1="100.0" x2="100.0" y1="15.0" y2="10.0" /><path d="M 100.0 14.0 a86.0,86.0 0 0,1 42.35913384403234,11.155469271406648" fill="none" id="id13" stroke="none" /><text fill="#e1ed5e" style="font-size:6.75px; font-family:Arial;" text-anchor="middle"><textPath startOffset="22.145653131862478" xlink:href="#id13">January</textPath></text><line stroke="#e1ed5e" stroke-width="0.3" x1="143.13028292997686" x2="145.6673583964461" y1="26.7553504044142" y2="22.446841604673864" /><path d="M 143.63769802327073 25.89364864446614 a86.0,86.0 0 0,1 29.32050498858742,28.57503671076993" fill="none" id="id14" stroke="none" /><text fill="#e1ed5e" style="font-size:6.75px; font-family:Arial;" text-anchor="middle"><textPath startOffset="20.669276256404974" xlink:href="#id14">February</textPath></text><line stroke="#e1ed5e" stroke-width="0.3" x1="172.87174338648825" x2="177.1583165268699" y1="56.24261187166439" y2="53.66864786411523" /><path d="M 173.72905801456457 55.72781907015455 a86.0,86.0 0 0,1 12.242430191666344,42.057860355516425" fill="none" id="id15" stroke="none" /><text fill="#e1ed5e" style="font-size:6.75px; font-family:Arial;" text-anchor="middle"><textPath startOffset="22.145653131862474" xlink:href="#id15">March</textPath></text><path d="M 118.70294669586156 90.45014215332178 l 9.689339645288715 -4.947445862162756 a31.87936226627255,31.87936226627255 0 0,0 0.24468182746820413,0.4895275607946802 l -9.772841385968656 4.780386445204326" fill="#ff860c" stroke="none" /><path d="M 119.0197475246899 91.09779779509293 l 2.7199271498320043 -1.273063243294333 a24.0031140041331,24.0031140041331 0 0,0 0.17146857107024935,0.37468977293865896 l -2.741380185757305 1.2261844881409898" fill="#ff1802" stroke="none" /><path d="M 119.16976305983485 91.42560881287824 l 2.8222747645886384 -1.2623676043147423 a24.091732008964748,24.091732008964748 0 0,0 0.1656204678867494,0.3789720422550635 l -2.843529114492358 1.2137334922838294" fill="#ff1902" stroke="none" /><path d="M 120.51834098615036 95.52812308129327 l 7.394043589398239 -1.6114973859563064 a28.56761550469269,28.56761550469269 0 0,0 0.1003162554097786,0.4800495970290504 l -7.420617555632384 1.4843313376418517" fill="#ff5908" stroke="none" /><line stroke="#e1ed5e" stroke-width="0.3" x1="184.99686870605535" x2="189.99668451229388" y1="99.2704041080226" y2="99.22748670261217" /><path d="M 185.99683186730306 99.26182062694052 a86.0,86.0 0 0,1 -10.086455211305974,41.156179273409016" fill="none" id="id16" stroke="none" /><text fill="#e1ed5e" style="font-size:6.75px; font-family:Arial;" text-anchor="middle"><textPath startOffset="21.40746469413373" xlink:href="#id16">April</textPath></text><line stroke="#e1ed5e" stroke-width="0.3" x1="174.33088141563837" x2="178.70328620479359" y1="141.23008692659167" y2="143.65538615756765" /><path d="M 175.20536237346943 141.71514677278685 a86.0,86.0 0 0,1 -30.301960400862466,31.631185727798858" fill="none" id="id17" stroke="none" /><text fill="#e1ed5e" style="font-size:6.75px; font-family:Arial;" text-anchor="middle"><textPath startOffset="22.145653131862474" xlink:href="#id17">May</textPath></text><path d="M 111.8722381534696 117.32195027204791 l 1.135895694054086 1.6573057642789997 a23.009209153891902,23.009209153891902 0 0,0 -0.3277209459943561,0.22050527818612461 l -1.1072784599627268 -1.6765607165222454" fill="#ff0a01" stroke="none" /><line stroke="#e1ed5e" stroke-width="0.3" x1="143.1302829299769" x2="145.66735839644613" y1="173.24464959558577" y2="177.55315839532614" /><path d="M 143.63769802327073 174.10635135553383 a86.0,86.0 0 0,1 -40.68552437913181,11.842963189579606" fill="none" id="id18" stroke="none" /><text fill="#e1ed5e" style="font-size:6.75px; font-family:Arial;" text-anchor="middle"><textPath startOffset="21.407464694133747" xlink:href="#id18">June</textPath></text><path d="M 109.71004243097381 118.62028667847754 l 1.2249688434443726 2.349039275500857 a23.649251627394996,23.649251627394996 0 0,0 -0.36157766306677597,0.18462413110474507 l -1.1844639586640144 -2.369721358278438" fill="#ff1302" stroke="none" /><path d="M 109.3889696526874 118.78422872680471 l 0.633143726421597 1.2667115790112915 a22.4161317744858,22.4161317744858 0 0,0 -0.3456778345884804,0.1690883510344175 l -0.6113056425710472 -1.2773936801429324" fill="#ff0100" stroke="none" /><path d="M 108.4095320186766 119.2426549942271 l 0.5423791017258185 1.241069527699018 a22.354410817504043,22.354410817504043 0 0,0 -0.35294945439595377,0.15065313440975575 l -0.5209945721594336 -1.2501973117681777" fill="#ff0000" stroke="none" /><path d="M 106.0420521117495 120.11202640906438 l 0.42851759046220733 1.4263956908556137 a22.489373019839892,22.489373019839892 0 0,0 -0.3706891094587051,0.10790219728246124 l -0.40396846862189545 -1.4335415824405933" fill="#ff0200" stroke="none" /><path d="M 105.3480935250658 120.30758222061773 l 0.37653086245412726 1.4297490146814904 a22.478498473236662,22.478498473236662 0 0,0 -0.3739937325138037,0.09506774431389292 l -0.3519318367149262 -1.4360019908306534" fill="#ff0200" stroke="none" /><path d="M 104.9986988182912 120.39639698878246 l 0.6152386495659052 2.510383640932853 a23.584674954531607,23.584674954531607 0 0,0 -0.39405257647816755,0.09299533509930984 l -0.5720539193478585 -2.5205751196783877" fill="#ff1202" stroke="none" /><path d="M 104.64783097203109 120.47920084513623 l 6.7973128792204776 29.950214734241097 a51.71186782019565,51.71186782019565 0 0,0 -0.8673744453855424,0.189040223320871 l -6.282176017215799 -30.062486415695687" fill="#87ff25" stroke="none" /><path d="M 103.58742460773223 120.69131181640829 l 0.2644862960356793 1.5254866710357324 a22.548245001380064,22.548245001380064 0 0,0 -0.38194847684104755,0.06284947651575078 l -0.2382603161415595 -1.5298021460471538" fill="#ff0300" stroke="none" /><path d="M 102.875027216393 120.80226474461374 l 0.2112562700714314 1.528545133043649 a22.54307466941685,22.54307466941685 0 0,0 -0.3837928170042286,0.04968966396107719 l -0.1849856311764274 -1.531946393205121" fill="#ff0300" stroke="none" /><path d="M 102.51750503828377 120.84855314841334 l 0.26247572027563376 2.1736754926477366 a23.189465380194807,23.189465380194807 0 0,0 -0.3956168050854748,0.04432968818751659 l -0.22512301358935966 -2.177860941342224" fill="#ff0c01" stroke="none" /><path d="M 100.72087961077811 120.9876233191556 l 0.05917205408642194 1.7227297923519453 a22.723745709042312,22.723745709042312 0 0,0 -0.3899683527609959,0.01004420145414431 l -0.029590387254682195 -1.7234917111561348" fill="#ff0500" stroke="none" /><line stroke="#e1ed5e" stroke-width="0.3" x1="101.45913802915013" x2="101.54496967792366" y1="184.9874750549273" y2="189.98673829345242" /><path d="M 101.47630435890484 185.9873277026323 a86.0,86.0 0 0,1 -42.54439059252881,-10.42667462771756" fill="none" id="id19" stroke="none" /><text fill="#e1ed5e" style="font-size:6.75px; font-family:Arial;" text-anchor="middle"><textPath startOffset="22.145653131862474" xlink:href="#id19">July</textPath></text><path d="M 100.0 121.0 l 4.844187599306173e-16 3.955579357802499 a24.9555793578025,24.9555793578025 0 0,0 -0.428395704475803,-0.0036772618907552944 l 0.06790277962695034 -3.9549964941061786" fill="#ff2603" stroke="none" /><path d="M 98.91894614982273 120.97215588758144 l -0.08888192476603048 1.7242855954639245 a22.726574878560005,22.726574878560005 0 0,0 -0.38944220603498475,-0.02342787604475574 l 0.11846848293346159 -1.722505741594477" fill="#ff0500" stroke="none" /><path d="M 98.19965949673042 120.92268563240118 l -0.15155796526123405 1.761333290279451 a22.767841841421557,22.767841841421557 0 0,0 -0.3891137322698626,-0.03684947500597831 l 0.18177126091611193 -1.758472059768289" fill="#ff0601" stroke="none" /><path d="M 97.48249496171623 120.84855314841334 l -0.2821245008269376 2.3363955823380533 a23.353367491730864,23.353367491730864 0 0,0 -0.39758794342039727,-0.051475719263702834 l 0.3221902661381289 -2.3312082668739533" fill="#ff0f01" stroke="none" /><path d="M 96.05791012581884 120.62667999033965 l -0.3245669614871053 1.6982714914438655 a22.729008320147692,22.729008320147692 0 0,0 -0.3826087772175383,-0.07653247102726117 l 0.35367222423560163 -1.6924496237537427" fill="#ff0500" stroke="none" /><path d="M 94.30408787586889 120.21278271476187 l -0.4611237610644419 1.6363655519757776 a22.700096274541888,22.700096274541888 0 0,0 -0.3741624306383935,-0.1089132304571458 l 0.48914620408444215 -1.6282086272161158" fill="#ff0500" stroke="none" /><path d="M 93.61358852112213 120.00534299687104 l -0.5210009788751628 1.632028145786581 a22.71317187947633,22.71317187947633 0 0,0 -0.3704164249818719,-0.12176323629661713 l 0.5489401415047783 -1.6228439880879424" fill="#ff0500" stroke="none" /><path d="M 92.59220618246901 119.65005319985036 l -0.824543486476466 2.1871995595380755 a23.337458849762776,23.337458849762776 0 0,0 -0.3736524280098155,-0.14453678612257245 l 0.8619681769798098 -2.1727228852774623" fill="#ff0e01" stroke="none" /><path d="M 90.93487009805054 118.94263497670748 l -0.739481855144809 1.545232666869365 a22.713060830457756,22.713060830457756 0 0,0 -0.35025675989670924,-0.17132813285554804 l 0.7658988643035877 -1.5323107839165957" fill="#ff0500" stroke="none" /><path d="M 90.28995756902619 118.62028667847754 l -0.9894703017620149 1.8974397701782906 a23.13993671857914,23.13993671857914 0 0,0 -0.3506374602782423,-0.18669469786467235 l 1.021896577826819 -1.880174604591045" fill="#ff0c01" stroke="none" /><line stroke="#e1ed5e" stroke-width="0.3" x1="58.13341422392154" x2="55.67067388415222" y1="173.97424548756322" y2="178.32567169271397" /><path d="M 57.64086615596768 174.84453072859336 a86.0,86.0 0 0,1 -31.369924170532247,-30.572349798747897" fill="none" id="id20" stroke="none" /><text fill="#e1ed5e" style="font-size:6.75px; font-family:Arial;" text-anchor="middle"><textPath startOffset="22.145653131862474" xlink:href="#id20">August</textPath></text><path d="M 89.65649057296885 118.27599006163327 l -0.8241721493615917 1.4562332172718593 a22.673282676318994,22.673282676318994 0 0,0 -0.33708426808938596,-0.19461569292099642 l 0.8490488853113772 -1.441870627074691" fill="#ff0500" stroke="none" /><path d="M 88.72937992617639 117.7192867562869 l -0.9435439392697784 1.4834077910148014 a22.75805968037952,22.75805968037952 0 0,0 -0.3278400016793929,-0.2125019282380529 l 0.968869573206181 -1.4669920210728538" fill="#ff0601" stroke="none" /><path d="M 88.1277618465304 117.32195027204791 l -1.305671433738989 1.9050136422887247 a23.309513990039502,23.309513990039502 0 0,0 -0.3281146075147365,-0.22904947870988207 l 1.3381811324274908 -1.8823193477737137" fill="#ff0e01" stroke="none" /><path d="M 86.68645165197938 116.24036423190432 l -1.0098552033452424 1.231859147921964 a22.592885586613956,22.592885586613956 0 0,0 -0.297823361700885,-0.24845484078579105 l 1.0308528992080201 -1.2143421232243028" fill="#ff0400" stroke="none" /><path d="M 86.13680546590413 115.77377054828092 l -41.58958360228758 47.321311644842766 a84.0,84.0 0 0,0 -1.0749398927065164,-0.9612178804664708 l 42.39578852181747 -46.600398234492914" fill="#4dd2ff" stroke="none" /><path d="M 84.58840730492382 114.26474011684316 l -1.277380803620697 1.1823246016432194 a22.740572658957234,22.740572658957234 0 0,0 -0.2627102481540624,-0.28876458278306694 l 1.2974887526166392 -1.1602224433024784" fill="#ff0600" stroke="none" /><path d="M 84.3458050057657 113.99807769240083 l -1.747216763563881 1.562372003852034 a23.34387983849413,23.34387983849413 0 0,0 -0.26455167265912766,-0.30101124040535904 l 1.773779500181601 -1.5321484856353746" fill="#ff0e01" stroke="none" /><path d="M 83.8745106332314 113.45245675266167 l -1.3489422860962934 1.1253356318564474 a22.756708733838494,22.756708733838494 0 0,0 -0.2476722935608971,-0.30211992719267133 l 1.3680613988958203 -1.1020134229652807" fill="#ff0601" stroke="none" /><path d="M 83.4222238831116 112.89097897827486 l -1.3883832377272232 1.0796152032176278 a22.758743017561283,22.758743017561283 0 0,0 -0.23717647177595383,-0.31047161502174647 l 1.4067116868574723 -1.055622674955011" fill="#ff0601" stroke="none" /><path d="M 82.78059297857968 112.02048342749411 l -22.46565165062757 15.682769622571465 a48.398079624710846,48.398079624710846 0 0,0 -0.4697154926640559,-0.6853289414144241 l 22.731556880106954 -15.294805946086989" fill="#acff21" stroke="none" /><path d="M 81.99639281039703 110.81064883170644 l -1.4844977306678562 0.891398234181827 a22.73156701408305,22.73156701408305 0 0,0 -0.19800958175346256,-0.3362635588467417 l 1.4995810225510888 -0.8657835070415264" fill="#ff0600" stroke="none" /><line stroke="#e1ed5e" stroke-width="0.3" x1="26.387840678322732" x2="22.057713659400548" y1="142.50000000000003" y2="145.00000000000006" /><path d="M 25.521815274538298 143.00000000000003 a86.0,86.0 0 0,1 -11.493303480769221,-40.785679425670985" fill="none" id="id21" stroke="none" /><text fill="#e1ed5e" style="font-size:6.75px; font-family:Arial;" text-anchor="middle"><textPath startOffset="21.40746469413373" xlink:href="#id21">September</textPath></text><path d="M 81.63589988554817 110.18625677009913 l -1.5178548670771765 0.841928508308741 a22.735720890757744,22.735720890757744 0 0,0 -0.1863838133900879,-0.3429252237913511 l 1.5320840300825942 -0.8157484510428029" fill="#ff0600" stroke="none" /><path d="M 81.4637452351635 109.86951160357371 l -2.405055740596822 1.2805567165644904 a23.7247235859287,23.7247235859287 0 0,0 -0.18831999940828675,-0.36112842978806287 l 2.4266838089800578 -1.2390820436719245" fill="#ff1402" stroke="none" /><path d="M 81.1358732173502 109.22738970284198 l -1.536821450588445 0.751736382587783 a22.71082663057802,22.71082663057802 0 0,0 -0.16829884250449254,-0.3516798518109931 l 1.5494995510528495 -0.7252440287116851" fill="#ff0500" stroke="none" /><path d="M 80.41425534168474 107.57618678355246 l -2.415540375175451 0.9343829088352773 a23.58996268784441,23.58996268784441 0 0,0 -0.14285330589791162,-0.37893536588792887 l 2.431224364887799 -0.8927792627532035" fill="#ff1202" stroke="none" /><path d="M 79.407916724674 104.11899336999214 l -1.7207031309066434 0.34418881728308154 a22.754789220007535,22.754789220007535 0 0,0 -0.0733286168979008,-0.38368630933391684 l 1.7263580400867011 -0.3145999429158502" fill="#ff0601" stroke="none" /><path d="M 79.22317932658666 103.0534771498775 l -1.7321245068938353 0.25456265353010066 a22.750730548072575,22.750730548072575 0 0,0 -0.053470157377248397,-0.3868834226526757 l 1.7362391808262962 -0.22479092267733927" fill="#ff0600" stroke="none" /><line stroke="#e1ed5e" stroke-width="0.3" x1="15.003131293944662" x2="10.003315487706104" y1="100.72959589197737" y2="100.7725132973878" /><path d="M 14.003168132696942 100.73817937305945 a86.0,86.0 0 0,1 10.791469493833604,-42.45332614584628" fill="none" id="id22" stroke="none" /><text fill="#e1ed5e" style="font-size:6.75px; font-family:Arial;" text-anchor="middle"><textPath startOffset="22.145653131862435" xlink:href="#id22">October</textPath></text><path d="M 79.13060592940154 97.66154086499901 l -2.0562946905442607 -0.23041210909576598 a23.06916350112273,23.06916350112273 0 0,0 0.04747624372633953,-0.3931714040542335 l 2.052036360558253 0.26567719007343576" fill="#ff0a01" stroke="none" /><path d="M 79.34024301695615 96.23510406497455 l -1.726952694497387 -0.31470830875845723 a22.755393667709154,22.755393667709154 0 0,0 0.07333056476537875,-0.38369650139966516 l 1.721295837449849 0.3443073751914369" fill="#ff0601" stroke="none" /><path d="M 79.56144815229197 95.17655741523228 l -5.227602172167659 -1.233699878608831 a26.37120469363545,26.37120469363545 0 0,0 0.10776087159551735,-0.4397011295973105 l 5.205653774055843 1.323256832814259" fill="#ff3a05" stroke="none" /><path d="M 79.94057633289273 93.78553927170692 l -1.6815629254661635 -0.5209524927477672 a22.760410569157784,22.760410569157784 0 0,0 0.11882590865599683,-0.37222046644507234 l 1.6723723010329095 0.5497419928842313" fill="#ff0601" stroke="none" /><path d="M 80.28708602549916 92.7611449362534 l -2.739301568771009 -1.0059094793330343 a23.91815471921613,23.91815471921613 0 0,0 0.14484073238396367,-0.38420725076265266 l 2.7216301525726094 1.052785010289832" fill="#ff1702" stroke="none" /><path d="M 81.29705330413844 90.45014215332179 l -2.0888979436664483 -1.066606174023215 a23.345451630180925,23.345451630180925 0 0,0 0.18530944823271406,-0.3553553009528487 l 2.0702804264587944 1.10230771808055" fill="#ff0f01" stroke="none" /><line stroke="#e1ed5e" stroke-width="0.3" x1="26.387840678322718" x2="22.05771365940052" y1="57.49999999999999" y2="54.99999999999999" /><path d="M 25.521815274538284 56.99999999999999 a86.0,86.0 0 0,1 29.574782752854787,-30.34633250058573" fill="none" id="id23" stroke="none" /><text fill="#e1ed5e" style="font-size:6.75px; font-family:Arial;" text-anchor="middle"><textPath startOffset="21.40746469413373" xlink:href="#id23">November</textPath></text><path d="M 82.78059297857968 87.97951657250589 l -1.4465960503053081 -1.0098363914240711 a22.76420227587522,22.76420227587522 0 0,0 0.2264332452114274,-0.3185067164020527 l 1.4290477065639084 1.0345203345356442" fill="#ff0601" stroke="none" /><path d="M 84.10781606972428 86.27271002978789 l -2.4141288458219035 -2.085266999013132 a24.190040209997772,24.190040209997772 0 0,0 0.2741410443988683,-0.31192218514849307 l 2.3779767374644423 2.1264014619729252" fill="#ff1b02" stroke="none" /><line stroke="#e1ed5e" stroke-width="0.3" x1="56.869717070023135" x2="54.33264160355391" y1="26.7553504044142" y2="22.446841604673864" /><path d="M 56.362301976729285 25.89364864446614 a86.0,86.0 0 0,1 42.16139366436587,-11.88097634709845" fill="none" id="id24" stroke="none" /><text fill="#e1ed5e" style="font-size:6.75px; font-family:Arial;" text-anchor="middle"><textPath startOffset="22.145653131862474" xlink:href="#id24">December</textPath></text><path d="M 89.97174638481275 81.54914285379989 l -1.4019631003576263 -2.579454198263149 a23.93582773604,23.93582773604 0 0,0 0.3626975280482927,-0.19311600466620296 l 1.3574767565227719 2.6031406706519276" fill="#ff1702" stroke="none" /><path d="M 90.28995756902619 81.37971332152246 l -2.170887494682925 -4.162963013300033 a25.69499878218033,25.69499878218033 0 0,0 0.3928554593838456,-0.20059479676736577 l 2.0991048135854973 4.199615761740232" fill="#ff3004" stroke="none" /><path d="M 94.6519064749342 79.69241777938228 l -0.35298818047225444 -1.340353616526994 a22.3860550035587,22.3860550035587 0 0,0 0.3724556725623309,-0.09467677548876745 l 0.32992721468454544 1.3462156238510243" fill="#ff0000" stroke="none" /></svg>