<?xml version="1.0" encoding="utf-8" ?>
<svg baseProfile="full" height="200mm" version="1.1" viewBox="0,0,200,200" width="200mm" xmlns="http://www.w3.org/2000/svg" xmlns:ev="http://www.w3.org/2001/xml-events" xmlns:xlink="http://www.w3.org/1999/xlink"><defs /><rect fill="#1a1a1a" height="200" width="200" x="0" y="0" /><text alignment-baseline="middle" fill="#e1ed5e" style="dominant-baseline: central; font-size:9.0px; font-family:Arial;" text-anchor="middle" x="100.0" y="100.0">2015</text><line stroke="#e1ed5e" stroke-width="0.3" x1="100.0" x2="100.0" y1="15.0" y2="10.0" /><path d="M 100.0 14.0 a86.0,86.0 0 0,1 42.46469731375804,11.215312516191453" fill="none" id="id1" stroke="none" /><text fill="#e1ed5e" style="font-size:6.75px; font-family:Arial;" text-anchor="middle"><textPath startOffset="22.20632615414155" xlink:href="#id1">January</textPath></text><line stroke="#e1ed5e" stroke-width="0.3" x1="143.23703022742887" x2="145.7803849466894" y1="26.81831364943548" y2="22.513508569990506" /><path d="M 143.74570117128098 25.957352633546492 a86.0,86.0 0 0,1 28.547481713284135,27.462654790039103" fill="none" id="id2" stroke="none" /><text fill="#e1ed5e" style="font-size:6.75px; font-family:Arial;" text-anchor="middle"><textPath startOffset="19.985693538727396" xlink:href="#id2">February</textPath></text><line stroke="#e1ed5e" stroke-width="0.3" x1="172.23445277983987" x2="176.4835382374775" y1="55.19839476539836" y2="52.563006222186495" /><path d="M 173.08426987136738 54.67131705675599 a86.0,86.0 0 0,1 12.851231095245387,41.99856678651699" fill="none" id="id3" stroke="none" /><text fill="#e1ed5e" style="font-size:6.75px; font-family:Arial;" text-anchor="middle"><textPath startOffset="22.20632615414155" xlink:href="#id3">March</textPath></text><line stroke="#e1ed5e" stroke-width="0.3" x1="184.98032266829074" x2="189.97916517819016" y1="98.17113171792111" y2="98.06355123074" /><path d="M 185.9800911702706 98.14961562048488 a86.0,86.0 0 0,1 -9.607161424134198,41.387399972396054" fill="none" id="id4" stroke="none" /><text fill="#e1ed5e" style="font-size:6.75px; font-family:Arial;" text-anchor="middle"><textPath startOffset="21.466115282336823" xlink:href="#id4">April</textPath></text><path d="M 120.23288151984713 105.62410040840565 l 26.68105094397307 7.416487333427774 a48.69264819120376,48.69264819120376 0 0,0 -0.23142308661889946,0.8056141243770992 l -26.54943522046807 -7.874658933309456" fill="#ffa70f" stroke="none" /><path d="M 119.79798401119884 107.00284435728193 l 45.9212803339222 16.243046700293586 a69.70934770261852,69.70934770261852 0 0,0 -0.4098768201154486,1.1278049738681064 l -45.63487925280152 -17.031099471167824" fill="#34ff5b" stroke="none" /><path d="M 119.67450827220406 107.3425965602758 l 22.690132241632547 8.4680381661681 a45.218789637933035,45.218789637933035 0 0,0 -0.27843086524012395,0.7268951294331347 l -22.541007096798918 -8.85735686243438" fill="#ff6609" stroke="none" /><path d="M 119.54520255179757 107.68017299344265 l 26.737038478874904 10.506162845122645 a49.72714194536367,49.72714194536367 0 0,0 -0.31990508939381884,0.7939781966500277 l -26.55223077522369 -10.964840409615487" fill="#ffba11" stroke="none" /><path d="M 119.26925614724726 108.34839909993367 l 17.556372636734228 7.606292863544201 a40.13326713569519,40.13326713569519 0 0,0 -0.28008990940940676,0.6315288041416106 l -17.422841642593546 -7.9073700041785" fill="#ff0000" stroke="none" /><path d="M 119.12269723197855 108.67885076344098 l 26.305116081862796 11.938597051450445 a49.887527267614615,49.887527267614615 0 0,0 -0.3616260930107617,0.7789104325776659 l -26.0957153720122 -12.38962755130694" fill="#ffbd11" stroke="none" /><path d="M 118.97047184881838 109.00673069616215 l 20.038701218411116 9.513900698591597 a43.18251232442829,43.18251232442829 0 0,0 -0.324581854362189,0.6687347579556993 l -19.871966107434215 -9.857424412512572" fill="#ff3e05" stroke="none" /><line stroke="#e1ed5e" stroke-width="0.3" x1="174.80103733775053" x2="179.2010983576182" y1="140.37084112569926" y2="142.7455964860345" /><path d="M 175.68104954172406 140.8457921977663 a86.0,86.0 0 0,1 -30.038265399797805,32.042727171017184" fill="none" id="id5" stroke="none" /><text fill="#e1ed5e" style="font-size:6.75px; font-family:Arial;" text-anchor="middle"><textPath startOffset="22.206326154141568" xlink:href="#id5">May</textPath></text><path d="M 114.55890576462653 115.13401014063108 l 14.394091594595409 14.962685498457004 a41.76226938846854,41.76226938846854 0 0,0 -0.5223548401365907,0.4939191050943654 l -14.13440092006801 -15.208239240297292" fill="#ff2103" stroke="none" /><path d="M 114.0293411484842 115.62618273729858 l 34.778542058704474 38.73709020219085 a73.0587086380535,73.0587086380535 0 0,0 -0.9430057934816161,0.8320929713439705 l -34.10659391231627 -39.33000631530711" fill="#3aff91" stroke="none" /><path d="M 112.92097659922987 116.55440617244103 l 18.082003837438485 23.166734622399616 a50.38803252757539,50.38803252757539 0 0,0 -0.6883275695188928,0.5277802285137762 l -17.680547539426097 -23.474554192740765" fill="#ffc612" stroke="none" /><path d="M 112.63410532772338 116.77436683061366 l 29.991075876385402 39.81930618318746 a70.85019335101457,70.85019335101457 0 0,0 -0.9804824303121684,0.7253374619205665 l -29.30120847565467 -40.32965359384779" fill="#36ff6e" stroke="none" /><path d="M 112.34349029814194 116.9893568818739 l 17.049473083374718 23.46658650551687 a50.006296120698096,50.006296120698096 0 0,0 -0.700737446848466,0.4999575625932249 l -16.643008308677366 -23.75658832995431" fill="#ffbf11" stroke="none" /><line stroke="#e1ed5e" stroke-width="0.3" x1="143.8653032363475" x2="146.44561519142675" y1="172.8068346515853" y2="177.08958963109032" /><path d="M 144.38136562736335 173.6633856474863 a86.0,86.0 0 0,1 -40.68145358897372,12.25698825130547" fill="none" id="id6" stroke="none" /><text fill="#e1ed5e" style="font-size:6.75px; font-family:Arial;" text-anchor="middle"><textPath startOffset="21.466115282336833" xlink:href="#id6">June</textPath></text><path d="M 110.8373102113329 117.98757091392108 l 14.417433226459309 23.92979415560741 a48.93738407884953,48.93738407884953 0 0,0 -0.7252802968172427,0.4285083834584754 l -14.003385058613684 -24.174421111359635" fill="#ffac0f" stroke="none" /><path d="M 110.5260780823613 118.17145234162733 l 9.667072648484684 16.68852810519737 a40.286245459110056,40.286245459110056 0 0,0 -0.6030490921993567,0.3424270131653176 l -9.378374789364127 -16.85245828415732" fill="#ff0300" stroke="none" /><path d="M 109.57404056367764 118.69057910512821 l 9.800120750531939 19.131936083762042 a42.49589135249252,42.49589135249252 0 0,0 -0.6539229157188537,0.32789052515848005 l -9.469343927130323 -19.297794449829823" fill="#ff3004" stroke="none" /><path d="M 109.2508944713604 118.85261126421891 l 13.201251699480464 26.903135395383607 a50.96751141712268,50.96751141712268 0 0,0 -0.7909364911616089,0.3796975808889853 l -12.73620254031862 -27.126387252772155" fill="#ffd113" stroke="none" /><path d="M 107.59598834532513 119.57807347666477 l 10.736560290412141 27.67265518274476 a50.68247920462078,50.68247920462078 0 0,0 -0.8160597859419233,0.308563983583098 l -10.258630283709943 -27.853367416434487" fill="#ffcc13" stroke="none" /><path d="M 107.2578585660854 119.70592522655815 l 18.96672200048576 51.49684333626758 a75.87860618714544,75.87860618714544 0 0,0 -1.2295240691507225,0.4408635868263862 l -18.0774783707053 -51.81569446413393" fill="#3fffbc" stroke="none" /><path d="M 104.48393922423573 120.51570834832081 l 6.417216172544126 29.36117748707506 a51.054274352123116,51.054274352123116 0 0,0 -0.8601637236337271,0.18025567150267954 l -5.910860987481022 -29.467289139304285" fill="#ffd213" stroke="none" /><line stroke="#e1ed5e" stroke-width="0.3" x1="102.19456741930631" x2="102.32365962044197" y1="184.97166512339345" y2="189.96999836594603" /><path d="M 102.22038585953345 185.97133177190398 a86.0,86.0 0 0,1 -42.740103519485714,-10.115201625700543" fill="none" id="id7" stroke="none" /><text fill="#e1ed5e" style="font-size:6.75px; font-family:Arial;" text-anchor="middle"><textPath startOffset="22.20632615414155" xlink:href="#id7">July</textPath></text><line stroke="#e1ed5e" stroke-width="0.3" x1="58.666819895761336" x2="56.23545636021788" y1="174.27360380694188" y2="178.64263932499728" /><path d="M 58.180547188652646 175.14741091055294 a86.0,86.0 0 0,1 -31.652253787137756,-30.449443065178592" fill="none" id="id8" stroke="none" /><text fill="#e1ed5e" style="font-size:6.75px; font-family:Arial;" text-anchor="middle"><textPath startOffset="22.20632615414155" xlink:href="#id8">August</textPath></text><line stroke="#e1ed5e" stroke-width="0.3" x1="26.63291911575756" x2="22.317208475507996" y1="142.92168965132927" y2="145.44649492493687" /><path d="M 25.769776987707644 143.4266507060508 a86.0,86.0 0 0,1 -11.730757126820373,-40.83630448921669" fill="none" id="id9" stroke="none" /><text fill="#e1ed5e" style="font-size:6.75px; font-family:Arial;" text-anchor="middle"><textPath startOffset="21.46611528233685" xlink:href="#id9">September</textPath></text><path d="M 80.87730276802145 108.67885076344099 l -27.98000294091171 12.698745733354261 a51.72684018531373,51.72684018531373 0 0,0 -0.3610014089446677,-0.8139628755815901 l 28.194445434587657 -12.215234521279974" fill="#ffde14" stroke="none" /><path d="M 80.73074385275274 108.34839909993369 l -54.10780246481217 23.442188216547112 a79.96770706031526,79.96770706031526 0 0,0 -0.5363510988450696,-1.2677755621164342 l 54.50330454484955 -22.50733812876452" fill="#46fff6" stroke="none" /><path d="M 80.58989483394504 108.01547362559985 l -28.808522556091383 11.896584318599102 a52.168248111088374,52.168248111088374 0 0,0 -0.3356092351704765,-0.8329545985800623 l 29.009034405519245 -11.398930352176235" fill="#ffe615" stroke="none" /><path d="M 80.45479744820244 107.68017299344265 l -28.934950788737023 11.369819628388157 a52.088650268686706,52.088650268686706 0 0,0 -0.32073144990449004,-0.8373286079132539 l 29.126376518235023 -10.870067453641747" fill="#ffe415" stroke="none" /><path d="M 80.32549172779594 107.34259656027581 l -59.02352481661217 22.027789680827432 a84.0,84.0 0 0,0 -0.4939029559791024,-1.3590088119755315 l 59.3939520335965 -21.008533071845783" fill="#4dd2ff" stroke="none" /><path d="M 80.20201598880116 107.00284435728193 l -29.10241265536566 10.29396054323699 a51.869338282977616,51.869338282977616 0 0,0 -0.29049094166598033,-0.8443026522770043 l 29.27529442797487 -9.79148518787069" fill="#ffe115" stroke="none" /><path d="M 79.97269907076064 106.31721596034903 l -29.221817138067802 9.217444241100434 a51.64108149508546,51.64108149508546 0 0,0 -0.26010685052424454,-0.8500442371948863 l 29.376150761098174 -8.7130730313535" fill="#ffdd14" stroke="none" /><path d="M 79.86692584326677 105.97154293290107 l -29.509423512900327 8.752602213681886 a51.78009294291789,51.78009294291789 0 0,0 -0.24609688278214695,-0.8566955338425736 l 29.655713032568578 -8.243349204334717" fill="#ffdf14" stroke="none" /><path d="M 79.67330655649465 105.27499134158121 l -29.50836864134095 7.6577328978705275 a51.48581133918536,51.48581133918536 0 0,0 -0.21523198618665026,-0.8597447953662092 l 29.63581194182266 -7.148660263106927" fill="#ffda14" stroke="none" /><path d="M 79.58551787078972 104.9243191809786 l -30.123996472879288 7.2664186483024755 a51.987997732516405,51.987997732516405 0 0,0 -0.2023556910980701,-0.8717430211100133 l 30.244612729907914 -6.746806969843888" fill="#ffe315" stroke="none" /><path d="M 79.18660465613746 102.79330883721812 l -30.36733354793504 4.0755167410592925 a51.63959502862588,51.63959502862588 0 0,0 -0.11065256378057757,-0.8820098053598238 l 30.432987620962464 -3.5521891814120603" fill="#ffdd14" stroke="none" /><path d="M 79.1416061653843 102.43462659150553 l -58.23833208210057 6.797675461315028 a79.6337080132443,79.6337080132443 0 0,0 -0.1471998699053041,-1.3628879791387287 l 58.346714253506924 -5.7941911602915175" fill="#45fff2" stroke="none" /><path d="M 79.10278846688536 102.07522291339032 l -30.278194423515153 3.006812786681895 a51.42712573810313,51.42712573810313 0 0,0 -0.07989670188167736,-0.8816534475795325 l 30.325465721673904 -2.4851779505537963" fill="#ffd914" stroke="none" /><line stroke="#e1ed5e" stroke-width="0.3" x1="15.007084014347285" x2="10.007500721073583" y1="101.09737516637583" y2="101.16192664675087" /><path d="M 14.007167355692545 101.11028546245083 a86.0,86.0 0 0,1 10.666146001902534,-42.60595125391555" fill="none" id="id10" stroke="none" /><text fill="#e1ed5e" style="font-size:6.75px; font-family:Arial;" text-anchor="middle"><textPath startOffset="22.20632615414155" xlink:href="#id10">October</textPath></text><path d="M 79.21141760316559 97.0276538004421 l -30.12833138668037 -4.307741123793848 a51.43473321281549,51.43473321281549 0 0,0 0.13285862615795355,-0.8753723478160095 l 30.049716867083113 4.825712584001949" fill="#ffd914" stroke="none" /><path d="M 79.26566170972629 96.67025291283419 l -30.995141551954166 -4.97753923245886 a52.39227128827003,52.39227128827003 0 0,0 0.15066055875362352,-0.889207146169145 l 30.90486913168032 5.510332166943833" fill="#ffea16" stroke="none" /><path d="M 79.32604984820605 96.31383870115002 l -29.86366452901861 -5.324685588407267 a51.33464579844565,51.33464579844565 0 0,0 0.16259460969653697,-0.8685869065657892 l 29.767584195412212 5.837950572435628" fill="#ffd714" stroke="none" /><path d="M 79.3925641242962 95.95851677861259 l -59.970243553026044 -11.761227091227996 a82.11265478197373,82.11265478197373 0 0,0 0.28395613355028193,-1.3846709521594047 l 59.758908123560765 12.791773699550804" fill="#4aebff" stroke="none" /><path d="M 79.46518482838121 95.60439243477599 l -29.704870035542456 -6.358516030506508 a51.37778843067211,51.37778843067211 0 0,0 0.19255811109122237,-0.8632002551706982 l 29.591017537449197 6.868894455227166" fill="#ffd814" stroke="none" /><path d="M 79.54389044137918 95.25157060432595 l -29.465627515669894 -6.8397879595059345 a51.249064518150064,51.249064518150064 0 0,0 0.20686855659316272,-0.8576037207294444 l 29.34352615881592 7.345976911894775" fill="#ffd614" stroke="none" /><path d="M 79.62865764111835 94.90015583598534 l -57.58173976401349 -14.415245412695324 a80.35870664492957,80.35870664492957 0 0,0 0.347469777596072,-1.3389427949205297 l 57.32507365454711 15.404284633164718" fill="#47fffc" stroke="none" /><path d="M 79.71946130924805 94.55025226153421 l -24.09951434236467 -6.475975603415101 a45.954455545129974,45.954455545129974 0 0,0 0.21185710705660205,-0.7621627344716888 l 23.984470464741708 6.889849641305733" fill="#ff740a" stroke="none" /><path d="M 79.91906864156998 93.8553929516997 l -30.817606972015383 -9.429945336300337 a53.22807422926824,53.22807422926824 0 0,0 0.27563148485771,-0.8738271300944134 l 30.65072000338947 9.959022632821165" fill="#fff817" stroke="none" /><path d="M 80.02781315780177 93.51064311812611 l -59.21847320266056 -19.24124832438496 a83.26598754966369,83.26598754966369 0 0,0 0.4546430223433498,-1.3593247687504646 l 58.87849288654544 20.257746196057745" fill="#4cdbff" stroke="none" /><path d="M 80.14247586403 93.16781622104843 l -27.096903426074938 -9.322966084784927 a49.65588721188164,49.65588721188164 0 0,0 0.2850411534784718,-0.8058497249381787 l 26.932409191786657 9.788013436149717" fill="#ffb911" stroke="none" /><path d="M 80.2630227832202 92.82701384747504 l -28.278062185029764 -10.277062502813806 a51.087652195330094,51.087652195330094 0 0,0 0.3074878486530703,-0.8239145610500226 l 28.096969747875065 10.76230020089317" fill="#ffd313" stroke="none" /><path d="M 80.38941819471856 92.48833698450439 l -56.14607160017132 -21.506265020183733 a81.1240450339957,81.1240450339957 0 0,0 0.5107200958658284,-1.2997269370747027 l 55.7675579544238 22.469540962154202" fill="#48f8ff" stroke="none" /><path d="M 80.52162464483688 92.15188598940014 l -27.88906631186298 -11.236900823284664 a51.067722891163974,51.067722891163974 0 0,0 0.3355351551945623,-0.8125249927134015 l 27.69150946978222 11.715300386451377" fill="#ffd213" stroke="none" /><path d="M 80.803312248108 91.48605970444005 l -27.57105944449295 -12.228065436580925 a51.161049438192116,51.161049438192116 0 0,0 0.3639686784661582,-0.8019567371235988 l 27.356488449063438 12.700844182546595" fill="#ffd413" stroke="none" /><path d="M 80.95270993114464 91.15688171328213 l -54.331713248327056 -25.224678431322165 a80.90174844244571,80.90174844244571 0 0,0 0.5972930095179546,-1.258051406753448 l 53.889462044967345 26.156172253716147" fill="#48fbff" stroke="none" /><path d="M 81.10775173730289 90.83032412892265 l -27.57324345330325 -13.38314538668889 a51.649507907573046,51.649507907573046 0 0,0 0.3950941086302447,-0.7964856140292665 l 27.338789331719592 13.855790589217118" fill="#ffdd14" stroke="none" /><line stroke="#e1ed5e" stroke-width="0.3" x1="26.266209847984243" x2="21.928928074336255" y1="57.711370442889674" y2="55.22380399835377" /><path d="M 25.398753493254645 57.213857153982495 a86.0,86.0 0 0,1 29.58750427330803,-30.492523968695096" fill="none" id="id11" stroke="none" /><text fill="#e1ed5e" style="font-size:6.75px; font-family:Arial;" text-anchor="middle"><textPath startOffset="21.46611528233685" xlink:href="#id11">November</textPath></text><path d="M 81.96595687620814 89.24020034530311 l -25.8338093647747 -15.413438416141624 a51.082549594469405,51.082549594469405 0 0,0 0.4570287643838865,-0.751235121024764 l 25.5646648021046 15.855841310373462" fill="#ffd313" stroke="none" /><path d="M 82.15384107792192 88.93136811851018 l -51.623232682723454 -32.01801360127213 a81.74628669791969,81.74628669791969 0 0,0 0.7519584142573253,-1.1894176281513091 l 51.064446672220164 32.901878877137655" fill="#49efff" stroke="none" /><path d="M 82.34701348167596 88.62581576622439 l -29.354549170969168 -18.91374301019558 a55.92018372927853,55.92018372927853 0 0,0 0.5283215525377211,-0.8046699705732357 l 29.024630983073525 19.416231044746482" fill="#d8ff1c" stroke="none" /><path d="M 83.39014120810768 87.1503855733568 l -23.805431312635417 -18.416207955760385 a51.09742971501744,51.09742971501744 0 0,0 0.5441776975190485,-0.6910504137387861 l 23.4848995345224 18.82325076345222" fill="#ffd313" stroke="none" /><path d="M 83.6137871275137 86.86637796730984 l -46.9685394521278 -37.64549193837885 a81.19324514884235,81.19324514884235 0 0,0 0.8834656642724573,-1.083024442242025 l 46.31357529577895 38.44840055022896" fill="#48f7ff" stroke="none" /><path d="M 83.84228863543731 86.58626213691792 l -23.10920802753708 -19.184700834839063 a51.03478386441725,51.03478386441725 0 0,0 0.5669463532641482,-0.6710856581795822 l 22.77555106078581 19.57964544264776" fill="#ffd213" stroke="none" /><path d="M 84.07557802195018 86.31012108654704 l -22.920466775707872 -19.704226328074817 a51.225888446898054,51.225888446898054 0 0,0 0.5805799164674038,-0.663703207908778 l 22.577894995662625 20.09584509218654" fill="#ffd513" stroke="none" /><path d="M 86.37877921826538 84.01681056812374 l -20.028332854914982 -23.50131777131443 a51.87792178783356,51.87792178783356 0 0,0 0.6846464296058488,-0.5733716954176425 l 19.620828888350022 23.842590624125883" fill="#ffe115" stroke="none" /><path d="M 87.51073957382395 83.11751280151077 l -17.968000331438862 -24.288430637749528 a51.212197847150364,51.212197847150364 0 0,0 0.7132022438198048,-0.5181717612039383 l 17.547252771265278 24.594121633770133" fill="#ffd513" stroke="none" /><path d="M 87.80319425747018 82.90503203632743 l -18.13588595117871 -25.41914628082889 a52.225684249994245,52.225684249994245 0 0,0 0.736304705731399,-0.5158285004987259 l 17.695650105863653 25.72755962409156" fill="#ffe715" stroke="none" /><path d="M 89.00827224532344 82.1063720568725 l -15.739311140305164 -25.622302872805257 a51.070389416785055,51.070389416785055 0 0,0 0.7530157074511125,-0.4536835381890429 l 15.295933366636403 25.889433020452916" fill="#ffd213" stroke="none" /><line stroke="#e1ed5e" stroke-width="0.3" x1="56.762969772571076" x2="54.21961505331055" y1="26.818313649435495" y2="22.513508569990535" /><path d="M 56.25429882871897 25.957352633546506 a86.0,86.0 0 0,1 42.265352541879196,-11.944610805530505" fill="none" id="id12" stroke="none" /><text fill="#e1ed5e" style="font-size:6.75px; font-family:Arial;" text-anchor="middle"><textPath startOffset="22.20632615414155" xlink:href="#id12">December</textPath></text><path d="M 89.3179101791058 81.91981866633112 l -30.990514124304998 -52.45360452737296 a81.92448271099877,81.92448271099877 0 0,0 1.2202974230042287,-0.7068750321525683 l 30.083019968835448 52.979283716915575" fill="#49edff" stroke="none" /><path d="M 89.63071344664047 81.73862282372117 l -15.445994333002707 -27.201980283420948 a52.28140777322488,52.28140777322488 0 0,0 0.7864017764268212,-0.43763173716239095 l 14.97546846750384 27.463827418143524" fill="#ffe815" stroke="none" /><path d="M 91.56875222667455 80.76684994638697 l -12.228084519245993 -27.894398403400174 a51.456912405847014,51.456912405847014 0 0,0 0.8142841793535404,-0.34863398984197513 l 11.746116582102145 28.100751921204935" fill="#ffd914" stroke="none" /><path d="M 91.90106846888425 80.62456947434976 l -11.59466278853033 -27.738422341812555 a51.064202620267444,51.064202620267444 0 0,0 0.8139053477909906,-0.33201242731017067 l 11.115473571150961 27.933895655306305" fill="#ffd213" stroke="none" /><path d="M 92.57280143429618 80.3572730644239 l -10.77953546509564 -28.508659053626268 a51.478550258815815,51.478550258815815 0 0,0 0.8315444805426377,-0.3062648498764022 l 10.28720865878043 28.689987171308992" fill="#ffda14" stroke="none" /><path d="M 92.91201910852362 80.23233633223022 l -10.101981320765372 -28.173406811398436 a50.92976575193405,50.92976575193405 0 0,0 0.8277735990464979,-0.28879395494664356 l 9.615525717655588 28.34312161951729" fill="#ffd013" stroke="none" /><path d="M 93.59665428221793 80.00007090966166 l -9.2080549084206 -28.760034729491608 a51.19814353297322,51.19814353297322 0 0,0 0.8416356208399031,-0.26150028426722954 l 8.711633914869967 28.914275148641362" fill="#ffd513" stroke="none" /><path d="M 93.94186890950719 79.89281104454417 l -8.691446992634303 -28.847273914472193 a51.128167271215816,51.128167271215816 0 0,0 0.8448559139516713,-0.24663660875706914 l 8.19360086095921 28.992608852147963" fill="#ffd313" stroke="none" /></svg>