<?xml version="1.0" encoding="utf-8" ?>
<svg baseProfile="full" height="200mm" version="1.1" viewBox="0,0,200,200" width="200mm" xmlns="http://www.w3.org/2000/svg" xmlns:ev="http://www.w3.org/2001/xml-events" xmlns:xlink="http://www.w3.org/1999/xlink"><defs /><rect fill="#1a1a1a" height="200" width="200" x="0" y="0" /><rect fill="#1a1a1a" height="200" width="180" x="10" y="0" /><text alignment-baseline="middle" fill="#e1ed5e" style="dominant-baseline: central; font-size:9.0px; font-family:Arial;" text-anchor="middle" x="100.0" y="100.0">2026</text><line stroke="#e1ed5e" stroke-width="0.3" x1="100.0" x2="100.0" y1="15.0" y2="10.0" /><path d="M 100.0 14.0 a86.0,86.0 0 0,1 42.46469731375804,11.215312516191453" fill="none" id="id133" stroke="none" /><text fill="#e1ed5e" style="font-size:6.75px; font-family:Arial;" text-anchor="middle"><textPath startOffset="22.20632615414155" xlink:href="#id133">January</textPath></text><path d="M 102.16513564639614 79.11191278185805 l 2.4721620592057914 -23.850116179106205 a44.97789871952587,44.97789871952587 0 0,0 0.7694075631533802,0.08645190460521647 l -2.8823363258688968 23.80402832103039" fill="red" stroke="none" /><path d="M 103.59715602781102 79.31037775812273 l 3.67090608598076 -21.113807579419255 a42.43054880288493,42.43054880288493 0 0,0 0.7185004842184453,0.13130137095140354 l -4.033801691302106 21.047490727117115" fill="red" stroke="none" /><path d="M 104.66035177308747 79.52364482259891 l 4.329900947905978 -19.024441503382686 a40.51095632546767,40.51095632546767 0 0,0 0.6786092787521548,0.1606048912941866 l -4.6567339136206565 18.947090699947633" fill="red" stroke="none" /><path d="M 106.0581310904928 79.89281104454417 l 5.651285152151057 -18.756850371526056 a40.58970290052251,40.58970290052251 0 0,0 0.6672456742184075,0.2073164789651718 l -5.973316199080182 18.65679375767836" fill="red" stroke="none" /><path d="M 107.08798089147638 80.2323363322302 l 7.630122671494669 -21.27964240074509 a43.60623703064367,43.60623703064367 0 0,0 0.7043812527306998,0.2594295598986407 l -7.995286249997945 21.145149573040122" fill="red" stroke="none" /><path d="M 108.43124777332544 80.76684994638697 l 9.011382384569867 -20.556538516310034 a43.44496131102645,43.44496131102645 0 0,0 0.6823297668045446,0.3061414769298943 l -9.363894269841193 20.39837670886361" fill="red" stroke="none" /><path d="M 109.08828744355905 81.06846463323043 l 17.58405746063768 -36.62881568994549 a61.63088991921054,61.63088991921054 0 0,0 0.9524283151667118,0.4673524379015467 l -18.211957042814827 36.32070809190911" fill="red" stroke="none" /><path d="M 109.41281617654863 81.2277094730956 l 9.468514805502824 -18.88337214425113 a42.12426368326967,42.12426368326967 0 0,0 0.6453828599113274,0.33059016765285804 l -9.792158153002909 18.71758945128577" fill="red" stroke="none" /><path d="M 110.36928655335952 81.73862282372117 l 11.013329000483385 -19.395601983736974 a43.304322271354266,43.304322271354266 0 0,0 0.6450349288025747,0.3736458648862324 l -11.345560661751287 19.20315196146069" fill="red" stroke="none" /><line stroke="#e1ed5e" stroke-width="0.3" x1="143.23703022742887" x2="145.7803849466894" y1="26.81831364943548" y2="22.513508569990506" /><path d="M 143.74570117128098 25.957352633546492 a86.0,86.0 0 0,1 28.547481713284135,27.462654790039103" fill="none" id="id134" stroke="none" /><text fill="#e1ed5e" style="font-size:6.75px; font-family:Arial;" text-anchor="middle"><textPath startOffset="19.985693538727396" xlink:href="#id134">February</textPath></text><path d="M 110.99172775467656 82.1063720568725 l 10.244905557525653 -16.677862884736047 a40.57317552888841,40.57317552888841 0 0,0 0.5919449480709419,0.3706758721768899 l -10.53046965796886 16.499042671236214" fill="red" stroke="none" /><path d="M 111.2981086023043 82.29822771554956 l 12.197795374079739 -19.111393214988592 a43.6722641702551,43.6722641702551 0 0,0 0.630196957249858,0.40989763106412275 l -12.524959357113877 18.89859665976494" fill="red" stroke="none" /><path d="M 111.60114157652 82.49532879139004 l 12.311554368028164 -18.576595230544992 a43.28596556841144,43.28596556841144 0 0,0 0.6175367658274349,0.4169635809114076 l -12.62949582826214 18.361919737334915" fill="red" stroke="none" /><path d="M 114.16331599549186 84.49514656593476 l 12.57211085942744 -13.762930679107047 a39.64071437310382,39.64071437310382 0 0,0 0.4998356498446759,0.4645427624736158 l -12.807154393066963 13.54448333055879" fill="red" stroke="none" /><path d="M 114.42810811169701 84.74124197986012 l 31.11436580147252 -32.905671002692785 a66.28671928242649,66.28671928242649 0 0,0 0.8223238618586629,0.7910749035816917 l -31.676172906943602 32.36521301234879" fill="red" stroke="none" /><path d="M 114.68862486808459 84.99185889309783 l 15.798048218456854 -16.14169733420138 a43.58611786787742,43.58611786787742 0 0,0 0.531676333687504,0.5293931465444675 l -16.07356035231168 15.867368337006791" fill="red" stroke="none" /><path d="M 116.15771136456269 86.58626213691792 l 17.503564545022375 -14.531032346041789 a43.74919059710646,43.74919059710646 0 0,0 0.47603600104168675,0.5835638501467592 l -17.75109903814047 14.22758432628693" fill="red" stroke="none" /><path d="M 116.60985879189232 87.15038557335679 l 17.784678548459212 -13.758471093146365 a43.48533561886434,43.48533561886434 0 0,0 0.4529185308226176,0.5959876960491387 l -18.018873019505943 13.450298621216193" fill="red" stroke="none" /><path d="M 117.45458315368197 88.32363383020206 l 18.84753327429022 -12.608189950479588 a43.67588949419298,43.67588949419298 0 0,0 0.41264016330396885,0.6284792783263049 l -19.061770072952115 12.28189260817561" fill="red" stroke="none" /><path d="M 117.65298651832404 88.62581576622439 l 18.957469361653523 -12.21468950320566 a43.55181332526843,43.55181332526843 0 0,0 0.4006194508518819,0.6336837622784546 l -19.16491640875136 11.886558093212999" fill="red" stroke="none" /><line stroke="#e1ed5e" stroke-width="0.3" x1="172.23445277983987" x2="176.4835382374775" y1="55.19839476539836" y2="52.563006222186495" /><path d="M 173.08426987136738 54.67131705675599 a86.0,86.0 0 0,1 12.851231095245387,41.99856678651699" fill="none" id="id135" stroke="none" /><text fill="#e1ed5e" style="font-size:6.75px; font-family:Arial;" text-anchor="middle"><textPath startOffset="22.20632615414155" xlink:href="#id135">March</textPath></text><path d="M 118.3937258080291 89.86733742301442 l 19.534512818751516 -10.761094791997325 a43.30242928894337,43.30242928894337 0 0,0 0.354032209194129,0.6559679154625907 l -19.716853127164107 10.423245893202274" fill="red" stroke="none" /><path d="M 118.73160827565052 90.50648371742162 l 20.138451017388608 -10.2065295102295 a43.577210944289504,43.577210944289504 0 0,0 0.33334488579129845,0.6720029487746085 l -20.311155916133313 9.85836697295594" fill="red" stroke="none" /><path d="M 118.89224826269711 90.83032412892265 l 20.20343198064318 -9.806081318106074 a43.45746857091833,43.45746857091833 0 0,0 0.32084401991906153,0.6757793313760109 l -20.369234194403997 9.456859571089522" fill="red" stroke="none" /><path d="M 119.04729006885535 91.15688171328212 l 21.97386649769547 -10.201844984415976 a45.22660624075516,45.22660624075516 0 0,0 0.32175000876094534,0.7089334947248958 l -22.146218823419765 9.822089480849018" fill="red" stroke="none" /><path d="M 119.34039704204932 91.81776055985345 l 25.58809974429294 -10.825421963724724 a48.783819197809684,48.783819197809684 0 0,0 0.3205290038172628,0.7761864068760266 l -25.770650434996398 10.383360986395394" fill="red" stroke="none" /><path d="M 119.47837535516314 92.15188598940014 l 21.144332017304414 -8.519351605255684 a43.796098969603925,43.796098969603925 0 0,0 0.2757203225619549,0.7016781466669502 l -21.28784588974807 8.15412445369295" fill="red" stroke="none" /><path d="M 119.61058180528143 92.48833698450437 l 22.725406753025194 -8.70476965516752 a45.33551164122029,45.33551164122029 0 0,0 0.27286669758959037,0.7311470887532682 l -22.87187803911641 8.31229942938492" fill="red" stroke="none" /><path d="M 119.85752413597 93.16781622104841 l 21.11397315635257 -7.264477883561927 a43.328737119862765,43.328737119862765 0 0,0 0.23658048836262027,0.7073455476713002 l -21.23589093848696 6.899959232968312" fill="red" stroke="none" /><path d="M 120.18372546131832 94.20196356495316 l 23.430899460518763 -6.73082920387354 a45.37849690404754,45.37849690404754 0 0,0 0.209201849148816,0.7526103590246592 l -23.543288080233943 6.326507541429929" fill="red" stroke="none" /><path d="M 120.37134235888165 94.90015583598534 l 25.210984828009302 -6.311419816089304 a46.98899336436561,46.98899336436561 0 0,0 0.18967263743143858,0.7863155341760116 l -25.315890265701558 5.8765190502538855" fill="red" stroke="none" /><path d="M 120.53481517161879 95.60439243477599 l 61.60444551485638 -13.186822695672053 a84.0,84.0 0 0,0 0.2904828163400124,1.4164973753463528 l -61.822307627111385 12.124449664162288" fill="red" stroke="none" /><path d="M 120.6074358757038 95.95851677861258 l 22.364282079960148 -4.38603188333093 a43.790313482565836,43.790313482565836 0 0,0 0.1386990952882474,0.7409361131020167 l -22.436466899158255 4.0004176927663515" fill="red" stroke="none" /><path d="M 120.67395015179393 96.31383870115 l 22.217960881616968 -3.9614581122549977 a43.568361396260315,43.568361396260315 0 0,0 0.125286297206397,0.7394468181628 l -22.282859040343588 3.5784255057763596" fill="red" stroke="none" /><line stroke="#e1ed5e" stroke-width="0.3" x1="184.98032266829074" x2="189.97916517819016" y1="98.17113171792111" y2="98.06355123074" /><path d="M 185.9800911702706 98.14961562048488 a86.0,86.0 0 0,1 -9.607161424134198,41.387399972396054" fill="none" id="id136" stroke="none" /><text fill="#e1ed5e" style="font-size:6.75px; font-family:Arial;" text-anchor="middle"><textPath startOffset="21.466115282336823" xlink:href="#id136">April</textPath></text><line stroke="#e1ed5e" stroke-width="0.3" x1="174.80103733775053" x2="179.2010983576182" y1="140.37084112569926" y2="142.7455964860345" /><path d="M 175.68104954172406 140.8457921977663 a86.0,86.0 0 0,1 -30.038265399797805,32.042727171017184" fill="none" id="id137" stroke="none" /><text fill="#e1ed5e" style="font-size:6.75px; font-family:Arial;" text-anchor="middle"><textPath startOffset="22.206326154141568" xlink:href="#id137">May</textPath></text><line stroke="#e1ed5e" stroke-width="0.3" x1="143.8653032363475" x2="146.44561519142675" y1="172.8068346515853" y2="177.08958963109032" /><path d="M 144.38136562736335 173.6633856474863 a86.0,86.0 0 0,1 -40.68145358897372,12.25698825130547" fill="none" id="id138" stroke="none" /><text fill="#e1ed5e" style="font-size:6.75px; font-family:Arial;" text-anchor="middle"><textPath startOffset="21.466115282336833" xlink:href="#id138">June</textPath></text><line stroke="#e1ed5e" stroke-width="0.3" x1="102.19456741930631" x2="102.32365962044197" y1="184.97166512339345" y2="189.96999836594603" /><path d="M 102.22038585953345 185.97133177190398 a86.0,86.0 0 0,1 -42.740103519485714,-10.115201625700543" fill="none" id="id139" stroke="none" /><text fill="#e1ed5e" style="font-size:6.75px; font-family:Arial;" text-anchor="middle"><textPath startOffset="22.20632615414155" xlink:href="#id139">July</textPath></text><line stroke="#e1ed5e" stroke-width="0.3" x1="58.666819895761336" x2="56.23545636021788" y1="174.27360380694188" y2="178.64263932499728" /><path d="M 58.180547188652646 175.14741091055294 a86.0,86.0 0 0,1 -31.652253787137756,-30.449443065178592" fill="none" id="id140" stroke="none" /><text fill="#e1ed5e" style="font-size:6.75px; font-family:Arial;" text-anchor="middle"><textPath startOffset="22.20632615414155" xlink:href="#id140">August</textPath></text><line stroke="#e1ed5e" stroke-width="0.3" x1="26.63291911575756" x2="22.317208475507996" y1="142.92168965132927" y2="145.44649492493687" /><path d="M 25.769776987707644 143.4266507060508 a86.0,86.0 0 0,1 -11.730757126820373,-40.83630448921669" fill="none" id="id141" stroke="none" /><text fill="#e1ed5e" style="font-size:6.75px; font-family:Arial;" text-anchor="middle"><textPath startOffset="21.46611528233685" xlink:href="#id141">September</textPath></text><line stroke="#e1ed5e" stroke-width="0.3" x1="15.007084014347285" x2="10.007500721073583" y1="101.09737516637583" y2="101.16192664675087" /><path d="M 14.007167355692545 101.11028546245083 a86.0,86.0 0 0,1 10.666146001902534,-42.60595125391555" fill="none" id="id142" stroke="none" /><text fill="#e1ed5e" style="font-size:6.75px; font-family:Arial;" text-anchor="middle"><textPath startOffset="22.20632615414155" xlink:href="#id142">October</textPath></text><line stroke="#e1ed5e" stroke-width="0.3" x1="26.266209847984243" x2="21.928928074336255" y1="57.711370442889674" y2="55.22380399835377" /><path d="M 25.398753493254645 57.213857153982495 a86.0,86.0 0 0,1 29.58750427330803,-30.492523968695096" fill="none" id="id143" stroke="none" /><text fill="#e1ed5e" style="font-size:6.75px; font-family:Arial;" text-anchor="middle"><textPath startOffset="21.46611528233685" xlink:href="#id143">November</textPath></text><line stroke="#e1ed5e" stroke-width="0.3" x1="56.762969772571076" x2="54.21961505331055" y1="26.818313649435495" y2="22.513508569990535" /><path d="M 56.25429882871897 25.957352633546506 a86.0,86.0 0 0,1 42.265352541879196,-11.944610805530505" fill="none" id="id144" stroke="none" /><text fill="#e1ed5e" style="font-size:6.75px; font-family:Arial;" text-anchor="middle"><textPath startOffset="22.20632615414155" xlink:href="#id144">December</textPath></text></svg>